<svg width="244" height="244" viewBox="0 0 244 244" fill="none" xmlns="http://www.w3.org/2000/svg">
<g clip-path="url(#clip0_4690_952)">
<path d="M183.47 0H60.53C27.1002 0 0 27.1002 0 60.53V183.47C0 216.9 27.1002 244 60.53 244H183.47C216.9 244 244 216.9 244 183.47V60.53C244 27.1002 216.9 0 183.47 0Z" fill="#0F2E47"/>
<path d="M203.119 90.3674C202.319 91.6074 200.679 91.9374 199.449 91.1474C193.399 87.2174 185.879 86.3774 177.109 88.6874C170.389 90.4274 165.539 93.4074 165.499 93.4374C165.399 93.4974 165.269 93.5674 165.159 93.6074C165.939 96.5874 166.339 100.137 165.809 104.147C165.099 109.797 162.319 115.007 157.889 118.577C155.059 120.867 151.209 122.907 146.449 123.137C140.299 123.427 135.129 121.567 131.669 119.757C131.959 125.107 128.559 132.377 122.409 138.527C116.129 144.807 108.699 148.207 103.339 147.767C104.579 151.817 105.309 158.267 102.579 166.997C100.479 173.637 96.2994 179.617 92.0994 184.367C85.5894 191.757 77.3994 197.487 69.4194 200.557C55.4794 205.907 47.3494 202.807 44.4494 201.207C43.7594 200.807 43.1894 200.267 42.7894 199.547C41.1894 196.647 38.1094 188.527 43.4394 174.577C46.5094 166.597 52.2594 158.427 59.6294 151.897C64.3794 147.717 70.3794 143.517 76.9994 141.437C85.7094 138.687 92.1594 139.417 96.2294 140.637C95.8294 135.257 99.2294 127.867 105.489 121.617C111.659 115.447 118.909 112.067 124.239 112.337C122.429 108.877 120.569 103.707 120.859 97.5574C121.109 92.7874 123.129 88.9674 125.419 86.1174C128.989 81.6874 134.199 78.9173 139.849 78.1973C143.859 77.6773 147.429 78.0674 150.389 78.8474C150.429 78.7374 150.489 78.6374 150.559 78.5274C150.579 78.5074 151.339 77.2474 152.299 75.1474C153.289 73.0474 154.479 70.1274 155.339 66.7474C157.609 58.0374 156.749 50.5574 152.839 44.5474C152.039 43.3074 152.379 41.6674 153.619 40.8774C154.839 40.0774 156.499 40.4174 157.289 41.6574C162.009 48.8974 163.109 58.0974 160.439 68.2374C158.839 74.3074 156.389 78.9874 155.439 80.6674C157.179 81.5074 158.509 82.3674 159.349 82.9774C159.999 83.4374 160.549 84.0074 161.009 84.6374C161.619 85.4974 162.459 86.7974 163.299 88.5474C164.939 87.6274 169.639 85.1474 175.749 83.5474C185.889 80.8774 195.089 81.9973 202.329 86.6973C203.569 87.5173 203.899 89.1574 203.109 90.3674H203.119Z" fill="white"/>
</g>
<defs>
<clipPath id="clip0_4690_952">
<rect width="244" height="244" rx="48" fill="white"/>
</clipPath>
</defs>
</svg>
