<svg width="518" height="144" viewBox="0 0 518 144" fill="none" xmlns="http://www.w3.org/2000/svg">
<path d="M174.525 71V11.5H187.275V34.875H195.775L211.925 11.5H226.375L206.825 39.975L227.65 71H212.775L196.2 46.775H187.275V71H174.525ZM224.635 27.65H236.96L245.46 60.8H248.86L258.21 27.65H270.535L253.11 87.15H240.785L245.46 71H236.11L224.635 27.65ZM275.194 87.15V27.65H287.094V33.175H287.519C288.425 31.985 289.53 30.8517 290.834 29.775C293.894 27.5083 297.322 26.375 301.119 26.375C306.785 26.375 311.517 28.5 315.314 32.75C319.167 36.9433 321.094 42.4683 321.094 49.325C321.094 56.1817 319.167 61.735 315.314 65.985C311.517 70.1783 306.785 72.275 301.119 72.275C297.322 72.275 293.894 71.1417 290.834 68.875C289.53 67.7983 288.425 66.665 287.519 65.475H287.094V87.15H275.194ZM290.154 39.975C288.114 42.185 287.094 45.3017 287.094 49.325C287.094 53.3483 288.114 56.4933 290.154 58.76C292.194 60.97 294.857 62.075 298.144 62.075C301.26 62.075 303.81 60.9417 305.794 58.675C307.777 56.4083 308.769 53.2917 308.769 49.325C308.769 45.3583 307.777 42.2417 305.794 39.975C303.81 37.7083 301.26 36.575 298.144 36.575C294.857 36.575 292.194 37.7083 290.154 39.975ZM332.484 65.645C328.007 61.1683 325.769 55.7283 325.769 49.325C325.769 42.9217 328.007 37.51 332.484 33.09C337.017 28.6133 342.57 26.375 349.144 26.375C357.02 26.375 363.027 29.2083 367.164 34.875C369.034 37.3117 370.394 40.145 371.244 43.375H358.919C358.409 42.1283 357.729 40.995 356.879 39.975C354.725 37.7083 352.147 36.575 349.144 36.575C346.14 36.575 343.534 37.765 341.324 40.145C339.17 42.525 338.094 45.585 338.094 49.325C338.094 53.065 339.17 56.125 341.324 58.505C343.534 60.885 346.14 62.075 349.144 62.075C352.147 62.075 354.725 60.9417 356.879 58.675C357.729 57.655 358.409 56.5217 358.919 55.275H371.244C370.45 58.5617 369.147 61.395 367.334 63.775C363.197 69.4417 357.134 72.275 349.144 72.275C342.57 72.275 337.017 70.065 332.484 65.645ZM373.79 71L389.515 11.5H416.29L432.015 71H418.84L415.44 57.825H390.365L386.965 71H373.79ZM393.34 45.925H412.465L406.515 23.4H399.29L393.34 45.925ZM437.142 71V27.65H449.042V33.6H449.467C450.203 32.2967 451.252 31.1067 452.612 30.03C455.728 27.5933 459.213 26.375 463.067 26.375C468.45 26.375 472.615 27.9333 475.562 31.05C478.565 34.1667 480.067 38.7 480.067 44.65V71H468.167V46.35C468.167 43.1767 467.373 40.7683 465.787 39.125C464.257 37.425 462.075 36.575 459.242 36.575C456.408 36.575 454 37.6517 452.017 39.805C450.033 41.9583 449.042 44.7067 449.042 48.05V71H437.142ZM485.622 37.85V27.65H491.147V18.3H503.047V27.65H515.287V37.85H503.047V60.8H515.797V71H491.147V37.85H485.622Z" fill="white"/>
<rect width="144" height="144" rx="25" fill="white"/>
<path d="M64.2573 79.8724C65.4232 81.0384 67.4429 81.2907 69.916 80.5481C72.3668 79.8121 75.1335 78.1278 77.6111 75.6502C80.0888 73.1726 81.7731 70.4058 82.509 67.955C83.2517 65.4819 82.9993 63.4623 81.8334 62.2963C80.6674 61.1304 78.6478 60.878 76.1747 61.6207C73.7239 62.3566 70.9572 64.041 68.4795 66.5186C66.0019 68.9962 64.3176 71.7629 63.5816 74.2137C62.839 76.6868 63.0914 78.7065 64.2573 79.8724Z" fill="#212121" stroke="#212121"/>
<path d="M99.6325 62.8605C94.5791 67.914 86.3858 67.914 81.3323 62.8605C76.2789 57.8071 76.2789 49.6138 81.3323 44.5603C83.8223 42.0703 87.5107 41.1839 91.0688 41.3839C94.6377 41.5845 97.9427 42.8706 99.6325 44.5603C101.322 46.2501 102.608 49.5552 102.809 53.124C103.009 56.6821 102.123 60.3705 99.6325 62.8605Z" fill="#212121" stroke="#212121"/>
<path d="M39.6009 86.2947C44.1145 81.7811 49.2362 78.7649 53.8483 77.5203C58.4755 76.2717 62.4817 76.8265 64.9255 79.2703C67.3694 81.7141 67.9241 85.7203 66.6755 90.3475C65.4309 94.9597 62.4147 100.081 57.9011 104.595C53.411 109.085 47.8943 111.701 43.0635 112.749C40.6481 113.273 38.4193 113.402 36.5884 113.185C34.7444 112.968 33.3658 112.409 32.5765 111.619C31.7871 110.83 31.228 109.451 31.0103 107.607C30.7943 105.777 30.9229 103.548 31.4469 101.132C32.4948 96.3015 35.1108 90.7848 39.6009 86.2947Z" fill="#212121" stroke="#212121"/>
<path d="M102.081 48.7196C105.487 45.8536 117.318 42.6214 123.456 47.1749" stroke="#212121" stroke-width="3" stroke-linecap="round"/>
<path d="M95.4679 42.1105C98.3339 38.7046 101.566 26.8732 97.0126 20.7355" stroke="#212121" stroke-width="3" stroke-linecap="round"/>
<path d="M192.75 116.85C194.35 117.617 195.617 118.717 196.55 120.15C197.517 121.583 198 123.233 198 125.1C198 127.9 197.017 130.25 195.05 132.15C193.083 134.05 190.683 135 187.85 135H172.75V100H186.75C189.483 100 191.8 100.917 193.7 102.75C195.6 104.583 196.55 106.85 196.55 109.55C196.55 112.65 195.283 115.083 192.75 116.85ZM186.75 104.35H177.4V115.05H186.75C188.217 115.05 189.45 114.533 190.45 113.5C191.45 112.467 191.95 111.2 191.95 109.7C191.95 108.233 191.433 106.983 190.4 105.95C189.4 104.883 188.183 104.35 186.75 104.35ZM187.85 130.65C189.417 130.65 190.733 130.1 191.8 129C192.867 127.9 193.4 126.55 193.4 124.95C193.4 123.383 192.85 122.05 191.75 120.95C190.683 119.85 189.383 119.3 187.85 119.3H177.4V130.65H187.85ZM205.262 105.45C204.428 105.45 203.728 105.167 203.162 104.6C202.595 104.033 202.312 103.35 202.312 102.55C202.312 101.75 202.595 101.067 203.162 100.5C203.728 99.9 204.428 99.6 205.262 99.6C206.062 99.6 206.745 99.9 207.312 100.5C207.878 101.067 208.162 101.75 208.162 102.55C208.162 103.35 207.878 104.033 207.312 104.6C206.745 105.167 206.062 105.45 205.262 105.45ZM203.062 135V110H207.412V135H203.062ZM214.048 135V98.5H218.398V135H214.048ZM227.234 105.45C226.401 105.45 225.701 105.167 225.134 104.6C224.568 104.033 224.284 103.35 224.284 102.55C224.284 101.75 224.568 101.067 225.134 100.5C225.701 99.9 226.401 99.6 227.234 99.6C228.034 99.6 228.718 99.9 229.284 100.5C229.851 101.067 230.134 101.75 230.134 102.55C230.134 103.35 229.851 104.033 229.284 104.6C228.718 105.167 228.034 105.45 227.234 105.45ZM225.034 135V110H229.384V135H225.034ZM263.021 109.35C265.821 109.35 268.087 110.267 269.821 112.1C271.554 113.9 272.421 116.35 272.421 119.45V135H268.071V119.6C268.071 117.667 267.571 116.167 266.571 115.1C265.571 114.033 264.237 113.5 262.571 113.5C260.704 113.5 259.204 114.133 258.071 115.4C256.971 116.633 256.421 118.533 256.421 121.1V135H252.071V119.6C252.071 117.667 251.587 116.167 250.621 115.1C249.687 114.033 248.404 113.5 246.771 113.5C244.937 113.5 243.404 114.133 242.171 115.4C240.971 116.667 240.371 118.567 240.371 121.1V135H236.021V110H240.371V113.35C242.071 110.683 244.554 109.35 247.821 109.35C251.187 109.35 253.637 110.767 255.171 113.6C256.904 110.767 259.521 109.35 263.021 109.35Z" fill="white"/>
</svg>
