<svg width="880" height="244" viewBox="0 0 880 244" fill="none" xmlns="http://www.w3.org/2000/svg">
<g clip-path="url(#clip0_4282_707)">
<path d="M183.47 0H60.53C27.1002 0 0 27.1002 0 60.53V183.47C0 216.9 27.1002 244 60.53 244H183.47C216.9 244 244 216.9 244 183.47V60.53C244 27.1002 216.9 0 183.47 0Z" fill="#0F2E47"/>
<path d="M203.119 90.3674C202.319 91.6074 200.679 91.9374 199.449 91.1474C193.399 87.2174 185.879 86.3774 177.109 88.6874C170.389 90.4274 165.539 93.4074 165.499 93.4374C165.399 93.4974 165.269 93.5674 165.159 93.6074C165.939 96.5874 166.339 100.137 165.809 104.147C165.099 109.797 162.319 115.007 157.889 118.577C155.059 120.867 151.209 122.907 146.449 123.137C140.299 123.427 135.129 121.567 131.669 119.757C131.959 125.107 128.559 132.377 122.409 138.527C116.129 144.807 108.699 148.207 103.339 147.767C104.579 151.817 105.309 158.267 102.579 166.997C100.479 173.637 96.2994 179.617 92.0994 184.367C85.5894 191.757 77.3994 197.487 69.4194 200.557C55.4794 205.907 47.3494 202.807 44.4494 201.207C43.7594 200.807 43.1894 200.267 42.7894 199.547C41.1894 196.647 38.1094 188.527 43.4394 174.577C46.5094 166.597 52.2594 158.427 59.6294 151.897C64.3794 147.717 70.3794 143.517 76.9994 141.437C85.7094 138.687 92.1594 139.417 96.2294 140.637C95.8294 135.257 99.2294 127.867 105.489 121.617C111.659 115.447 118.909 112.067 124.239 112.337C122.429 108.877 120.569 103.707 120.859 97.5574C121.109 92.7873 123.129 88.9674 125.419 86.1174C128.989 81.6874 134.199 78.9174 139.849 78.1973C143.859 77.6773 147.429 78.0674 150.389 78.8474C150.429 78.7374 150.489 78.6374 150.559 78.5274C150.579 78.5074 151.339 77.2474 152.299 75.1474C153.289 73.0474 154.479 70.1274 155.339 66.7474C157.609 58.0374 156.749 50.5574 152.839 44.5474C152.039 43.3074 152.379 41.6674 153.619 40.8774C154.839 40.0774 156.499 40.4174 157.289 41.6574C162.009 48.8974 163.109 58.0974 160.439 68.2374C158.839 74.3074 156.389 78.9874 155.439 80.6674C157.179 81.5074 158.509 82.3674 159.349 82.9774C159.999 83.4374 160.549 84.0074 161.009 84.6374C161.619 85.4974 162.459 86.7974 163.299 88.5474C164.939 87.6274 169.639 85.1474 175.749 83.5474C185.889 80.8774 195.089 81.9973 202.329 86.6973C203.569 87.5173 203.899 89.1574 203.109 90.3674H203.119Z" fill="white"/>
<path d="M305.52 121.443V21.3125H326.98V60.6425H341.28L368.46 21.3125H392.78L359.88 69.2325L394.92 121.443H369.89L342 80.6825H326.98V121.443H305.52Z" fill="#0F2E47"/>
<path d="M389.91 48.4944H410.65L424.95 104.274H430.67L446.4 48.4944H467.14L437.82 148.614H417.08L424.95 121.434H409.22L389.91 48.4844V48.4944Z" fill="#0F2E47"/>
<path d="M475.02 148.622V48.4916H495.05V57.7916H495.76C497.29 55.7916 499.14 53.8816 501.34 52.0716C506.49 48.2616 512.26 46.3516 518.65 46.3516C528.18 46.3516 536.17 49.9016 542.61 57.0116C549.05 64.1116 552.26 73.4416 552.26 84.9716C552.26 96.5016 549.04 105.832 542.61 112.932C536.17 120.032 528.18 123.592 518.65 123.592C512.26 123.592 506.49 121.682 501.34 117.872C499.14 116.062 497.29 114.152 495.76 112.152H495.05V148.622H475.02ZM500.19 69.1616C496.76 72.9316 495.04 78.2016 495.04 84.9716C495.04 91.7416 496.76 97.0116 500.19 100.772C503.62 104.542 508.1 106.422 513.64 106.422C518.88 106.422 523.17 104.512 526.51 100.702C529.85 96.8916 531.52 91.6416 531.52 84.9716C531.52 78.3016 529.85 73.0516 526.51 69.2416C523.17 65.4316 518.88 63.5216 513.64 63.5216C508.11 63.5216 503.63 65.4016 500.19 69.1716V69.1616Z" fill="#0F2E47"/>
<path d="M571.489 112.362C563.909 104.882 560.119 95.7516 560.119 84.9716C560.119 74.1916 563.909 65.0716 571.489 57.5816C579.069 50.1016 588.389 46.3516 599.449 46.3516C612.699 46.3516 622.809 51.1216 629.769 60.6516C632.919 64.7516 635.209 69.5216 636.639 74.9516H615.899C615.039 72.8516 613.899 70.9516 612.469 69.2316C608.839 65.4216 604.509 63.5116 599.449 63.5116C594.389 63.5116 590.029 65.5116 586.359 69.5216C582.689 73.5216 580.849 78.6716 580.849 84.9716C580.849 91.2716 582.679 96.4116 586.359 100.422C590.029 104.422 594.389 106.432 599.449 106.432C604.509 106.432 608.839 104.522 612.469 100.712C613.899 98.9916 615.039 97.0916 615.899 94.9916H636.639C635.299 100.522 633.109 105.292 630.059 109.292C623.099 118.832 612.899 123.592 599.449 123.592C588.389 123.592 579.069 119.852 571.489 112.362Z" fill="#0F2E47"/>
<path d="M640.94 121.44L667.4 21.3203H712.45L738.91 121.44H716.74L711.02 99.2703H668.82L663.1 121.44H640.93H640.94ZM673.83 79.2403H706.01L696 41.3403H683.84L673.83 79.2403Z" fill="#0F2E47"/>
<path d="M747.49 121.444V48.4938H767.52V58.5037H768.23C769.47 56.3137 771.23 54.3038 773.52 52.4938C778.76 48.3938 784.63 46.3438 791.11 46.3438C800.17 46.3438 807.2 48.9637 812.21 54.2137C817.22 59.4637 819.72 67.0837 819.72 77.1037V121.444H799.7V79.9637C799.7 74.6237 798.39 70.5438 795.77 67.7338C793.15 64.9238 789.45 63.5137 784.69 63.5137C779.93 63.5137 775.87 65.3237 772.53 68.9537C769.19 72.5737 767.52 77.2038 767.52 82.8237V121.444H747.49Z" fill="#0F2E47"/>
<path d="M829.02 65.6634V48.5034H838.32V32.7734H858.349V48.5034H878.95V65.6634H858.349V104.283H879.81V121.443H838.33V65.6634H829.03H829.02Z" fill="#0F2E47"/>
<path d="M340.44 190.559C343.28 191.909 345.55 193.829 347.24 196.329C348.93 198.819 349.77 201.739 349.77 205.089C349.77 210.019 348.03 214.159 344.56 217.509C341.08 220.859 336.84 222.529 331.84 222.529H305.15V160.789H329.9C334.79 160.789 338.89 162.409 342.19 165.649C345.55 168.949 347.23 172.949 347.23 177.659C347.23 183.199 344.97 187.499 340.45 190.559H340.44ZM313.35 168.459V187.419H329.84C331.13 187.419 332.34 187.169 333.46 186.669C334.58 186.169 335.55 185.499 336.37 184.679C337.19 183.849 337.84 182.859 338.31 181.709C338.78 180.559 339.02 179.299 339.02 177.939C339.02 175.339 338.11 173.129 336.28 171.289C334.52 169.399 332.37 168.449 329.84 168.449H313.35V168.459ZM331.78 214.849C333.19 214.849 334.48 214.589 335.66 214.059C336.84 213.529 337.87 212.829 338.75 211.939C339.63 211.059 340.32 209.999 340.82 208.769C341.32 207.529 341.57 206.209 341.57 204.799C341.57 202.039 340.6 199.679 338.66 197.739C336.78 195.799 334.48 194.829 331.78 194.829H313.35V214.849H331.78Z" fill="#0F2E47"/>
<path d="M364.571 170.398C363.101 170.398 361.871 169.898 360.871 168.898C359.871 167.898 359.371 166.698 359.371 165.278C359.371 163.858 359.871 162.648 360.871 161.618C361.871 160.588 363.101 160.078 364.571 160.078C366.041 160.078 367.181 160.588 368.191 161.618C369.191 162.648 369.691 163.868 369.691 165.278C369.691 166.688 369.191 167.898 368.191 168.898C367.191 169.898 365.991 170.398 364.571 170.398ZM360.691 222.518V178.418H368.361V222.518H360.691Z" fill="#0F2E47"/>
<path d="M382.189 222.521V158.141H389.859V222.521H382.189Z" fill="#0F2E47"/>
<path d="M407.581 170.398C406.111 170.398 404.881 169.898 403.881 168.898C402.881 167.898 402.381 166.698 402.381 165.278C402.381 163.858 402.881 162.648 403.881 161.618C404.881 160.588 406.111 160.078 407.581 160.078C409.051 160.078 410.191 160.588 411.201 161.618C412.201 162.648 412.701 163.868 412.701 165.278C412.701 166.688 412.201 167.898 411.201 168.898C410.201 169.898 409.001 170.398 407.581 170.398ZM403.701 222.518V178.418H411.371V222.518H403.701Z" fill="#0F2E47"/>
<path d="M470.721 177.28C473.191 177.28 475.441 177.69 477.471 178.51C479.501 179.33 481.251 180.52 482.721 182.08C484.191 183.64 485.321 185.52 486.121 187.72C486.911 189.92 487.311 192.38 487.311 195.08V222.51H479.641V195.41C479.641 192.01 478.771 189.37 477.041 187.49C475.311 185.61 472.941 184.67 469.941 184.67C466.591 184.67 463.941 185.76 462.001 187.93C460.061 190.1 459.091 193.47 459.091 198.05V222.51H451.421V195.41C451.421 192.01 450.581 189.37 448.911 187.49C447.231 185.61 444.961 184.67 442.081 184.67C438.851 184.67 436.161 185.78 434.011 188.01C431.861 190.24 430.791 193.58 430.791 198.04V222.5H423.121V178.4H430.791V184.39C433.791 179.63 438.171 177.25 443.931 177.25C449.691 177.25 454.191 179.75 456.901 184.75C459.961 179.75 464.571 177.25 470.751 177.25L470.721 177.28Z" fill="#0F2E47"/>
</g>
<defs>
<clipPath id="clip0_4282_707">
<rect width="879.8" height="244" fill="white"/>
</clipPath>
</defs>
</svg>
