<svg width="518" height="144" viewBox="0 0 518 144" fill="none" xmlns="http://www.w3.org/2000/svg">
<path d="M174.525 71V11.5H187.275V34.875H195.775L211.925 11.5H226.375L206.825 39.975L227.65 71H212.775L196.2 46.775H187.275V71H174.525ZM224.635 27.65H236.96L245.46 60.8H248.86L258.21 27.65H270.535L253.11 87.15H240.785L245.46 71H236.11L224.635 27.65ZM275.194 87.15V27.65H287.094V33.175H287.519C288.425 31.985 289.53 30.8517 290.834 29.775C293.894 27.5083 297.322 26.375 301.119 26.375C306.785 26.375 311.517 28.5 315.314 32.75C319.167 36.9433 321.094 42.4683 321.094 49.325C321.094 56.1817 319.167 61.735 315.314 65.985C311.517 70.1783 306.785 72.275 301.119 72.275C297.322 72.275 293.894 71.1417 290.834 68.875C289.53 67.7983 288.425 66.665 287.519 65.475H287.094V87.15H275.194ZM290.154 39.975C288.114 42.185 287.094 45.3017 287.094 49.325C287.094 53.3483 288.114 56.4933 290.154 58.76C292.194 60.97 294.857 62.075 298.144 62.075C301.26 62.075 303.81 60.9417 305.794 58.675C307.777 56.4083 308.769 53.2917 308.769 49.325C308.769 45.3583 307.777 42.2417 305.794 39.975C303.81 37.7083 301.26 36.575 298.144 36.575C294.857 36.575 292.194 37.7083 290.154 39.975ZM332.484 65.645C328.007 61.1683 325.769 55.7283 325.769 49.325C325.769 42.9217 328.007 37.51 332.484 33.09C337.017 28.6133 342.57 26.375 349.144 26.375C357.02 26.375 363.027 29.2083 367.164 34.875C369.034 37.3117 370.394 40.145 371.244 43.375H358.919C358.409 42.1283 357.729 40.995 356.879 39.975C354.725 37.7083 352.147 36.575 349.144 36.575C346.14 36.575 343.534 37.765 341.324 40.145C339.17 42.525 338.094 45.585 338.094 49.325C338.094 53.065 339.17 56.125 341.324 58.505C343.534 60.885 346.14 62.075 349.144 62.075C352.147 62.075 354.725 60.9417 356.879 58.675C357.729 57.655 358.409 56.5217 358.919 55.275H371.244C370.45 58.5617 369.147 61.395 367.334 63.775C363.197 69.4417 357.134 72.275 349.144 72.275C342.57 72.275 337.017 70.065 332.484 65.645ZM373.79 71L389.515 11.5H416.29L432.015 71H418.84L415.44 57.825H390.365L386.965 71H373.79ZM393.34 45.925H412.465L406.515 23.4H399.29L393.34 45.925ZM437.142 71V27.65H449.042V33.6H449.467C450.203 32.2967 451.252 31.1067 452.612 30.03C455.728 27.5933 459.213 26.375 463.067 26.375C468.45 26.375 472.615 27.9333 475.562 31.05C478.565 34.1667 480.067 38.7 480.067 44.65V71H468.167V46.35C468.167 43.1767 467.373 40.7683 465.787 39.125C464.257 37.425 462.075 36.575 459.242 36.575C456.408 36.575 454 37.6517 452.017 39.805C450.033 41.9583 449.042 44.7067 449.042 48.05V71H437.142ZM485.622 37.85V27.65H491.147V18.3H503.047V27.65H515.287V37.85H503.047V60.8H515.797V71H491.147V37.85H485.622Z" fill="#002E48"/>
<rect width="144" height="144" rx="25" fill="#002E48"/>
<ellipse cx="12.9282" cy="6.95701" rx="12.9282" ry="6.95701" transform="matrix(-0.707107 0.707107 0.707107 0.707107 77.2676 57.0234)" fill="white"/>
<path d="M99.9861 63.2141C94.7374 68.4628 86.2275 68.4628 80.9788 63.2141C75.7301 57.9653 75.7301 49.4555 80.9788 44.2068C86.2275 38.9581 96.3759 40.5966 99.9861 44.2068C103.596 47.8169 105.235 57.9653 99.9861 63.2141Z" fill="white"/>
<path d="M39.2473 85.9412C48.3756 76.813 60.0304 73.668 65.2791 78.9167C70.5278 84.1655 67.3829 95.8203 58.2546 104.948C49.1264 114.077 35.8331 115.583 32.2229 111.973C28.6128 108.363 30.1191 95.0694 39.2473 85.9412Z" fill="white"/>
<path d="M102.081 48.7196C105.487 45.8536 117.318 42.6214 123.456 47.1749" stroke="white" stroke-width="3" stroke-linecap="round"/>
<path d="M95.4679 42.1105C98.3339 38.7046 101.566 26.8732 97.0126 20.7355" stroke="white" stroke-width="3" stroke-linecap="round"/>
<path d="M186.1 109.35C189.6 109.35 192.583 110.633 195.05 113.2C197.517 115.733 198.75 118.833 198.75 122.5C198.75 126.167 197.517 129.283 195.05 131.85C192.583 134.383 189.6 135.65 186.1 135.65C181.967 135.65 178.817 134 176.65 130.7V135H172.3V100H176.65V114.3C178.817 111 181.967 109.35 186.1 109.35ZM185.55 131.45C188.05 131.45 190.15 130.6 191.85 128.9C193.55 127.167 194.4 125.033 194.4 122.5C194.4 119.967 193.55 117.85 191.85 116.15C190.15 114.417 188.05 113.55 185.55 113.55C183.017 113.55 180.9 114.417 179.2 116.15C177.5 117.85 176.65 119.967 176.65 122.5C176.65 125.033 177.5 127.167 179.2 128.9C180.9 130.6 183.017 131.45 185.55 131.45ZM206.141 105.45C205.307 105.45 204.607 105.167 204.041 104.6C203.474 104.033 203.191 103.35 203.191 102.55C203.191 101.75 203.474 101.067 204.041 100.5C204.607 99.9 205.307 99.6 206.141 99.6C206.941 99.6 207.624 99.9 208.191 100.5C208.757 101.067 209.041 101.75 209.041 102.55C209.041 103.35 208.757 104.033 208.191 104.6C207.624 105.167 206.941 105.45 206.141 105.45ZM203.941 135V110H208.291V135H203.941ZM214.927 135V98.5H219.277V135H214.927ZM228.113 105.45C227.28 105.45 226.58 105.167 226.013 104.6C225.447 104.033 225.163 103.35 225.163 102.55C225.163 101.75 225.447 101.067 226.013 100.5C226.58 99.9 227.28 99.6 228.113 99.6C228.913 99.6 229.597 99.9 230.163 100.5C230.73 101.067 231.013 101.75 231.013 102.55C231.013 103.35 230.73 104.033 230.163 104.6C229.597 105.167 228.913 105.45 228.113 105.45ZM225.913 135V110H230.263V135H225.913ZM263.9 109.35C266.7 109.35 268.966 110.267 270.7 112.1C272.433 113.9 273.3 116.35 273.3 119.45V135H268.95V119.6C268.95 117.667 268.45 116.167 267.45 115.1C266.45 114.033 265.116 113.5 263.45 113.5C261.583 113.5 260.083 114.133 258.95 115.4C257.85 116.633 257.3 118.533 257.3 121.1V135H252.95V119.6C252.95 117.667 252.466 116.167 251.5 115.1C250.566 114.033 249.283 113.5 247.65 113.5C245.816 113.5 244.283 114.133 243.05 115.4C241.85 116.667 241.25 118.567 241.25 121.1V135H236.9V110H241.25V113.35C242.95 110.683 245.433 109.35 248.7 109.35C252.066 109.35 254.516 110.767 256.05 113.6C257.783 110.767 260.4 109.35 263.9 109.35Z" fill="#002E48"/>
</svg>
