<svg width="881" height="244" viewBox="0 0 881 244" fill="none" xmlns="http://www.w3.org/2000/svg">
<g clip-path="url(#clip0_4282_677)">
<path d="M244 47.71V196.3C244 222.65 222.65 244.01 196.31 244.01H47.71C21.36 244.01 0 222.66 0 196.3V47.71C0 21.35 21.35 0 47.71 0H196.31C222.65 0 244 21.35 244 47.71Z" fill="#EE7C4D"/>
<path d="M244 47.71V196.3C244 222.65 222.65 244.01 196.31 244.01H47.71C21.36 244.01 0 222.66 0 196.3V47.71C0 21.35 21.35 0 47.71 0H196.31C222.65 0 244 21.35 244 47.71Z" fill="#EE7C4D"/>
<path d="M200.74 90.5286C199.94 91.7586 198.29 92.0886 197.06 91.3086C191.01 87.3586 183.51 86.5286 174.73 88.8386C168.01 90.5886 163.14 93.5486 163.1 93.5986C162.99 93.6586 162.89 93.7286 162.78 93.7686C163.54 96.7486 163.92 100.279 163.41 104.299C162.69 109.939 159.92 115.169 155.48 118.719C152.65 121.019 148.82 123.049 144.04 123.289C137.89 123.589 132.73 121.729 129.26 119.909C129.53 125.259 126.15 132.509 119.98 138.679C113.72 144.939 106.32 148.339 100.93 147.919C102.18 151.979 102.92 158.449 100.17 167.159C98.08 173.779 93.89 179.779 89.71 184.519C83.18 191.899 75.02 197.649 67.03 200.709C53.08 206.059 44.96 202.969 42.06 201.369C41.36 200.969 40.79 200.419 40.41 199.699C38.8 196.819 35.72 188.689 41.07 174.749C44.14 166.759 49.86 158.579 57.24 152.069C62 147.879 67.98 143.679 74.62 141.599C83.33 138.849 89.78 139.589 93.84 140.799C93.44 135.429 96.84 128.029 103.1 121.769C109.27 115.599 116.52 112.209 121.87 112.509C120.07 109.059 118.19 103.879 118.49 97.7086C118.72 92.9486 120.75 89.1286 123.04 86.2686C126.61 81.8286 131.81 79.0586 137.46 78.3386C141.48 77.8286 145.05 78.2286 148.03 78.9986C148.05 78.8886 148.11 78.7886 148.18 78.6786C148.18 78.6586 148.94 77.4086 149.93 75.3186C150.9 73.2286 152.11 70.2886 152.97 66.9086C155.21 58.1986 154.37 50.7386 150.45 44.7086C149.65 43.4786 150.01 41.8286 151.23 41.0286C152.46 40.2286 154.11 40.5886 154.91 41.8086C159.62 49.0586 160.7 58.2586 158.06 68.3786C156.45 74.4886 153.98 79.1786 153.05 80.8286C154.78 81.6786 156.12 82.5186 156.96 83.1286C157.59 83.5986 158.16 84.1386 158.63 84.7786C159.24 85.6286 160.09 86.9586 160.91 88.6886C162.54 87.7586 167.25 85.2886 173.36 83.6786C183.51 81.0386 192.7 82.1386 199.93 86.8486C201.18 87.6486 201.52 89.2986 200.71 90.5286H200.74Z" fill="white"/>
<path d="M121.97 46.3045C121.53 46.9845 120.62 47.1745 119.92 46.7245C116.58 44.5445 112.39 44.0845 107.53 45.3545C103.81 46.3445 101.1 47.9945 101.08 47.9945C101.02 48.0345 100.95 48.0545 100.89 48.0745C101.33 49.7245 101.55 51.7145 101.27 53.9345C100.87 57.0645 99.3203 59.9645 96.8703 61.9445C95.2803 63.2145 93.1703 64.3345 90.5103 64.4645C87.0903 64.6345 84.1903 63.5745 82.2903 62.5845C82.4803 65.5645 80.6003 69.5845 77.1703 73.0045C73.6803 76.4945 69.5803 78.3745 66.6003 78.1245C67.2803 80.3845 67.7003 83.9845 66.1803 88.8245C65.0203 92.4845 62.6903 95.8245 60.3703 98.4445C56.7503 102.544 52.2303 105.714 47.7903 107.434C40.0503 110.394 35.5503 108.684 33.9403 107.794C33.5603 107.584 33.2403 107.264 33.0303 106.864C32.1403 105.274 30.4103 100.754 33.3903 93.0345C35.0803 88.5945 38.2703 84.0445 42.3803 80.4345C45.0003 78.1045 48.3203 75.7845 52.0003 74.6445C56.8403 73.1045 60.4403 73.5245 62.7003 74.2045C62.4503 71.2445 64.3303 67.1245 67.8203 63.6545C71.2503 60.2345 75.2803 58.3445 78.2403 58.5145C77.2303 56.6145 76.1903 53.7345 76.3403 50.2945C76.4903 47.6545 77.6103 45.5345 78.8803 43.9545C80.8503 41.5045 83.7403 39.9545 86.8703 39.5545C89.0903 39.2845 91.0803 39.4945 92.7303 39.9145C92.7503 39.8545 92.7703 39.7845 92.8103 39.7445C92.8103 39.7445 93.2503 39.0245 93.7803 37.8845C94.3303 36.7045 95.0103 35.0945 95.4703 33.2145C96.7203 28.3745 96.2503 24.2245 94.0703 20.8845C93.6303 20.2045 93.8203 19.2945 94.5103 18.8545C95.1903 18.4145 96.1003 18.6045 96.5403 19.2745C99.1603 23.3145 99.7703 28.4045 98.2903 34.0345C97.4203 37.3945 96.0503 39.9945 95.5203 40.9245C96.4703 41.4145 97.2103 41.8745 97.6803 42.2145C98.0403 42.4645 98.3603 42.7845 98.6103 43.1245C98.9503 43.5945 99.4103 44.3345 99.9003 45.3045C100.83 44.7745 103.41 43.4045 106.79 42.5345C112.41 41.0545 117.51 41.6645 121.53 44.2845C122.23 44.7245 122.42 45.6345 121.97 46.3145V46.3045Z" fill="white"/>
<path d="M223.28 147.614C222.84 148.294 221.93 148.504 221.23 148.054C217.89 145.854 213.72 145.394 208.84 146.684C205.12 147.654 202.41 149.304 202.39 149.324C202.35 149.364 202.28 149.384 202.22 149.404C202.64 151.054 202.85 153.024 202.58 155.264C202.18 158.394 200.64 161.294 198.18 163.254C196.59 164.524 194.48 165.644 191.84 165.774C188.39 165.944 185.54 164.904 183.62 163.894C183.79 166.854 181.91 170.894 178.48 174.314C175.01 177.784 170.91 179.684 167.93 179.434C168.61 181.694 169.03 185.294 167.49 190.134C166.33 193.814 164 197.134 161.7 199.754C158.08 203.854 153.54 207.044 149.1 208.744C141.38 211.704 136.86 209.994 135.25 209.104C134.87 208.894 134.55 208.574 134.34 208.194C133.45 206.584 131.74 202.064 134.7 194.344C136.41 189.904 139.58 185.384 143.69 181.744C146.31 179.444 149.65 177.114 153.31 175.954C158.15 174.434 161.75 174.854 164.01 175.534C163.76 172.554 165.64 168.454 169.13 164.964C172.55 161.544 176.59 159.654 179.55 159.824C178.54 157.924 177.5 155.044 177.67 151.624C177.8 148.964 178.92 146.844 180.19 145.264C182.18 142.814 185.05 141.264 188.18 140.864C190.42 140.594 192.39 140.804 194.04 141.244C194.06 141.184 194.08 141.114 194.12 141.054C194.12 141.054 194.56 140.334 195.09 139.194C195.64 138.014 196.32 136.404 196.78 134.524C198.03 129.684 197.56 125.534 195.41 122.224C194.97 121.524 195.16 120.614 195.83 120.174C196.5 119.734 197.42 119.924 197.86 120.614C200.48 124.634 201.09 129.724 199.61 135.354C198.72 138.754 197.35 141.384 196.84 142.264C197.79 142.734 198.53 143.194 199 143.534C199.36 143.784 199.68 144.104 199.93 144.464C200.27 144.934 200.73 145.644 201.22 146.624C202.15 146.094 204.75 144.724 208.11 143.854C213.73 142.374 218.83 142.984 222.87 145.604C223.55 146.044 223.74 146.954 223.29 147.634L223.28 147.614Z" fill="white"/>
<path d="M51.71 35.377C51.27 36.057 50.36 36.247 49.68 35.797C46.32 33.617 42.15 33.157 37.27 34.427C33.55 35.397 30.86 37.047 30.82 37.067C30.78 37.107 30.71 37.127 30.65 37.147C31.07 38.797 31.31 40.767 31.01 43.007C30.61 46.137 29.06 49.037 26.61 50.997C25.05 52.287 22.91 53.407 20.27 53.537C16.87 53.687 13.99 52.667 12.07 51.677C12.24 54.637 10.36 58.657 6.93 62.077C4.73 64.277 2.26 65.837 0 66.647V50.577C2.77 48.507 5.67 47.447 7.95 47.557H7.97C6.95 45.637 5.92 42.777 6.09 39.357C6.22 36.717 7.34 34.577 8.61 33.017C10.6 30.547 13.49 29.017 16.62 28.617C18.86 28.317 20.83 28.557 22.48 28.977C22.5 28.917 22.52 28.847 22.56 28.787C22.56 28.787 22.98 28.087 23.53 26.927C24.08 25.767 24.74 24.137 25.22 22.277C26.47 17.437 26 13.287 23.82 9.94699C23.38 9.26699 23.57 8.35699 24.24 7.91699C24.92 7.47699 25.85 7.66699 26.29 8.33699C28.91 12.357 29.5 17.447 28.04 23.097C27.15 26.457 25.78 29.057 25.25 29.987C26.2 30.427 26.94 30.917 27.43 31.257C27.79 31.527 28.09 31.827 28.34 32.187C28.68 32.657 29.16 33.397 29.63 34.347C30.56 33.837 33.16 32.467 36.52 31.577C42.14 30.117 47.26 30.707 51.28 33.327C51.96 33.767 52.15 34.677 51.7 35.377H51.71Z" fill="white"/>
<path d="M43.9998 149.79C43.5598 150.47 42.6498 150.66 41.9698 150.21C38.6098 148.03 34.4398 147.57 29.5598 148.86C25.8398 149.83 23.1498 151.48 23.1098 151.48C23.0498 151.52 22.9998 151.54 22.9398 151.56V151.58C23.3798 153.23 23.5998 155.22 23.2998 157.44C22.8998 160.57 21.3498 163.47 18.8998 165.43C17.3398 166.7 15.1998 167.84 12.5598 167.95C9.12977 168.12 6.25977 167.08 4.33977 166.07C4.48977 168.8 2.91977 172.43 0.00976562 175.67V161.97C0.0897656 161.97 0.179766 161.97 0.259766 161.99C0.179766 161.82 0.0897656 161.65 0.00976562 161.48V148.69C0.279766 148.22 0.579766 147.8 0.899766 147.42C2.88977 144.97 5.77977 143.42 8.90977 143.02C11.1298 142.75 13.0998 142.96 14.7698 143.4C14.7898 143.34 14.8098 143.27 14.8498 143.21C14.8698 143.19 15.2898 142.51 15.8198 141.33C16.3698 140.19 17.0198 138.54 17.5098 136.68C18.7598 131.84 18.2898 127.69 16.1098 124.38C15.6698 123.68 15.8598 122.77 16.5298 122.33C17.2098 121.89 18.1398 122.08 18.5798 122.77C21.1998 126.79 21.7898 131.88 20.3298 137.51C19.4198 140.91 18.0498 143.51 17.5198 144.42C18.4898 144.86 19.2498 145.35 19.7198 145.69C20.0798 145.94 20.3998 146.24 20.6498 146.62C20.9698 147.09 21.4498 147.8 21.8998 148.78C22.8098 148.27 25.4098 146.9 28.8098 146.01C34.4298 144.53 39.5498 145.14 43.5698 147.76C44.2498 148.2 44.4398 149.11 43.9898 149.79H43.9998Z" fill="white"/>
<path d="M120.63 227.399C120.19 228.079 119.26 228.289 118.58 227.839C115.24 225.639 111.05 225.179 106.19 226.469C102.47 227.439 99.76 229.089 99.74 229.109C99.68 229.149 99.61 229.169 99.55 229.189C99.97 230.839 100.21 232.809 99.91 235.049C99.53 238.179 97.99 241.079 95.53 243.039C95.11 243.379 94.66 243.699 94.18 243.989H81.6C81.37 243.879 81.18 243.779 80.97 243.669C80.99 243.779 80.99 243.859 80.99 243.989H67.25C70.46 241.049 74.12 239.419 76.87 239.569C75.88 237.669 74.84 234.789 74.99 231.389C75.14 228.729 76.24 226.609 77.53 225.029C79.5 222.579 82.39 221.029 85.52 220.629C87.76 220.359 89.73 220.569 91.38 221.009C91.4 220.949 91.42 220.879 91.46 220.819C91.48 220.819 91.9 220.099 92.43 218.959C92.98 217.779 93.63 216.169 94.12 214.289C95.37 209.449 94.9 205.299 92.72 201.989C92.28 201.289 92.47 200.379 93.16 199.939C93.84 199.499 94.75 199.689 95.19 200.379C97.81 204.399 98.42 209.489 96.94 215.119C96.07 218.479 94.68 221.079 94.17 222.009C95.12 222.479 95.84 222.959 96.35 223.299C96.69 223.549 97.01 223.869 97.26 224.229C97.58 224.699 98.06 225.409 98.51 226.389C99.4 225.879 102.02 224.509 105.44 223.619C111.06 222.139 116.16 222.749 120.18 225.369C120.86 225.809 121.07 226.719 120.62 227.399H120.63Z" fill="white"/>
<path d="M236.15 219.283C235.71 219.963 234.8 220.153 234.12 219.703C230.76 217.523 226.59 217.063 221.73 218.333C217.99 219.303 215.3 220.953 215.28 220.973C215.22 221.013 215.15 221.033 215.09 221.053C215.51 222.703 215.75 224.673 215.45 226.913C215.05 230.043 213.53 232.943 211.05 234.923C209.49 236.193 207.35 237.313 204.71 237.443C201.29 237.613 198.43 236.573 196.51 235.563C196.64 237.973 195.41 241.083 193.13 244.003H177.27C177.99 241.633 179.64 238.973 181.98 236.623C185.41 233.203 189.42 231.313 192.38 231.463C191.39 229.543 190.37 226.663 190.52 223.263C190.65 220.623 191.79 218.503 193.06 216.923C195.03 214.473 197.92 212.923 201.05 212.523C203.29 212.223 205.26 212.463 206.91 212.883C206.93 212.823 206.95 212.753 206.99 212.713C206.99 212.693 207.41 211.993 207.96 210.833C208.51 209.673 209.17 208.063 209.65 206.183C210.9 201.343 210.43 197.193 208.25 193.853C207.81 193.173 208 192.263 208.67 191.823C209.37 191.383 210.28 191.573 210.72 192.243C213.34 196.263 213.93 201.373 212.47 207.003C211.58 210.363 210.21 212.963 209.7 213.893C210.65 214.363 211.39 214.843 211.86 215.183C212.22 215.433 212.52 215.733 212.79 216.093C213.13 216.563 213.61 217.323 214.06 218.273C214.99 217.743 217.59 216.373 220.95 215.483C226.59 214.023 231.69 214.633 235.71 217.233C236.39 217.673 236.58 218.603 236.13 219.283H236.15Z" fill="white"/>
<path d="M305.76 121.12V21H327.22V60.33H341.52L368.7 21H393.02L360.12 68.92L395.16 121.13H370.13L342.24 80.37H327.22V121.13H305.76V121.12Z" fill="#EE7C4D"/>
<path d="M390.15 48.1819H410.89L425.19 103.962H430.91L446.64 48.1819H467.38L438.06 148.302H417.32L425.19 121.122H409.46L390.15 48.1719V48.1819Z" fill="#EE7C4D"/>
<path d="M475.26 148.299V48.1791H495.29V57.4791H496C497.53 55.4791 499.38 53.5691 501.58 51.7591C506.73 47.9491 512.5 46.0391 518.89 46.0391C528.42 46.0391 536.41 49.5891 542.85 56.6991C549.29 63.7991 552.5 73.1291 552.5 84.6591C552.5 96.1891 549.28 105.519 542.85 112.619C536.41 119.719 528.42 123.279 518.89 123.279C512.5 123.279 506.73 121.369 501.58 117.559C499.38 115.749 497.53 113.839 496 111.839H495.29V148.309H475.26V148.299ZM500.43 68.8391C497 72.6091 495.28 77.8791 495.28 84.6491C495.28 91.4191 497 96.6891 500.43 100.449C503.86 104.219 508.34 106.099 513.88 106.099C519.12 106.099 523.41 104.189 526.75 100.379C530.09 96.5691 531.76 91.3191 531.76 84.6491C531.76 77.9791 530.09 72.7291 526.75 68.9191C523.41 65.1091 519.12 63.1991 513.88 63.1991C508.35 63.1991 503.87 65.0791 500.43 68.8491V68.8391Z" fill="#EE7C4D"/>
<path d="M571.729 112.041C564.149 104.561 560.359 95.4313 560.359 84.6513C560.359 73.8713 564.149 64.7512 571.729 57.2612C579.309 49.7812 588.629 46.0312 599.689 46.0312C612.939 46.0312 623.049 50.8013 630.009 60.3313C633.159 64.4313 635.449 69.2012 636.879 74.6312H616.139C615.279 72.5312 614.139 70.6313 612.709 68.9113C609.079 65.1013 604.749 63.1912 599.689 63.1912C594.629 63.1912 590.269 65.1912 586.599 69.2012C582.929 73.2012 581.089 78.3513 581.089 84.6513C581.089 90.9513 582.919 96.0912 586.599 100.101C590.269 104.101 594.629 106.111 599.689 106.111C604.749 106.111 609.079 104.201 612.709 100.391C614.139 98.6712 615.279 96.7712 616.139 94.6712H636.879C635.539 100.201 633.349 104.971 630.299 108.971C623.339 118.511 613.139 123.271 599.689 123.271C588.629 123.271 579.309 119.531 571.729 112.041Z" fill="#EE7C4D"/>
<path d="M641.18 121.12L667.64 21H712.69L739.15 121.12H716.98L711.26 98.95H669.06L663.34 121.12H641.17H641.18ZM674.07 78.93H706.25L696.24 41.03H684.08L674.07 78.93Z" fill="#EE7C4D"/>
<path d="M747.73 121.121V48.1813H767.76V58.1912H768.47C769.71 56.0012 771.47 53.9913 773.76 52.1813C779 48.0813 784.87 46.0312 791.35 46.0312C800.41 46.0312 807.44 48.6513 812.451 53.9013C817.461 59.1513 819.961 66.7713 819.961 76.7913V121.131H799.94V79.6513C799.94 74.3113 798.63 70.2312 796.01 67.4212C793.39 64.6112 789.69 63.2013 784.93 63.2013C780.17 63.2013 776.111 65.0112 772.771 68.6413C769.431 72.2612 767.76 76.8913 767.76 82.5113V121.131H747.73V121.121Z" fill="#EE7C4D"/>
<path d="M829.26 65.3431V48.1831H838.56V32.4531H858.59V48.1831H879.19V65.3431H858.59V103.963H880.05V121.123H838.57V65.3431H829.27H829.26Z" fill="#EE7C4D"/>
<path d="M304.02 198.128C304.02 189.128 307.13 181.528 313.34 175.308C319.56 169.038 327.16 165.898 336.16 165.898C345.16 165.898 352.77 169.038 358.98 175.308C365.25 181.528 368.39 189.128 368.39 198.128C368.39 207.128 365.25 214.678 358.98 220.948C352.77 227.228 345.16 230.358 336.16 230.358C327.16 230.358 319.56 227.218 313.34 220.948C307.13 214.678 304.02 207.068 304.02 198.128ZM360.14 198.178C360.14 191.298 357.84 185.548 353.23 180.918C348.74 176.238 343.07 173.888 336.21 173.888C329.35 173.888 323.71 176.228 319.1 180.918C314.55 185.608 312.27 191.358 312.27 198.178C312.27 204.998 314.54 210.688 319.1 215.438C323.71 220.058 329.41 222.378 336.21 222.378C343.01 222.378 348.68 220.068 353.23 215.438C357.84 210.758 360.14 204.998 360.14 198.178Z" fill="#EE7C4D"/>
<path d="M401.77 183.664C404.37 183.664 406.73 184.094 408.83 184.954C410.93 185.814 412.74 187.024 414.25 188.594C415.76 190.164 416.93 192.074 417.76 194.324C418.59 196.574 419 199.124 419 201.964V229.224H411.27V202.474C411.27 198.874 410.29 196.084 408.34 194.104C406.39 192.124 403.69 191.134 400.26 191.134C396.41 191.134 393.3 192.334 390.94 194.724C388.57 197.114 387.39 200.794 387.39 205.754V229.234H379.67V184.834H387.39V191.224C390.47 186.194 395.26 183.674 401.78 183.674L401.77 183.664Z" fill="#EE7C4D"/>
<path d="M431.85 229.211V164.391H439.57V229.211H431.85Z" fill="#EE7C4D"/>
<path d="M457.41 176.742C455.93 176.742 454.69 176.242 453.68 175.232C452.67 174.222 452.17 173.012 452.17 171.592C452.17 170.172 452.67 168.942 453.68 167.902C454.69 166.862 455.93 166.352 457.41 166.352C458.89 166.352 460.04 166.872 461.05 167.902C462.06 168.942 462.56 170.162 462.56 171.592C462.56 173.022 462.06 174.222 461.05 175.232C460.04 176.242 458.83 176.742 457.41 176.742ZM453.5 229.212V184.812H461.22V229.212H453.5Z" fill="#EE7C4D"/>
<path d="M497.26 183.664C499.86 183.664 502.22 184.094 504.32 184.954C506.42 185.814 508.23 187.024 509.74 188.594C511.25 190.164 512.42 192.074 513.25 194.324C514.08 196.574 514.49 199.124 514.49 201.964V229.224H506.76V202.474C506.76 198.874 505.78 196.084 503.83 194.104C501.88 192.124 499.18 191.134 495.75 191.134C491.9 191.134 488.79 192.334 486.43 194.724C484.06 197.114 482.88 200.794 482.88 205.754V229.234H475.16V184.834H482.88V191.224C485.96 186.194 490.75 183.674 497.27 183.674L497.26 183.664Z" fill="#EE7C4D"/>
<path d="M530.65 210.574C531.42 214.544 533.22 217.624 536.07 219.804C538.91 221.994 542.46 223.084 546.72 223.084C552.58 223.084 556.84 220.924 559.51 216.604L566.08 220.334C561.7 227.024 555.19 230.364 546.54 230.364C539.56 230.364 533.81 228.174 529.32 223.794C524.94 219.294 522.75 213.704 522.75 207.014C522.75 200.324 524.91 194.704 529.23 190.324C533.55 185.884 539.14 183.664 546.01 183.664C552.52 183.664 557.82 185.974 561.91 190.594C566.05 195.094 568.12 200.594 568.12 207.114C568.12 208.304 568.03 209.454 567.85 210.574H530.65ZM546.01 190.944C541.87 190.944 538.43 192.114 535.71 194.454C532.99 196.794 531.3 199.914 530.65 203.824H560.31C559.66 199.564 558 196.354 555.34 194.194C552.68 192.034 549.57 190.954 546.02 190.954L546.01 190.944Z" fill="#EE7C4D"/>
</g>
<defs>
<clipPath id="clip0_4282_677">
<rect width="880.04" height="244" fill="white"/>
</clipPath>
</defs>
</svg>
