<svg width="1036" height="369" viewBox="0 0 1036 369" fill="none" xmlns="http://www.w3.org/2000/svg">
<path d="M980 313V173H618C602.536 173 590 160.464 590 145V56H56V196H418C433.464 196 446 208.536 446 224V313H980Z" fill="#F1F1F1" stroke="#D0D1D3"/>
<g filter="url(#filter0_d_4282_955)">
<rect x="76" y="76" width="494" height="100" rx="20" fill="white"/>
</g>
<g filter="url(#filter1_d_4282_955)">
<rect x="466" y="193" width="494" height="100" rx="20" fill="white"/>
</g>
<path d="M117.148 140L129.899 111.136H133.056L145.807 140H142.281L138.796 132.251H124.036L120.633 140H117.148ZM125.184 129.299H137.73L131.457 115.318L125.184 129.299ZM147.852 145.781V137.171H150.353C151.556 135.558 152.403 133.44 152.895 130.816C153.415 128.192 153.674 124.625 153.674 120.115H168.639V137.171H172.288V145.781H169.172V140H150.968V145.781H147.852ZM153.92 137.171H165.4V122.944H156.667C156.667 129.395 155.752 134.137 153.92 137.171ZM183.824 137.581C185.218 137.581 186.503 137.28 187.678 136.679C188.881 136.078 189.824 135.34 190.507 134.465V131.759C188.649 130.529 186.571 129.914 184.275 129.914C182.526 129.914 181.146 130.256 180.134 130.939C179.15 131.595 178.658 132.524 178.658 133.727C178.658 135.012 179.15 135.982 180.134 136.638C181.118 137.267 182.348 137.581 183.824 137.581ZM182.922 140.492C180.818 140.492 179.027 139.904 177.551 138.729C176.103 137.554 175.378 135.941 175.378 133.891C175.378 131.841 176.144 130.242 177.674 129.094C179.232 127.919 181.173 127.331 183.496 127.331C186.202 127.331 188.539 127.946 190.507 129.176V127.372C190.507 124.147 188.375 122.534 184.111 122.534C181.788 122.534 179.629 123.19 177.633 124.502V121.427C179.629 120.224 182.02 119.623 184.808 119.623C187.487 119.623 189.646 120.252 191.286 121.509C192.926 122.766 193.746 124.611 193.746 127.044V134.875C193.746 136.597 194.361 137.458 195.591 137.458C196.083 137.458 196.466 137.362 196.739 137.171V139.713C196.247 140.041 195.55 140.205 194.648 140.205C192.544 140.205 191.273 139.166 190.835 137.089C188.813 139.358 186.175 140.492 182.922 140.492ZM201.443 140V120.115H204.641L212.349 129.135L220.098 120.115H223.255V140H220.098V124.584L212.964 132.907H211.693L204.6 124.584V140H201.443ZM236.548 140.492C233.623 140.492 231.163 140.041 229.168 139.139V135.982C231.218 137.048 233.528 137.581 236.097 137.581C240.334 137.581 242.452 136.419 242.452 134.096C242.452 132.019 240.73 130.98 237.286 130.98H233.76V128.192H237.286C238.817 128.192 239.937 127.946 240.648 127.454C241.386 126.935 241.755 126.265 241.755 125.445C241.755 123.504 239.937 122.534 236.302 122.534C234.088 122.534 231.915 122.985 229.783 123.887V120.935C231.778 120.06 234.17 119.623 236.958 119.623C239.227 119.623 241.14 120.115 242.698 121.099C244.256 122.056 245.035 123.313 245.035 124.871C245.035 126.156 244.748 127.112 244.174 127.741C243.6 128.37 242.835 128.903 241.878 129.34C244.529 130.16 245.855 131.827 245.855 134.342C245.855 136.173 245.008 137.663 243.313 138.811C241.618 139.932 239.363 140.492 236.548 140.492ZM258.417 137.581C259.811 137.581 261.096 137.28 262.271 136.679C263.474 136.078 264.417 135.34 265.1 134.465V131.759C263.241 130.529 261.164 129.914 258.868 129.914C257.119 129.914 255.738 130.256 254.727 130.939C253.743 131.595 253.251 132.524 253.251 133.727C253.251 135.012 253.743 135.982 254.727 136.638C255.711 137.267 256.941 137.581 258.417 137.581ZM257.515 140.492C255.41 140.492 253.62 139.904 252.144 138.729C250.695 137.554 249.971 135.941 249.971 133.891C249.971 131.841 250.736 130.242 252.267 129.094C253.825 127.919 255.766 127.331 258.089 127.331C260.795 127.331 263.132 127.946 265.1 129.176V127.372C265.1 124.147 262.968 122.534 258.704 122.534C256.381 122.534 254.221 123.19 252.226 124.502V121.427C254.221 120.224 256.613 119.623 259.401 119.623C262.08 119.623 264.239 120.252 265.879 121.509C267.519 122.766 268.339 124.611 268.339 127.044V134.875C268.339 136.597 268.954 137.458 270.184 137.458C270.676 137.458 271.059 137.362 271.332 137.171V139.713C270.84 140.041 270.143 140.205 269.241 140.205C267.136 140.205 265.865 139.166 265.428 137.089C263.405 139.358 260.768 140.492 257.515 140.492ZM280.27 140V122.944H273.177V120.115H290.602V122.944H283.509V140H280.27ZM308.626 140L298.294 130.365V140H295.014V120.115H298.294V128.192L307.396 120.115H311.742L301.492 129.094L310.184 137.171H313.218V145.781H310.102V140H308.626ZM324.201 137.581C325.595 137.581 326.88 137.28 328.055 136.679C329.258 136.078 330.201 135.34 330.884 134.465V131.759C329.026 130.529 326.948 129.914 324.652 129.914C322.903 129.914 321.523 130.256 320.511 130.939C319.527 131.595 319.035 132.524 319.035 133.727C319.035 135.012 319.527 135.982 320.511 136.638C321.495 137.267 322.725 137.581 324.201 137.581ZM323.299 140.492C321.195 140.492 319.404 139.904 317.928 138.729C316.48 137.554 315.755 135.941 315.755 133.891C315.755 131.841 316.521 130.242 318.051 129.094C319.609 127.919 321.55 127.331 323.873 127.331C326.579 127.331 328.916 127.946 330.884 129.176V127.372C330.884 124.147 328.752 122.534 324.488 122.534C322.165 122.534 320.006 123.19 318.01 124.502V121.427C320.006 120.224 322.397 119.623 325.185 119.623C327.864 119.623 330.023 120.252 331.663 121.509C333.303 122.766 334.123 124.611 334.123 127.044V134.875C334.123 136.597 334.738 137.458 335.968 137.458C336.46 137.458 336.843 137.362 337.116 137.171V139.713C336.624 140.041 335.927 140.205 335.025 140.205C332.921 140.205 331.65 139.166 331.212 137.089C329.19 139.358 326.552 140.492 323.299 140.492ZM352.591 140V120.115H370.59V140H367.351V122.944H355.871V140H352.591ZM384.22 137.581C385.614 137.581 386.898 137.28 388.074 136.679C389.276 136.078 390.219 135.34 390.903 134.465V131.759C389.044 130.529 386.967 129.914 384.671 129.914C382.921 129.914 381.541 130.256 380.53 130.939C379.546 131.595 379.054 132.524 379.054 133.727C379.054 135.012 379.546 135.982 380.53 136.638C381.514 137.267 382.744 137.581 384.22 137.581ZM383.318 140.492C381.213 140.492 379.423 139.904 377.947 138.729C376.498 137.554 375.774 135.941 375.774 133.891C375.774 131.841 376.539 130.242 378.07 129.094C379.628 127.919 381.568 127.331 383.892 127.331C386.598 127.331 388.935 127.946 390.903 129.176V127.372C390.903 124.147 388.771 122.534 384.507 122.534C382.183 122.534 380.024 123.19 378.029 124.502V121.427C380.024 120.224 382.416 119.623 385.204 119.623C387.882 119.623 390.042 120.252 391.682 121.509C393.322 122.766 394.142 124.611 394.142 127.044V134.875C394.142 136.597 394.757 137.458 395.987 137.458C396.479 137.458 396.861 137.362 397.135 137.171V139.713C396.643 140.041 395.946 140.205 395.044 140.205C392.939 140.205 391.668 139.166 391.231 137.089C389.208 139.358 386.57 140.492 383.318 140.492ZM401.839 140V120.115H405.119V135.244L417.419 120.115H420.453V140H417.173V124.912L404.873 140H401.839ZM411.146 116.917C409.15 116.917 407.524 116.343 406.267 115.195C405.009 114.047 404.381 112.503 404.381 110.562H407.21C407.21 111.71 407.551 112.626 408.235 113.309C408.945 113.992 409.902 114.334 411.105 114.334C412.307 114.334 413.25 113.992 413.934 113.309C414.644 112.626 415.013 111.71 415.041 110.562H417.87C417.87 112.475 417.227 114.02 415.943 115.195C414.685 116.343 413.086 116.917 411.146 116.917ZM424.802 145.781V137.171H427.303C428.506 135.558 429.353 133.44 429.845 130.816C430.365 128.192 430.624 124.625 430.624 120.115H445.589V137.171H449.238V145.781H446.122V140H427.918V145.781H424.802ZM430.87 137.171H442.35V122.944H433.617C433.617 129.395 432.702 134.137 430.87 137.171ZM460.774 137.581C462.168 137.581 463.453 137.28 464.628 136.679C465.831 136.078 466.774 135.34 467.457 134.465V131.759C465.599 130.529 463.521 129.914 461.225 129.914C459.476 129.914 458.096 130.256 457.084 130.939C456.1 131.595 455.608 132.524 455.608 133.727C455.608 135.012 456.1 135.982 457.084 136.638C458.068 137.267 459.298 137.581 460.774 137.581ZM459.872 140.492C457.768 140.492 455.977 139.904 454.501 138.729C453.053 137.554 452.328 135.941 452.328 133.891C452.328 131.841 453.094 130.242 454.624 129.094C456.182 127.919 458.123 127.331 460.446 127.331C463.152 127.331 465.489 127.946 467.457 129.176V127.372C467.457 124.147 465.325 122.534 461.061 122.534C458.738 122.534 456.579 123.19 454.583 124.502V121.427C456.579 120.224 458.97 119.623 461.758 119.623C464.437 119.623 466.596 120.252 468.236 121.509C469.876 122.766 470.696 124.611 470.696 127.044V134.875C470.696 136.597 471.311 137.458 472.541 137.458C473.033 137.458 473.416 137.362 473.689 137.171V139.713C473.197 140.041 472.5 140.205 471.598 140.205C469.494 140.205 468.223 139.166 467.785 137.089C465.763 139.358 463.125 140.492 459.872 140.492ZM475.851 140V137.048C475.988 137.103 476.261 137.13 476.671 137.13C477.491 137.13 478.188 136.87 478.762 136.351C479.364 135.804 479.815 135.025 480.115 134.014C480.416 133.003 480.635 131.909 480.771 130.734C480.935 129.531 481.031 128.124 481.058 126.511L481.222 120.115H496.31V140H493.071V122.944H484.338L484.215 126.593C484.188 127.823 484.133 128.889 484.051 129.791C483.969 130.693 483.833 131.718 483.641 132.866C483.477 133.987 483.218 134.943 482.862 135.736C482.534 136.501 482.111 137.239 481.591 137.95C481.072 138.633 480.402 139.153 479.582 139.508C478.79 139.863 477.874 140.041 476.835 140.041C476.398 140.041 476.07 140.027 475.851 140ZM522.94 140V120.115H526.179V140H522.94ZM503.137 140V120.115H506.417V126.634H512.116C514.494 126.634 516.353 127.235 517.692 128.438C519.059 129.641 519.742 131.267 519.742 133.317C519.742 135.285 519.086 136.898 517.774 138.155C516.462 139.385 514.617 140 512.239 140H503.137ZM506.417 137.171H511.665C513.196 137.171 514.371 136.843 515.191 136.187C516.039 135.531 516.462 134.588 516.462 133.358C516.462 130.761 514.863 129.463 511.665 129.463H506.417V137.171Z" fill="black"/>
<path d="M515.118 253V235.944H508.025V233.115H525.45V235.944H518.357V253H515.118ZM530.436 254.394V251.934H535.725L527.525 233.115H531.174L538.185 249.638L545.196 233.115H548.681L540.481 251.934H545.852V254.394H539.743V261.2H536.463V254.394H530.436ZM550.342 253V250.048C550.479 250.103 550.752 250.13 551.162 250.13C551.982 250.13 552.679 249.87 553.253 249.351C553.855 248.804 554.306 248.025 554.606 247.014C554.907 246.003 555.126 244.909 555.262 243.734C555.426 242.531 555.522 241.124 555.549 239.511L555.713 233.115H570.801V253H567.562V235.944H558.829L558.706 239.593C558.679 240.823 558.624 241.889 558.542 242.791C558.46 243.693 558.324 244.718 558.132 245.866C557.968 246.987 557.709 247.943 557.353 248.736C557.025 249.501 556.602 250.239 556.082 250.95C555.563 251.633 554.893 252.153 554.073 252.508C553.281 252.863 552.365 253.041 551.326 253.041C550.889 253.041 550.561 253.027 550.342 253ZM575.046 244.8V242.34H578.613V233.115H593.66V235.944H581.893V242.34H589.765V244.8H581.893V253H578.613V244.8H575.046ZM605.374 250.581C606.768 250.581 608.053 250.28 609.228 249.679C610.431 249.078 611.374 248.34 612.057 247.465V244.759C610.198 243.529 608.121 242.914 605.825 242.914C604.076 242.914 602.695 243.256 601.684 243.939C600.7 244.595 600.208 245.524 600.208 246.727C600.208 248.012 600.7 248.982 601.684 249.638C602.668 250.267 603.898 250.581 605.374 250.581ZM604.472 253.492C602.367 253.492 600.577 252.904 599.101 251.729C597.652 250.554 596.928 248.941 596.928 246.891C596.928 244.841 597.693 243.242 599.224 242.094C600.782 240.919 602.723 240.331 605.046 240.331C607.752 240.331 610.089 240.946 612.057 242.176V240.372C612.057 237.147 609.925 235.534 605.661 235.534C603.338 235.534 601.178 236.19 599.183 237.502V234.427C601.178 233.224 603.57 232.623 606.358 232.623C609.037 232.623 611.196 233.252 612.836 234.509C614.476 235.766 615.296 237.611 615.296 240.044V247.875C615.296 249.597 615.911 250.458 617.141 250.458C617.633 250.458 618.016 250.362 618.289 250.171V252.713C617.797 253.041 617.1 253.205 616.198 253.205C614.093 253.205 612.822 252.166 612.385 250.089C610.362 252.358 607.725 253.492 604.472 253.492ZM647.375 253L637.043 243.365V253H633.763V233.115H637.043V241.192L646.145 233.115H650.491L640.241 242.094L648.933 250.171H651.967V258.781H648.851V253H647.375ZM662.95 250.581C664.344 250.581 665.629 250.28 666.804 249.679C668.007 249.078 668.95 248.34 669.633 247.465V244.759C667.775 243.529 665.697 242.914 663.401 242.914C661.652 242.914 660.272 243.256 659.26 243.939C658.276 244.595 657.784 245.524 657.784 246.727C657.784 248.012 658.276 248.982 659.26 249.638C660.244 250.267 661.474 250.581 662.95 250.581ZM662.048 253.492C659.944 253.492 658.153 252.904 656.677 251.729C655.229 250.554 654.504 248.941 654.504 246.891C654.504 244.841 655.27 243.242 656.8 242.094C658.358 240.919 660.299 240.331 662.622 240.331C665.328 240.331 667.665 240.946 669.633 242.176V240.372C669.633 237.147 667.501 235.534 663.237 235.534C660.914 235.534 658.755 236.19 656.759 237.502V234.427C658.755 233.224 661.146 232.623 663.934 232.623C666.613 232.623 668.772 233.252 670.412 234.509C672.052 235.766 672.872 237.611 672.872 240.044V247.875C672.872 249.597 673.487 250.458 674.717 250.458C675.209 250.458 675.592 250.362 675.865 250.171V252.713C675.373 253.041 674.676 253.205 673.774 253.205C671.67 253.205 670.399 252.166 669.961 250.089C667.939 252.358 665.301 253.492 662.048 253.492ZM678.027 253V250.048C678.164 250.103 678.437 250.13 678.847 250.13C679.667 250.13 680.364 249.87 680.938 249.351C681.539 248.804 681.99 248.025 682.291 247.014C682.592 246.003 682.81 244.909 682.947 243.734C683.111 242.531 683.207 241.124 683.234 239.511L683.398 233.115H698.486V253H695.247V235.944H686.514L686.391 239.593C686.364 240.823 686.309 241.889 686.227 242.791C686.145 243.693 686.008 244.718 685.817 245.866C685.653 246.987 685.393 247.943 685.038 248.736C684.71 249.501 684.286 250.239 683.767 250.95C683.248 251.633 682.578 252.153 681.758 252.508C680.965 252.863 680.05 253.041 679.011 253.041C678.574 253.041 678.246 253.027 678.027 253ZM725.116 253V233.115H728.355V253H725.116ZM705.313 253V233.115H708.593V239.634H714.292C716.67 239.634 718.529 240.235 719.868 241.438C721.235 242.641 721.918 244.267 721.918 246.317C721.918 248.285 721.262 249.898 719.95 251.155C718.638 252.385 716.793 253 714.415 253H705.313ZM708.593 250.171H713.841C715.372 250.171 716.547 249.843 717.367 249.187C718.214 248.531 718.638 247.588 718.638 246.358C718.638 243.761 717.039 242.463 713.841 242.463H708.593V250.171ZM735.182 253V233.115H753.181V253H749.942V235.944H738.462V253H735.182ZM764.762 253V235.944H757.669V233.115H775.094V235.944H768.001V253H764.762ZM786.271 250.581C787.665 250.581 788.949 250.28 790.125 249.679C791.327 249.078 792.27 248.34 792.954 247.465V244.759C791.095 243.529 789.018 242.914 786.722 242.914C784.972 242.914 783.592 243.256 782.581 243.939C781.597 244.595 781.105 245.524 781.105 246.727C781.105 248.012 781.597 248.982 782.581 249.638C783.565 250.267 784.795 250.581 786.271 250.581ZM785.369 253.492C783.264 253.492 781.474 252.904 779.998 251.729C778.549 250.554 777.825 248.941 777.825 246.891C777.825 244.841 778.59 243.242 780.121 242.094C781.679 240.919 783.619 240.331 785.943 240.331C788.649 240.331 790.986 240.946 792.954 242.176V240.372C792.954 237.147 790.822 235.534 786.558 235.534C784.234 235.534 782.075 236.19 780.08 237.502V234.427C782.075 233.224 784.467 232.623 787.255 232.623C789.933 232.623 792.093 233.252 793.733 234.509C795.373 235.766 796.193 237.611 796.193 240.044V247.875C796.193 249.597 796.808 250.458 798.038 250.458C798.53 250.458 798.912 250.362 799.186 250.171V252.713C798.694 253.041 797.997 253.205 797.095 253.205C794.99 253.205 793.719 252.166 793.282 250.089C791.259 252.358 788.621 253.492 785.369 253.492ZM813.073 253.492C810.067 253.492 807.538 252.494 805.488 250.499C803.466 248.504 802.454 246.016 802.454 243.037C802.454 240.03 803.466 237.543 805.488 235.575C807.538 233.607 810.08 232.623 813.114 232.623C815.41 232.623 817.406 233.101 819.1 234.058V237.01C817.351 236.026 815.506 235.534 813.565 235.534C811.379 235.534 809.534 236.245 808.03 237.666C806.527 239.087 805.775 240.891 805.775 243.078C805.775 245.237 806.527 247.028 808.03 248.449C809.534 249.87 811.379 250.581 813.565 250.581C815.807 250.581 817.775 250.021 819.469 248.9V251.811C817.611 252.932 815.479 253.492 813.073 253.492ZM829.785 253V235.944H822.692V233.115H840.117V235.944H833.024V253H829.785ZM864.332 253V233.115H867.571V253H864.332ZM844.529 253V233.115H847.809V239.634H853.508C855.886 239.634 857.745 240.235 859.084 241.438C860.451 242.641 861.134 244.267 861.134 246.317C861.134 248.285 860.478 249.898 859.166 251.155C857.854 252.385 856.009 253 853.631 253H844.529ZM847.809 250.171H853.057C854.588 250.171 855.763 249.843 856.583 249.187C857.43 248.531 857.854 247.588 857.854 246.358C857.854 243.761 856.255 242.463 853.057 242.463H847.809V250.171ZM877.678 261.2H874.398V233.115H877.678V236.19C879.509 233.812 882.024 232.623 885.222 232.623C888.119 232.623 890.497 233.648 892.356 235.698C894.215 237.721 895.144 240.167 895.144 243.037C895.144 245.934 894.215 248.408 892.356 250.458C890.497 252.481 888.119 253.492 885.222 253.492C881.969 253.492 879.455 252.303 877.678 249.925V261.2ZM877.678 239.839V246.317C878.252 247.574 879.14 248.599 880.343 249.392C881.546 250.185 882.912 250.581 884.443 250.581C886.575 250.581 888.338 249.857 889.732 248.408C891.126 246.959 891.823 245.169 891.823 243.037C891.823 240.905 891.126 239.128 889.732 237.707C888.338 236.258 886.575 235.534 884.443 235.534C882.994 235.534 881.641 235.944 880.384 236.764C879.154 237.584 878.252 238.609 877.678 239.839ZM901.255 261.364C899.697 261.364 898.617 261.173 898.016 260.79V257.797C898.809 258.234 899.724 258.453 900.763 258.453C901.993 258.453 903.018 257.961 903.838 256.977C904.685 256.02 905.56 254.449 906.462 252.262L897.647 233.115H901.255L908.102 248.449L914.703 233.115H918.229L908.471 255.214C907.542 257.264 906.503 258.795 905.355 259.806C904.234 260.845 902.868 261.364 901.255 261.364Z" fill="black"/>
<path d="M980 312V368" stroke="url(#paint0_linear_4282_955)"/>
<path d="M446 295V351" stroke="url(#paint1_linear_4282_955)"/>
<path d="M980 118V174" stroke="url(#paint2_linear_4282_955)"/>
<path d="M979 173H1035" stroke="url(#paint3_linear_4282_955)"/>
<path d="M392 313H448" stroke="url(#paint4_linear_4282_955)"/>
<path d="M3 196H59" stroke="url(#paint5_linear_4282_955)"/>
<path d="M1 56H57" stroke="url(#paint6_linear_4282_955)"/>
<path d="M589 56H645" stroke="url(#paint7_linear_4282_955)"/>
<path d="M979 313H1035" stroke="url(#paint8_linear_4282_955)"/>
<path d="M56 194V250" stroke="url(#paint9_linear_4282_955)"/>
<path d="M56 1V57" stroke="url(#paint10_linear_4282_955)"/>
<path d="M590 1V57" stroke="url(#paint11_linear_4282_955)"/>
<defs>
<filter id="filter0_d_4282_955" x="59" y="59" width="528" height="134" filterUnits="userSpaceOnUse" color-interpolation-filters="sRGB">
<feFlood flood-opacity="0" result="BackgroundImageFix"/>
<feColorMatrix in="SourceAlpha" type="matrix" values="0 0 0 0 0 0 0 0 0 0 0 0 0 0 0 0 0 0 127 0" result="hardAlpha"/>
<feOffset/>
<feGaussianBlur stdDeviation="8.5"/>
<feComposite in2="hardAlpha" operator="out"/>
<feColorMatrix type="matrix" values="0 0 0 0 0 0 0 0 0 0 0 0 0 0 0 0 0 0 0.13 0"/>
<feBlend mode="normal" in2="BackgroundImageFix" result="effect1_dropShadow_4282_955"/>
<feBlend mode="normal" in="SourceGraphic" in2="effect1_dropShadow_4282_955" result="shape"/>
</filter>
<filter id="filter1_d_4282_955" x="449" y="176" width="528" height="134" filterUnits="userSpaceOnUse" color-interpolation-filters="sRGB">
<feFlood flood-opacity="0" result="BackgroundImageFix"/>
<feColorMatrix in="SourceAlpha" type="matrix" values="0 0 0 0 0 0 0 0 0 0 0 0 0 0 0 0 0 0 127 0" result="hardAlpha"/>
<feOffset/>
<feGaussianBlur stdDeviation="8.5"/>
<feComposite in2="hardAlpha" operator="out"/>
<feColorMatrix type="matrix" values="0 0 0 0 0 0 0 0 0 0 0 0 0 0 0 0 0 0 0.13 0"/>
<feBlend mode="normal" in2="BackgroundImageFix" result="effect1_dropShadow_4282_955"/>
<feBlend mode="normal" in="SourceGraphic" in2="effect1_dropShadow_4282_955" result="shape"/>
</filter>
<linearGradient id="paint0_linear_4282_955" x1="980.5" y1="312" x2="980.5" y2="368" gradientUnits="userSpaceOnUse">
<stop stop-color="#D0D1D3"/>
<stop offset="1" stop-color="white"/>
</linearGradient>
<linearGradient id="paint1_linear_4282_955" x1="446.5" y1="295" x2="446.5" y2="351" gradientUnits="userSpaceOnUse">
<stop stop-color="#D0D1D3"/>
<stop offset="1" stop-color="white"/>
</linearGradient>
<linearGradient id="paint2_linear_4282_955" x1="980.5" y1="118" x2="980.5" y2="174" gradientUnits="userSpaceOnUse">
<stop stop-color="white"/>
<stop offset="1" stop-color="#D0D1D3"/>
</linearGradient>
<linearGradient id="paint3_linear_4282_955" x1="979" y1="172.5" x2="1035" y2="172.5" gradientUnits="userSpaceOnUse">
<stop stop-color="#D0D1D3"/>
<stop offset="1" stop-color="white"/>
</linearGradient>
<linearGradient id="paint4_linear_4282_955" x1="392" y1="312.5" x2="448" y2="312.5" gradientUnits="userSpaceOnUse">
<stop stop-color="white"/>
<stop offset="1" stop-color="#D0D1D3"/>
</linearGradient>
<linearGradient id="paint5_linear_4282_955" x1="3" y1="195.5" x2="59" y2="195.5" gradientUnits="userSpaceOnUse">
<stop stop-color="white"/>
<stop offset="1" stop-color="#D0D1D3"/>
</linearGradient>
<linearGradient id="paint6_linear_4282_955" x1="1" y1="55.5" x2="57" y2="55.5" gradientUnits="userSpaceOnUse">
<stop stop-color="white"/>
<stop offset="1" stop-color="#D0D1D3"/>
</linearGradient>
<linearGradient id="paint7_linear_4282_955" x1="589" y1="55.5" x2="645" y2="55.5" gradientUnits="userSpaceOnUse">
<stop stop-color="#D0D1D3"/>
<stop offset="1" stop-color="white"/>
</linearGradient>
<linearGradient id="paint8_linear_4282_955" x1="979" y1="312.5" x2="1035" y2="312.5" gradientUnits="userSpaceOnUse">
<stop stop-color="#D0D1D3"/>
<stop offset="1" stop-color="white"/>
</linearGradient>
<linearGradient id="paint9_linear_4282_955" x1="56.5" y1="194" x2="56.5" y2="250" gradientUnits="userSpaceOnUse">
<stop stop-color="#D0D1D3"/>
<stop offset="1" stop-color="white"/>
</linearGradient>
<linearGradient id="paint10_linear_4282_955" x1="56.5" y1="1" x2="56.5" y2="57" gradientUnits="userSpaceOnUse">
<stop stop-color="white"/>
<stop offset="1" stop-color="#D0D1D3"/>
</linearGradient>
<linearGradient id="paint11_linear_4282_955" x1="590.5" y1="1" x2="590.5" y2="57" gradientUnits="userSpaceOnUse">
<stop stop-color="white"/>
<stop offset="1" stop-color="#D0D1D3"/>
</linearGradient>
</defs>
</svg>
