<svg width="160" height="72" viewBox="0 0 160 72" fill="none" xmlns="http://www.w3.org/2000/svg">
<rect x="133.865" y="48.1641" width="23.3468" height="23.3468" transform="rotate(-166.89 133.865 48.1641)" fill="url(#paint0_linear_3567_905)"/>
<path d="M117.656 66.3008L105.322 46.4778C116.27 39.6661 130.667 43.0191 137.479 53.967L117.656 66.3008Z" fill="white"/>
<path d="M105.32 46.4766L92.9866 26.6536L112.809 14.3199C119.621 25.2678 116.268 39.6648 105.32 46.4766Z" fill="white"/>
<path d="M144.967 21.8108C134.02 28.6225 119.623 25.2695 112.811 14.3216L132.634 1.98783L144.967 21.8108Z" fill="white"/>
<path d="M137.477 53.9688C130.665 43.0208 134.018 28.6238 144.966 21.812L157.3 41.635L137.477 53.9688Z" fill="white"/>
<path d="M0.5 71.501L6.26726 71.2325L3.15117 66.3722L0.5 71.501ZM104.593 45.5009C75.8992 45.5009 55.0906 44.3952 40.3587 42.6461C25.6048 40.8944 17.0088 38.5036 12.6859 35.9753C10.523 34.7103 9.52311 33.4654 9.267 32.3365C9.01636 31.2318 9.44508 30.0766 10.5416 28.8923C12.7546 26.502 17.4156 24.3072 22.8357 22.8209C28.2333 21.3408 34.2722 20.5938 39.1563 21.0223C41.5997 21.2366 43.7219 21.7425 45.325 22.5729C46.9207 23.3993 47.9718 24.5288 48.3611 25.9962C48.7537 27.4758 48.5009 29.3995 47.2687 31.8627C46.0374 34.3242 43.8504 37.2775 40.4577 40.7812C33.6731 47.7875 22.1378 56.9226 4.02584 68.6465L4.56923 69.486C22.7052 57.7466 34.3139 48.5634 41.1761 41.4768C44.6067 37.9341 46.8688 34.8974 48.1631 32.3101C49.4564 29.7246 49.8057 27.5411 49.3277 25.7397C48.8465 23.9263 47.5543 22.6013 45.7849 21.6849C44.0229 20.7723 41.7582 20.2467 39.2437 20.0261C34.2119 19.5847 28.0509 20.3539 22.5712 21.8565C17.114 23.353 12.2203 25.6073 9.80778 28.2129C8.5915 29.5266 7.93975 31.0061 8.29178 32.5578C8.63834 34.0853 9.92424 35.5186 12.1811 36.8385C16.6977 39.4801 25.477 41.8863 40.2408 43.6392C55.0267 45.3946 75.8784 46.5009 104.593 46.5009V45.5009Z" fill="black"/>
<defs>
<linearGradient id="paint0_linear_3567_905" x1="133.865" y1="71.5108" x2="159.255" y2="69.0246" gradientUnits="userSpaceOnUse">
<stop stop-color="#6ADAFF"/>
<stop offset="1" stop-color="#00B0EA"/>
</linearGradient>
</defs>
</svg>
