<svg width="121" height="24" viewBox="0 0 121 24" fill="none" xmlns="http://www.w3.org/2000/svg">
<path d="M18.891 23.5294H13.3998L4.76591 12.5042V23.5294H0V0H4.76591V10.3866L13.0545 0H18.5456L9.60089 11.4286L18.891 23.5294Z" fill="#444444"/>
<path d="M31.7625 6.72269H36.2176V23.5294H31.7625V21.6471C30.6804 23.2157 28.9651 24 26.6167 24C24.7287 24 23.1631 23.3838 21.9198 22.1513C20.6996 20.9188 20.0895 19.2157 20.0895 17.042V6.72269H24.5445V16.5042C24.5445 17.6246 24.8554 18.4874 25.477 19.0924C26.0986 19.6751 26.9275 19.9664 27.9636 19.9664C29.1148 19.9664 30.0357 19.619 30.7264 18.9244C31.4171 18.2297 31.7625 17.1877 31.7625 15.7983V6.72269Z" fill="#444444"/>
<path d="M44.753 9.61345C45.1674 8.53782 45.8466 7.73109 46.7906 7.19328C47.7576 6.65546 48.8282 6.38655 50.0024 6.38655V11.2269C48.644 11.07 47.4237 11.3389 46.3416 12.0336C45.2825 12.7283 44.753 13.8824 44.753 15.4958V23.5294H40.2979V6.72269H44.753V9.61345Z" fill="#444444"/>
<path d="M56.1781 11.4958C56.1781 11.944 56.4774 12.3137 57.076 12.605C57.6976 12.8739 58.4459 13.1204 59.3208 13.3445C60.1957 13.5462 61.0706 13.8151 61.9455 14.1513C62.8204 14.465 63.5572 15.0028 64.1558 15.7647C64.7774 16.5266 65.0882 17.479 65.0882 18.6218C65.0882 20.3473 64.4206 21.6807 63.0852 22.6218C61.7728 23.5406 60.1266 24 58.1466 24C54.6009 24 52.1834 22.6667 50.8941 20L54.7621 17.8824C55.2686 19.3389 56.3968 20.0672 58.1466 20.0672C59.7352 20.0672 60.5295 19.5854 60.5295 18.6218C60.5295 18.1737 60.2187 17.8151 59.5971 17.5462C58.9985 17.2549 58.2617 16.9972 57.3868 16.7731C56.5119 16.549 55.637 16.2689 54.7621 15.9328C53.8872 15.5966 53.1389 15.07 52.5173 14.3529C51.9187 13.6134 51.6194 12.6947 51.6194 11.5966C51.6194 9.93838 52.241 8.63866 53.4843 7.69748C54.7506 6.73389 56.3162 6.2521 58.1811 6.2521C59.5856 6.2521 60.8634 6.56583 62.0146 7.19328C63.1658 7.79832 64.0752 8.67227 64.7429 9.81513L60.944 11.8319C60.3914 10.6891 59.4705 10.1176 58.1811 10.1176C57.6055 10.1176 57.122 10.2409 56.7306 10.4874C56.3623 10.7339 56.1781 11.07 56.1781 11.4958Z" fill="#444444"/>
<path d="M83.8702 23.5294L82.4197 19.2941H72.7843L71.3338 23.5294H66.188L74.6492 0H80.5548L89.0505 23.5294H83.8702ZM74.3038 14.958H80.9347L77.6193 5.34454L74.3038 14.958Z" fill="#2A6DB3"/>
<path d="M100.792 6.2521C102.679 6.2521 104.234 6.86835 105.454 8.10084C106.697 9.33333 107.319 11.0364 107.319 13.2101V23.5294H102.864V13.7479C102.864 12.6275 102.553 11.7759 101.931 11.1933C101.31 10.5882 100.481 10.2857 99.4447 10.2857C98.2935 10.2857 97.3725 10.6331 96.6818 11.3277C95.9911 12.0224 95.6458 13.0644 95.6458 14.4538V23.5294H91.1907V6.72269H95.6458V8.60504C96.7279 7.03642 98.4431 6.2521 100.792 6.2521Z" fill="#2A6DB3"/>
<path d="M121 10.8908H117.097V17.8824C117.097 18.465 117.247 18.8908 117.546 19.1597C117.846 19.4286 118.283 19.5854 118.859 19.6303C119.434 19.6527 120.148 19.6415 121 19.5966V23.5294C117.938 23.8655 115.774 23.5854 114.507 22.6891C113.264 21.7927 112.642 20.1905 112.642 17.8824V10.8908H109.638V6.72269H112.642V3.32773L117.097 2.01681V6.72269H121V10.8908Z" fill="#2A6DB3"/>
</svg>
