<svg width="576" height="333" viewBox="0 0 576 333" fill="none" xmlns="http://www.w3.org/2000/svg">
<rect width="576" height="333" rx="31" fill="#FAFAFA"/>
<path d="M48.045 70V45.5H51.965L59.91 56.525L67.785 45.5H71.635V70H67.785V51.38L60.96 60.62H58.72L51.895 51.38V70H48.045ZM91.958 68.775C90.3946 69.895 88.283 70.455 85.623 70.455C82.963 70.455 80.7113 69.615 78.868 67.935C77.048 66.255 76.138 64.0733 76.138 61.39C76.138 58.8233 76.9546 56.6767 78.588 54.95C80.2213 53.2233 82.3446 52.36 84.958 52.36C87.5246 52.36 89.5196 53.2817 90.943 55.125C92.3896 56.945 93.113 59.08 93.113 61.53V62.51H79.953C80.2096 63.9567 80.9096 65.0883 82.053 65.905C83.2196 66.7217 84.678 67.13 86.428 67.13C88.4813 67.13 90.3246 66.6167 91.958 65.59V68.775ZM79.988 59.64H89.298C89.298 58.6133 88.8896 57.68 88.073 56.84C87.2796 55.9767 86.183 55.545 84.783 55.545C83.4063 55.545 82.2863 55.9533 81.423 56.77C80.5596 57.5633 80.0813 58.52 79.988 59.64ZM97.3923 70V52.815H101.172V59.325L107.962 52.815H112.792L104.637 60.515L114.017 70H108.837L101.172 62.23V70H97.3923ZM120.895 70V56.14H115.085V52.815H130.45V56.14H124.675V70H120.895ZM148.184 68.775C146.62 69.895 144.509 70.455 141.849 70.455C139.189 70.455 136.937 69.615 135.094 67.935C133.274 66.255 132.364 64.0733 132.364 61.39C132.364 58.8233 133.18 56.6767 134.814 54.95C136.447 53.2233 138.57 52.36 141.184 52.36C143.75 52.36 145.745 53.2817 147.169 55.125C148.615 56.945 149.339 59.08 149.339 61.53V62.51H136.179C136.435 63.9567 137.135 65.0883 138.279 65.905C139.445 66.7217 140.904 67.13 142.654 67.13C144.707 67.13 146.55 66.6167 148.184 65.59V68.775ZM136.214 59.64H145.524C145.524 58.6133 145.115 57.68 144.299 56.84C143.505 55.9767 142.409 55.545 141.009 55.545C139.632 55.545 138.512 55.9533 137.649 56.77C136.785 57.5633 136.307 58.52 136.214 59.64ZM153.618 70V52.815H169.648V70H165.868V56.14H157.398V70H153.618ZM184.14 70V52.815H187.85L193.73 59.955L199.645 52.815H203.355V70H199.715V57.96L194.465 64.295H192.995L187.78 57.96V70H184.14ZM208.75 70V52.815H212.53V64.47L221.805 52.815H225.34V70H221.56V58.31L212.285 70H208.75ZM238.777 70.455C236.211 70.455 234.017 69.6033 232.197 67.9C230.401 66.1967 229.502 64.015 229.502 61.355C229.502 58.7183 230.401 56.56 232.197 54.88C234.017 53.2 236.222 52.36 238.812 52.36C240.749 52.36 242.476 52.7567 243.992 53.55V56.805C242.452 56.0583 240.912 55.685 239.372 55.685C237.669 55.685 236.222 56.2217 235.032 57.295C233.866 58.3683 233.282 59.7333 233.282 61.39C233.282 63.0467 233.866 64.4233 235.032 65.52C236.222 66.5933 237.669 67.13 239.372 67.13C241.146 67.13 242.779 66.6983 244.272 65.835V69.055C242.639 69.9883 240.807 70.455 238.777 70.455ZM256.619 70.455C254.052 70.455 251.859 69.6033 250.039 67.9C248.242 66.1967 247.344 64.015 247.344 61.355C247.344 58.7183 248.242 56.56 250.039 54.88C251.859 53.2 254.064 52.36 256.654 52.36C258.591 52.36 260.317 52.7567 261.834 53.55V56.805C260.294 56.0583 258.754 55.685 257.214 55.685C255.511 55.685 254.064 56.2217 252.874 57.295C251.707 58.3683 251.124 59.7333 251.124 61.39C251.124 63.0467 251.707 64.4233 252.874 65.52C254.064 66.5933 255.511 67.13 257.214 67.13C258.987 67.13 260.621 66.6983 262.114 65.835V69.055C260.481 69.9883 258.649 70.455 256.619 70.455ZM266.753 70V52.815H270.533V64.47L279.808 52.815H283.343V70H279.563V58.31L270.288 70H266.753ZM287.26 70L292.125 63.315C289.582 62.6383 288.31 60.9467 288.31 58.24C288.31 56.6767 288.858 55.3817 289.955 54.355C291.052 53.3283 292.662 52.815 294.785 52.815H303.815V70H300.035V64.085H295.87L291.6 70H287.26ZM295.31 61.04H300.035V55.86H295.31C294.307 55.86 293.525 56.0933 292.965 56.56C292.428 57.0033 292.16 57.6333 292.16 58.45C292.16 59.2667 292.428 59.9083 292.965 60.375C293.525 60.8183 294.307 61.04 295.31 61.04ZM317.254 70.455C314.687 70.455 312.494 69.6033 310.674 67.9C308.877 66.1967 307.979 64.015 307.979 61.355C307.979 58.7183 308.877 56.56 310.674 54.88C312.494 53.2 314.699 52.36 317.289 52.36C319.225 52.36 320.952 52.7567 322.469 53.55V56.805C320.929 56.0583 319.389 55.685 317.849 55.685C316.145 55.685 314.699 56.2217 313.509 57.295C312.342 58.3683 311.759 59.7333 311.759 61.39C311.759 63.0467 312.342 64.4233 313.509 65.52C314.699 66.5933 316.145 67.13 317.849 67.13C319.622 67.13 321.255 66.6983 322.749 65.835V69.055C321.115 69.9883 319.284 70.455 317.254 70.455ZM344.677 70V52.815H348.457V70H344.677ZM327.387 70V52.815H331.167V58.03H335.332C337.456 58.03 339.136 58.5783 340.372 59.675C341.632 60.7483 342.262 62.195 342.262 64.015C342.262 65.7417 341.667 67.1767 340.477 68.32C339.287 69.44 337.631 70 335.507 70H327.387ZM331.167 66.815H334.912C336.032 66.815 336.896 66.57 337.502 66.08C338.132 65.59 338.447 64.9017 338.447 64.015C338.447 63.1283 338.132 62.44 337.502 61.95C336.896 61.46 336.032 61.215 334.912 61.215H331.167V66.815Z" fill="black"/>
<g clip-path="url(#clip0_4282_959)">
<path d="M516.622 259.771V189.202H333.176C325.34 189.202 318.987 182.883 318.987 175.088V130.227H48.3789V200.796H231.825C239.661 200.796 246.014 207.115 246.014 214.909V259.771H516.622Z" fill="#F1F1F1" stroke="#D0D1D3"/>
<g filter="url(#filter0_d_4282_959)">
<path d="M298.716 140.309H68.6488C63.0513 140.309 58.5137 144.822 58.5137 150.39V180.634C58.5137 186.202 63.0513 190.715 68.6488 190.715H298.716C304.314 190.715 308.851 186.202 308.851 180.634V150.39C308.851 144.822 304.314 140.309 298.716 140.309Z" fill="white"/>
</g>
<g filter="url(#filter1_d_4282_959)">
<path d="M496.351 199.285H266.284C260.686 199.285 256.148 203.799 256.148 209.366V239.61C256.148 245.178 260.686 249.692 266.284 249.692H496.351C501.949 249.692 506.486 245.178 506.486 239.61V209.366C506.486 203.799 501.949 199.285 496.351 199.285Z" fill="white"/>
</g>
<path d="M79.3652 172.569L85.8269 158.02H87.4267L93.8884 172.569H92.1016L90.3355 168.663H82.8558L81.1313 172.569H79.3652ZM83.4375 167.175H89.7953L86.6164 160.128L83.4375 167.175ZM94.9247 175.483V171.143H96.1921C96.8017 170.33 97.2309 169.262 97.4803 167.94C97.7438 166.617 97.875 164.819 97.875 162.546H105.459V171.143H107.308V175.483H105.729V172.569H96.5037V175.483H94.9247ZM97.9997 171.143H103.817V163.972H99.3918C99.3918 167.224 98.9281 169.614 97.9997 171.143ZM113.154 171.35C113.86 171.35 114.511 171.198 115.107 170.895C115.716 170.592 116.194 170.22 116.54 169.779V168.415C115.599 167.795 114.546 167.485 113.382 167.485C112.496 167.485 111.797 167.658 111.284 168.002C110.785 168.332 110.536 168.801 110.536 169.407C110.536 170.055 110.785 170.544 111.284 170.874C111.782 171.192 112.406 171.35 113.154 171.35ZM112.697 172.817C111.63 172.817 110.723 172.521 109.975 171.928C109.241 171.336 108.874 170.523 108.874 169.49C108.874 168.456 109.262 167.65 110.037 167.072C110.827 166.48 111.81 166.183 112.988 166.183C114.359 166.183 115.543 166.493 116.54 167.113V166.204C116.54 164.578 115.46 163.765 113.299 163.765C112.122 163.765 111.028 164.096 110.016 164.757V163.207C111.028 162.601 112.24 162.298 113.652 162.298C115.01 162.298 116.104 162.615 116.935 163.248C117.766 163.882 118.182 164.812 118.182 166.038V169.986C118.182 170.854 118.493 171.288 119.117 171.288C119.366 171.288 119.56 171.239 119.699 171.143V172.424C119.449 172.59 119.096 172.672 118.639 172.672C117.573 172.672 116.929 172.149 116.707 171.102C115.682 172.246 114.345 172.817 112.697 172.817ZM122.082 172.569V162.546H123.703L127.609 167.092L131.536 162.546H133.136V172.569H131.536V164.798L127.921 168.994H127.277L123.682 164.798V172.569H122.082ZM139.872 172.817C138.39 172.817 137.143 172.59 136.132 172.135V170.544C137.171 171.081 138.342 171.35 139.643 171.35C141.791 171.35 142.864 170.764 142.864 169.593C142.864 168.546 141.991 168.022 140.246 168.022H138.459V166.617H140.246C141.022 166.617 141.589 166.493 141.95 166.245C142.324 165.984 142.511 165.646 142.511 165.232C142.511 164.254 141.589 163.765 139.747 163.765C138.625 163.765 137.524 163.992 136.444 164.447V162.959C137.455 162.518 138.667 162.298 140.08 162.298C141.23 162.298 142.199 162.546 142.989 163.042C143.778 163.524 144.173 164.158 144.173 164.943C144.173 165.591 144.027 166.073 143.737 166.39C143.446 166.707 143.058 166.976 142.573 167.196C143.916 167.609 144.588 168.449 144.588 169.717C144.588 170.64 144.159 171.391 143.3 171.97C142.441 172.535 141.299 172.817 139.872 172.817ZM150.954 171.35C151.661 171.35 152.312 171.198 152.907 170.895C153.517 170.592 153.995 170.22 154.341 169.779V168.415C153.399 167.795 152.346 167.485 151.183 167.485C150.296 167.485 149.597 167.658 149.084 168.002C148.586 168.332 148.336 168.801 148.336 169.407C148.336 170.055 148.586 170.544 149.084 170.874C149.583 171.192 150.206 171.35 150.954 171.35ZM150.497 172.817C149.43 172.817 148.523 172.521 147.775 171.928C147.041 171.336 146.674 170.523 146.674 169.49C146.674 168.456 147.062 167.65 147.838 167.072C148.627 166.48 149.611 166.183 150.788 166.183C152.159 166.183 153.344 166.493 154.341 167.113V166.204C154.341 164.578 153.261 163.765 151.1 163.765C149.923 163.765 148.828 164.096 147.817 164.757V163.207C148.828 162.601 150.04 162.298 151.453 162.298C152.811 162.298 153.905 162.615 154.736 163.248C155.567 163.882 155.982 164.812 155.982 166.038V169.986C155.982 170.854 156.294 171.288 156.917 171.288C157.167 171.288 157.361 171.239 157.499 171.143V172.424C157.25 172.59 156.896 172.672 156.439 172.672C155.373 172.672 154.729 172.149 154.507 171.102C153.482 172.246 152.146 172.817 150.497 172.817ZM162.028 172.569V163.972H158.434V162.546H167.264V163.972H163.67V172.569H162.028ZM176.398 172.569L171.162 167.712V172.569H169.5V162.546H171.162V166.617L175.775 162.546H177.977L172.783 167.072L177.188 171.143H178.725V175.483H177.146V172.569H176.398ZM184.291 171.35C184.997 171.35 185.648 171.198 186.244 170.895C186.853 170.592 187.331 170.22 187.677 169.779V168.415C186.736 167.795 185.683 167.485 184.519 167.485C183.633 167.485 182.934 167.658 182.421 168.002C181.922 168.332 181.673 168.801 181.673 169.407C181.673 170.055 181.922 170.544 182.421 170.874C182.919 171.192 183.543 171.35 184.291 171.35ZM183.834 172.817C182.767 172.817 181.86 172.521 181.112 171.928C180.378 171.336 180.011 170.523 180.011 169.49C180.011 168.456 180.399 167.65 181.174 167.072C181.964 166.48 182.947 166.183 184.125 166.183C185.496 166.183 186.68 166.493 187.677 167.113V166.204C187.677 164.578 186.597 163.765 184.436 163.765C183.259 163.765 182.165 164.096 181.153 164.757V163.207C182.165 162.601 183.377 162.298 184.789 162.298C186.147 162.298 187.241 162.615 188.072 163.248C188.903 163.882 189.319 164.812 189.319 166.038V169.986C189.319 170.854 189.63 171.288 190.254 171.288C190.503 171.288 190.697 171.239 190.836 171.143V172.424C190.586 172.59 190.233 172.672 189.776 172.672C188.71 172.672 188.066 172.149 187.844 171.102C186.819 172.246 185.482 172.817 183.834 172.817ZM198.678 172.569V162.546H207.799V172.569H206.157V163.972H200.34V172.569H198.678ZM214.706 171.35C215.412 171.35 216.063 171.198 216.659 170.895C217.268 170.592 217.746 170.22 218.092 169.779V168.415C217.15 167.795 216.098 167.485 214.934 167.485C214.048 167.485 213.348 167.658 212.836 168.002C212.337 168.332 212.088 168.801 212.088 169.407C212.088 170.055 212.337 170.544 212.836 170.874C213.334 171.192 213.958 171.35 214.706 171.35ZM214.249 172.817C213.182 172.817 212.275 172.521 211.527 171.928C210.793 171.336 210.426 170.523 210.426 169.49C210.426 168.456 210.813 167.65 211.589 167.072C212.379 166.48 213.362 166.183 214.54 166.183C215.911 166.183 217.095 166.493 218.092 167.113V166.204C218.092 164.578 217.012 163.765 214.851 163.765C213.674 163.765 212.579 164.096 211.568 164.757V163.207C212.579 162.601 213.792 162.298 215.204 162.298C216.562 162.298 217.656 162.615 218.487 163.248C219.318 163.882 219.734 164.812 219.734 166.038V169.986C219.734 170.854 220.045 171.288 220.669 171.288C220.918 171.288 221.112 171.239 221.251 171.143V172.424C221.001 172.59 220.648 172.672 220.191 172.672C219.124 172.672 218.48 172.149 218.259 171.102C217.233 172.246 215.897 172.817 214.249 172.817ZM223.634 172.569V162.546H225.296V170.172L231.53 162.546H233.067V172.569H231.405V164.964L225.172 172.569H223.634ZM228.351 160.934C227.339 160.934 226.515 160.644 225.878 160.066C225.241 159.487 224.923 158.709 224.923 157.73H226.356C226.356 158.309 226.529 158.771 226.876 159.115C227.235 159.459 227.72 159.632 228.33 159.632C228.939 159.632 229.417 159.459 229.764 159.115C230.123 158.771 230.31 158.309 230.325 157.73H231.758C231.758 158.695 231.432 159.474 230.782 160.066C230.144 160.644 229.334 160.934 228.351 160.934ZM235.271 175.483V171.143H236.538C237.148 170.33 237.577 169.262 237.827 167.94C238.09 166.617 238.221 164.819 238.221 162.546H245.805V171.143H247.654V175.483H246.075V172.569H236.85V175.483H235.271ZM238.346 171.143H244.164V163.972H239.738C239.738 167.224 239.274 169.614 238.346 171.143ZM253.5 171.35C254.206 171.35 254.858 171.198 255.453 170.895C256.063 170.592 256.541 170.22 256.887 169.779V168.415C255.945 167.795 254.892 167.485 253.729 167.485C252.842 167.485 252.143 167.658 251.63 168.002C251.131 168.332 250.882 168.801 250.882 169.407C250.882 170.055 251.131 170.544 251.63 170.874C252.129 171.192 252.752 171.35 253.5 171.35ZM253.043 172.817C251.977 172.817 251.069 172.521 250.321 171.928C249.587 171.336 249.22 170.523 249.22 169.49C249.22 168.456 249.608 167.65 250.383 167.072C251.173 166.48 252.157 166.183 253.334 166.183C254.705 166.183 255.889 166.493 256.887 167.113V166.204C256.887 164.578 255.806 163.765 253.645 163.765C252.468 163.765 251.374 164.096 250.363 164.757V163.207C251.374 162.601 252.586 162.298 253.999 162.298C255.356 162.298 256.45 162.615 257.281 163.248C258.113 163.882 258.528 164.812 258.528 166.038V169.986C258.528 170.854 258.84 171.288 259.463 171.288C259.712 171.288 259.906 171.239 260.045 171.143V172.424C259.795 172.59 259.442 172.672 258.985 172.672C257.919 172.672 257.275 172.149 257.053 171.102C256.028 172.246 254.691 172.817 253.043 172.817ZM261.14 172.569V171.081C261.21 171.109 261.348 171.122 261.556 171.122C261.971 171.122 262.325 170.991 262.616 170.73C262.921 170.454 263.149 170.061 263.301 169.552C263.454 169.042 263.565 168.491 263.634 167.898C263.717 167.292 263.765 166.583 263.779 165.77L263.862 162.546H271.508V172.569H269.867V163.972H265.441L265.379 165.811C265.365 166.431 265.337 166.968 265.296 167.423C265.254 167.878 265.185 168.394 265.088 168.973C265.005 169.538 264.874 170.02 264.693 170.42C264.527 170.805 264.313 171.177 264.049 171.536C263.786 171.88 263.447 172.142 263.031 172.321C262.63 172.5 262.166 172.59 261.639 172.59C261.418 172.59 261.251 172.583 261.14 172.569ZM285.003 172.569V162.546H286.644V172.569H285.003ZM274.968 172.569V162.546H276.63V165.832H279.518C280.723 165.832 281.665 166.135 282.344 166.741C283.036 167.348 283.382 168.167 283.382 169.2C283.382 170.192 283.05 171.006 282.385 171.639C281.72 172.259 280.785 172.569 279.58 172.569H274.968ZM276.63 171.143H279.289C280.065 171.143 280.661 170.978 281.076 170.647C281.506 170.316 281.72 169.841 281.72 169.221C281.72 167.912 280.91 167.258 279.289 167.258H276.63V171.143Z" fill="black"/>
<path d="M281.04 229.529V220.932H277.445V219.506H286.276V220.932H282.681V229.529H281.04ZM288.802 230.232V228.992H291.482L287.327 219.506H289.176L292.729 227.834L296.282 219.506H298.048L293.893 228.992H296.614V230.232H293.519V233.662H291.856V230.232H288.802ZM298.89 229.529V228.041C298.959 228.069 299.098 228.082 299.305 228.082C299.721 228.082 300.074 227.951 300.365 227.69C300.67 227.414 300.899 227.021 301.051 226.512C301.203 226.002 301.314 225.451 301.383 224.858C301.466 224.252 301.515 223.543 301.528 222.73L301.612 219.506H309.257V229.529H307.616V220.932H303.191L303.128 222.771C303.115 223.391 303.087 223.928 303.045 224.383C303.004 224.838 302.935 225.354 302.837 225.933C302.754 226.498 302.623 226.98 302.443 227.38C302.276 227.765 302.062 228.137 301.799 228.496C301.536 228.84 301.196 229.102 300.78 229.281C300.379 229.46 299.915 229.55 299.388 229.55C299.167 229.55 299.001 229.543 298.89 229.529ZM311.409 225.396V224.156H313.216V219.506H320.841V220.932H314.878V224.156H318.868V225.396H314.878V229.529H313.216V225.396H311.409ZM326.778 228.31C327.484 228.31 328.135 228.158 328.731 227.855C329.34 227.552 329.818 227.18 330.164 226.739V225.375C329.222 224.755 328.17 224.445 327.006 224.445C326.12 224.445 325.42 224.618 324.908 224.962C324.409 225.292 324.16 225.761 324.16 226.367C324.16 227.015 324.409 227.504 324.908 227.834C325.406 228.152 326.03 228.31 326.778 228.31ZM326.32 229.777C325.254 229.777 324.347 229.481 323.599 228.888C322.864 228.296 322.498 227.483 322.498 226.45C322.498 225.416 322.885 224.61 323.661 224.032C324.451 223.44 325.434 223.143 326.611 223.143C327.983 223.143 329.167 223.453 330.164 224.073V223.164C330.164 221.538 329.084 220.725 326.923 220.725C325.746 220.725 324.651 221.056 323.64 221.717V220.167C324.651 219.561 325.863 219.258 327.276 219.258C328.634 219.258 329.728 219.575 330.559 220.208C331.39 220.842 331.806 221.772 331.806 222.998V226.946C331.806 227.814 332.117 228.248 332.741 228.248C332.99 228.248 333.184 228.199 333.322 228.103V229.384C333.073 229.55 332.72 229.632 332.263 229.632C331.196 229.632 330.552 229.109 330.33 228.062C329.305 229.206 327.969 229.777 326.32 229.777ZM348.062 229.529L342.826 224.672V229.529H341.164V219.506H342.826V223.577L347.439 219.506H349.641L344.447 224.032L348.851 228.103H350.389V232.443H348.81V229.529H348.062ZM355.955 228.31C356.661 228.31 357.312 228.158 357.908 227.855C358.517 227.552 358.995 227.18 359.341 226.739V225.375C358.4 224.755 357.347 224.445 356.183 224.445C355.297 224.445 354.598 224.618 354.085 224.962C353.586 225.292 353.337 225.761 353.337 226.367C353.337 227.015 353.586 227.504 354.085 227.834C354.583 228.152 355.207 228.31 355.955 228.31ZM355.498 229.777C354.431 229.777 353.524 229.481 352.776 228.888C352.042 228.296 351.675 227.483 351.675 226.45C351.675 225.416 352.063 224.61 352.838 224.032C353.628 223.44 354.611 223.143 355.788 223.143C357.16 223.143 358.344 223.453 359.341 224.073V223.164C359.341 221.538 358.261 220.725 356.1 220.725C354.923 220.725 353.829 221.056 352.817 221.717V220.167C353.829 219.561 355.04 219.258 356.453 219.258C357.811 219.258 358.905 219.575 359.736 220.208C360.567 220.842 360.983 221.772 360.983 222.998V226.946C360.983 227.814 361.294 228.248 361.918 228.248C362.167 228.248 362.361 228.199 362.499 228.103V229.384C362.25 229.55 361.897 229.632 361.44 229.632C360.374 229.632 359.729 229.109 359.507 228.062C358.483 229.206 357.146 229.777 355.498 229.777ZM363.595 229.529V228.041C363.664 228.069 363.803 228.082 364.011 228.082C364.426 228.082 364.779 227.951 365.07 227.69C365.375 227.414 365.603 227.021 365.756 226.512C365.908 226.002 366.019 225.451 366.088 224.858C366.171 224.252 366.22 223.543 366.234 222.73L366.317 219.506H373.963V229.529H372.321V220.932H367.896L367.833 222.771C367.82 223.391 367.792 223.928 367.75 224.383C367.709 224.838 367.639 225.354 367.543 225.933C367.46 226.498 367.328 226.98 367.148 227.38C366.982 227.765 366.767 228.137 366.504 228.496C366.241 228.84 365.901 229.102 365.486 229.281C365.084 229.46 364.62 229.55 364.094 229.55C363.872 229.55 363.706 229.543 363.595 229.529ZM387.458 229.529V219.506H389.099V229.529H387.458ZM377.422 229.529V219.506H379.085V222.792H381.973C383.178 222.792 384.12 223.095 384.798 223.701C385.491 224.308 385.837 225.127 385.837 226.16C385.837 227.152 385.505 227.966 384.84 228.599C384.175 229.219 383.24 229.529 382.035 229.529H377.422ZM379.085 228.103H381.744C382.52 228.103 383.115 227.938 383.531 227.607C383.96 227.276 384.175 226.801 384.175 226.181C384.175 224.872 383.365 224.218 381.744 224.218H379.085V228.103ZM392.559 229.529V219.506H401.68V229.529H400.038V220.932H394.221V229.529H392.559ZM407.549 229.529V220.932H403.954V219.506H412.784V220.932H409.19V229.529H407.549ZM418.448 228.31C419.155 228.31 419.805 228.158 420.401 227.855C421.011 227.552 421.488 227.18 421.835 226.739V225.375C420.893 224.755 419.84 224.445 418.677 224.445C417.79 224.445 417.091 224.618 416.578 224.962C416.08 225.292 415.83 225.761 415.83 226.367C415.83 227.015 416.08 227.504 416.578 227.834C417.077 228.152 417.7 228.31 418.448 228.31ZM417.991 229.777C416.925 229.777 416.017 229.481 415.269 228.888C414.535 228.296 414.168 227.483 414.168 226.45C414.168 225.416 414.556 224.61 415.332 224.032C416.121 223.44 417.104 223.143 418.282 223.143C419.653 223.143 420.838 223.453 421.835 224.073V223.164C421.835 221.538 420.755 220.725 418.594 220.725C417.416 220.725 416.322 221.056 415.311 221.717V220.167C416.322 219.561 417.534 219.258 418.947 219.258C420.304 219.258 421.399 219.575 422.23 220.208C423.061 220.842 423.476 221.772 423.476 222.998V226.946C423.476 227.814 423.788 228.248 424.411 228.248C424.661 228.248 424.854 228.199 424.993 228.103V229.384C424.744 229.55 424.391 229.632 423.933 229.632C422.867 229.632 422.223 229.109 422.001 228.062C420.976 229.206 419.639 229.777 417.991 229.777ZM432.03 229.777C430.507 229.777 429.226 229.274 428.187 228.268C427.162 227.263 426.649 226.009 426.649 224.507C426.649 222.991 427.162 221.738 428.187 220.746C429.226 219.754 430.514 219.258 432.051 219.258C433.215 219.258 434.226 219.499 435.085 219.981V221.469C434.198 220.973 433.263 220.725 432.28 220.725C431.172 220.725 430.237 221.084 429.475 221.8C428.713 222.516 428.332 223.425 428.332 224.528C428.332 225.616 428.713 226.519 429.475 227.235C430.237 227.951 431.172 228.31 432.28 228.31C433.416 228.31 434.413 228.028 435.272 227.462V228.93C434.33 229.495 433.25 229.777 432.03 229.777ZM440.499 229.529V220.932H436.905V219.506H445.735V220.932H442.141V229.529H440.499ZM458.006 229.529V219.506H459.648V229.529H458.006ZM447.971 229.529V219.506H449.633V222.792H452.521C453.726 222.792 454.668 223.095 455.347 223.701C456.04 224.308 456.386 225.127 456.386 226.16C456.386 227.152 456.053 227.966 455.388 228.599C454.724 229.219 453.789 229.529 452.583 229.529H447.971ZM449.633 228.103H452.293C453.068 228.103 453.664 227.938 454.079 227.607C454.509 227.276 454.724 226.801 454.724 226.181C454.724 224.872 453.913 224.218 452.293 224.218H449.633V228.103ZM464.769 233.662H463.107V219.506H464.769V221.056C465.697 219.857 466.972 219.258 468.592 219.258C470.061 219.258 471.266 219.774 472.208 220.808C473.15 221.828 473.62 223.06 473.62 224.507C473.62 225.967 473.15 227.214 472.208 228.248C471.266 229.268 470.061 229.777 468.592 229.777C466.944 229.777 465.67 229.178 464.769 227.979V233.662ZM464.769 222.895V226.16C465.06 226.794 465.51 227.311 466.12 227.71C466.73 228.11 467.422 228.31 468.198 228.31C469.278 228.31 470.172 227.945 470.878 227.214C471.584 226.484 471.938 225.582 471.938 224.507C471.938 223.432 471.584 222.537 470.878 221.82C470.172 221.09 469.278 220.725 468.198 220.725C467.463 220.725 466.778 220.932 466.141 221.345C465.517 221.758 465.06 222.275 464.769 222.895ZM476.717 233.745C475.928 233.745 475.38 233.649 475.076 233.456V231.947C475.478 232.167 475.941 232.278 476.468 232.278C477.091 232.278 477.611 232.03 478.026 231.534C478.455 231.051 478.899 230.26 479.356 229.157L474.889 219.506H476.717L480.187 227.235L483.532 219.506H485.319L480.374 230.645C479.903 231.678 479.377 232.45 478.795 232.96C478.227 233.484 477.535 233.745 476.717 233.745Z" fill="black"/>
<path d="M516.621 259.27V287.497" stroke="url(#paint0_linear_4282_959)"/>
<path d="M246.014 257.699V285.927" stroke="url(#paint1_linear_4282_959)"/>
<path d="M516.621 161.48V189.708" stroke="url(#paint2_linear_4282_959)"/>
<path d="M516.115 189.203H544.494" stroke="url(#paint3_linear_4282_959)"/>
<path d="M218.648 259.773H247.027" stroke="url(#paint4_linear_4282_959)"/>
<path d="M21.5195 200.797H49.8979" stroke="url(#paint5_linear_4282_959)"/>
<path d="M20.5059 130.227H48.8842" stroke="url(#paint6_linear_4282_959)"/>
<path d="M318.48 130.227H346.859" stroke="url(#paint7_linear_4282_959)"/>
<path d="M516.115 259.773H544.494" stroke="url(#paint8_linear_4282_959)"/>
<path d="M48.3789 199.789V228.017" stroke="url(#paint9_linear_4282_959)"/>
<path d="M48.3789 102.504V130.732" stroke="url(#paint10_linear_4282_959)"/>
<path d="M318.986 102.504V130.732" stroke="url(#paint11_linear_4282_959)"/>
</g>
<defs>
<filter id="filter0_d_4282_959" x="41.5137" y="123.309" width="284.338" height="84.4062" filterUnits="userSpaceOnUse" color-interpolation-filters="sRGB">
<feFlood flood-opacity="0" result="BackgroundImageFix"/>
<feColorMatrix in="SourceAlpha" type="matrix" values="0 0 0 0 0 0 0 0 0 0 0 0 0 0 0 0 0 0 127 0" result="hardAlpha"/>
<feOffset/>
<feGaussianBlur stdDeviation="8.5"/>
<feComposite in2="hardAlpha" operator="out"/>
<feColorMatrix type="matrix" values="0 0 0 0 0 0 0 0 0 0 0 0 0 0 0 0 0 0 0.13 0"/>
<feBlend mode="normal" in2="BackgroundImageFix" result="effect1_dropShadow_4282_959"/>
<feBlend mode="normal" in="SourceGraphic" in2="effect1_dropShadow_4282_959" result="shape"/>
</filter>
<filter id="filter1_d_4282_959" x="239.148" y="182.285" width="284.338" height="84.4062" filterUnits="userSpaceOnUse" color-interpolation-filters="sRGB">
<feFlood flood-opacity="0" result="BackgroundImageFix"/>
<feColorMatrix in="SourceAlpha" type="matrix" values="0 0 0 0 0 0 0 0 0 0 0 0 0 0 0 0 0 0 127 0" result="hardAlpha"/>
<feOffset/>
<feGaussianBlur stdDeviation="8.5"/>
<feComposite in2="hardAlpha" operator="out"/>
<feColorMatrix type="matrix" values="0 0 0 0 0 0 0 0 0 0 0 0 0 0 0 0 0 0 0.13 0"/>
<feBlend mode="normal" in2="BackgroundImageFix" result="effect1_dropShadow_4282_959"/>
<feBlend mode="normal" in="SourceGraphic" in2="effect1_dropShadow_4282_959" result="shape"/>
</filter>
<linearGradient id="paint0_linear_4282_959" x1="517.121" y1="259.27" x2="517.121" y2="287.497" gradientUnits="userSpaceOnUse">
<stop stop-color="#D0D1D3"/>
<stop offset="1" stop-color="white"/>
</linearGradient>
<linearGradient id="paint1_linear_4282_959" x1="246.514" y1="257.699" x2="246.514" y2="285.927" gradientUnits="userSpaceOnUse">
<stop stop-color="#D0D1D3"/>
<stop offset="1" stop-color="white"/>
</linearGradient>
<linearGradient id="paint2_linear_4282_959" x1="517.121" y1="161.48" x2="517.121" y2="189.708" gradientUnits="userSpaceOnUse">
<stop stop-color="white"/>
<stop offset="1" stop-color="#D0D1D3"/>
</linearGradient>
<linearGradient id="paint3_linear_4282_959" x1="552" y1="189" x2="513.5" y2="189" gradientUnits="userSpaceOnUse">
<stop stop-color="white"/>
<stop offset="1" stop-color="#D0D1D3"/>
</linearGradient>
<linearGradient id="paint4_linear_4282_959" x1="nan" y1="nan" x2="nan" y2="nan" gradientUnits="userSpaceOnUse">
<stop stop-color="white"/>
<stop offset="1" stop-color="#D0D1D3"/>
</linearGradient>
<linearGradient id="paint5_linear_4282_959" x1="nan" y1="nan" x2="nan" y2="nan" gradientUnits="userSpaceOnUse">
<stop stop-color="white"/>
<stop offset="1" stop-color="#D0D1D3"/>
</linearGradient>
<linearGradient id="paint6_linear_4282_959" x1="20.5059" y1="130.727" x2="48.8842" y2="130.727" gradientUnits="userSpaceOnUse">
<stop stop-color="white"/>
<stop offset="1" stop-color="#D0D1D3"/>
</linearGradient>
<linearGradient id="paint7_linear_4282_959" x1="348.5" y1="130" x2="318.5" y2="130" gradientUnits="userSpaceOnUse">
<stop stop-color="white"/>
<stop offset="1" stop-color="#D0D1D3"/>
</linearGradient>
<linearGradient id="paint8_linear_4282_959" x1="547.5" y1="260" x2="515" y2="260" gradientUnits="userSpaceOnUse">
<stop stop-color="white"/>
<stop offset="1" stop-color="#D0D1D3"/>
</linearGradient>
<linearGradient id="paint9_linear_4282_959" x1="48.8789" y1="199.789" x2="48.8789" y2="228.017" gradientUnits="userSpaceOnUse">
<stop stop-color="#D0D1D3"/>
<stop offset="1" stop-color="white"/>
</linearGradient>
<linearGradient id="paint10_linear_4282_959" x1="48" y1="103" x2="48" y2="131" gradientUnits="userSpaceOnUse">
<stop stop-color="white"/>
<stop offset="1" stop-color="#D0D1D3"/>
</linearGradient>
<linearGradient id="paint11_linear_4282_959" x1="nan" y1="nan" x2="nan" y2="nan" gradientUnits="userSpaceOnUse">
<stop stop-color="white"/>
<stop offset="1" stop-color="#D0D1D3"/>
</linearGradient>
<clipPath id="clip0_4282_959">
<rect width="525" height="186" fill="white" transform="translate(20 102)"/>
</clipPath>
</defs>
</svg>
