<svg width="576" height="333" viewBox="0 0 576 333" fill="none" xmlns="http://www.w3.org/2000/svg">
<rect width="576" height="333" rx="31" fill="url(#paint0_linear_4282_1005)"/>
<path d="M48.045 70V45.5H51.965L59.91 56.525L67.785 45.5H71.635V70H67.785V51.38L60.96 60.62H58.72L51.895 51.38V70H48.045ZM91.958 68.775C90.3946 69.895 88.283 70.455 85.623 70.455C82.963 70.455 80.7113 69.615 78.868 67.935C77.048 66.255 76.138 64.0733 76.138 61.39C76.138 58.8233 76.9546 56.6767 78.588 54.95C80.2213 53.2233 82.3446 52.36 84.958 52.36C87.5246 52.36 89.5196 53.2817 90.943 55.125C92.3896 56.945 93.113 59.08 93.113 61.53V62.51H79.953C80.2096 63.9567 80.9096 65.0883 82.053 65.905C83.2196 66.7217 84.678 67.13 86.428 67.13C88.4813 67.13 90.3246 66.6167 91.958 65.59V68.775ZM79.988 59.64H89.298C89.298 58.6133 88.8896 57.68 88.073 56.84C87.2796 55.9767 86.183 55.545 84.783 55.545C83.4063 55.545 82.2863 55.9533 81.423 56.77C80.5596 57.5633 80.0813 58.52 79.988 59.64ZM97.3923 70V52.815H101.172V59.325L107.962 52.815H112.792L104.637 60.515L114.017 70H108.837L101.172 62.23V70H97.3923ZM120.895 70V56.14H115.085V52.815H130.45V56.14H124.675V70H120.895ZM148.184 68.775C146.62 69.895 144.509 70.455 141.849 70.455C139.189 70.455 136.937 69.615 135.094 67.935C133.274 66.255 132.364 64.0733 132.364 61.39C132.364 58.8233 133.18 56.6767 134.814 54.95C136.447 53.2233 138.57 52.36 141.184 52.36C143.75 52.36 145.745 53.2817 147.169 55.125C148.615 56.945 149.339 59.08 149.339 61.53V62.51H136.179C136.435 63.9567 137.135 65.0883 138.279 65.905C139.445 66.7217 140.904 67.13 142.654 67.13C144.707 67.13 146.55 66.6167 148.184 65.59V68.775ZM136.214 59.64H145.524C145.524 58.6133 145.115 57.68 144.299 56.84C143.505 55.9767 142.409 55.545 141.009 55.545C139.632 55.545 138.512 55.9533 137.649 56.77C136.785 57.5633 136.307 58.52 136.214 59.64ZM153.618 70V52.815H169.648V70H165.868V56.14H157.398V70H153.618ZM184.14 70V52.815H187.85L193.73 59.955L199.645 52.815H203.355V70H199.715V57.96L194.465 64.295H192.995L187.78 57.96V70H184.14ZM224.885 67.06C225.258 67.06 225.596 66.9783 225.9 66.815V69.685C225.386 70.0583 224.651 70.245 223.695 70.245C221.781 70.245 220.58 69.4283 220.09 67.795C218.526 69.5683 216.415 70.455 213.755 70.455C211.888 70.455 210.348 69.9417 209.135 68.915C207.921 67.8883 207.315 66.4767 207.315 64.68C207.315 62.86 207.98 61.46 209.31 60.48C210.64 59.4767 212.273 58.975 214.21 58.975C216.24 58.975 218.071 59.4183 219.705 60.305V59.36C219.705 56.8633 218.025 55.615 214.665 55.615C212.705 55.615 210.896 56.1283 209.24 57.155V53.83C210.943 52.85 213.031 52.36 215.505 52.36C217.885 52.36 219.798 52.9317 221.245 54.075C222.715 55.2183 223.45 56.84 223.45 58.94V65.345C223.45 65.8817 223.578 66.3017 223.835 66.605C224.115 66.9083 224.465 67.06 224.885 67.06ZM219.705 65.135V63.035C218.328 62.2183 216.8 61.81 215.12 61.81C213.86 61.81 212.868 62.0433 212.145 62.51C211.445 62.9767 211.095 63.63 211.095 64.47C211.095 65.38 211.433 66.0683 212.11 66.535C212.786 66.9783 213.685 67.2 214.805 67.2C215.808 67.2 216.741 67.0017 217.605 66.605C218.468 66.2083 219.168 65.7183 219.705 65.135ZM229.633 70V52.815H233.413V59.325L240.203 52.815H245.033L236.878 60.515L242.968 66.675H246.258V74.725H242.583V70H241.078L233.413 62.23V70H229.633ZM257.405 70.455C254.838 70.455 252.645 69.6033 250.825 67.9C249.028 66.1967 248.13 64.015 248.13 61.355C248.13 58.7183 249.028 56.56 250.825 54.88C252.645 53.2 254.85 52.36 257.44 52.36C259.377 52.36 261.103 52.7567 262.62 53.55V56.805C261.08 56.0583 259.54 55.685 258 55.685C256.297 55.685 254.85 56.2217 253.66 57.295C252.493 58.3683 251.91 59.7333 251.91 61.39C251.91 63.0467 252.493 64.4233 253.66 65.52C254.85 66.5933 256.297 67.13 258 67.13C259.773 67.13 261.407 66.6983 262.9 65.835V69.055C261.267 69.9883 259.435 70.455 257.405 70.455ZM283.674 67.06C284.047 67.06 284.385 66.9783 284.689 66.815V69.685C284.175 70.0583 283.44 70.245 282.484 70.245C280.57 70.245 279.369 69.4283 278.879 67.795C277.315 69.5683 275.204 70.455 272.544 70.455C270.677 70.455 269.137 69.9417 267.924 68.915C266.71 67.8883 266.104 66.4767 266.104 64.68C266.104 62.86 266.769 61.46 268.099 60.48C269.429 59.4767 271.062 58.975 272.999 58.975C275.029 58.975 276.86 59.4183 278.494 60.305V59.36C278.494 56.8633 276.814 55.615 273.454 55.615C271.494 55.615 269.685 56.1283 268.029 57.155V53.83C269.732 52.85 271.82 52.36 274.294 52.36C276.674 52.36 278.587 52.9317 280.034 54.075C281.504 55.2183 282.239 56.84 282.239 58.94V65.345C282.239 65.8817 282.367 66.3017 282.624 66.605C282.904 66.9083 283.254 67.06 283.674 67.06ZM278.494 65.135V63.035C277.117 62.2183 275.589 61.81 273.909 61.81C272.649 61.81 271.657 62.0433 270.934 62.51C270.234 62.9767 269.884 63.63 269.884 64.47C269.884 65.38 270.222 66.0683 270.899 66.535C271.575 66.9783 272.474 67.2 273.594 67.2C274.597 67.2 275.53 67.0017 276.394 66.605C277.257 66.2083 277.957 65.7183 278.494 65.135ZM291.691 70V56.14H285.881V52.815H301.246V56.14H295.471V70H291.691ZM321.982 70V52.815H325.762V70H321.982ZM304.692 70V52.815H308.472V58.03H312.637C314.76 58.03 316.44 58.5783 317.677 59.675C318.937 60.7483 319.567 62.195 319.567 64.015C319.567 65.7417 318.972 67.1767 317.782 68.32C316.592 69.44 314.935 70 312.812 70H304.692ZM308.472 66.815H312.217C313.337 66.815 314.2 66.57 314.807 66.08C315.437 65.59 315.752 64.9017 315.752 64.015C315.752 63.1283 315.437 62.44 314.807 61.95C314.2 61.46 313.337 61.215 312.217 61.215H308.472V66.815Z" fill="white"/>
<g filter="url(#filter0_ii_4282_1005)">
<rect x="45" y="110" width="486" height="124" rx="20" fill="white"/>
</g>
<path d="M87.312 155.956C88.446 156.334 89.355 156.937 90.039 157.765C90.723 158.593 91.065 159.583 91.065 160.735C91.065 162.463 90.354 163.831 88.932 164.839C87.528 165.847 85.782 166.351 83.694 166.351C81.606 166.351 79.851 165.847 78.429 164.839C77.007 163.831 76.296 162.463 76.296 160.735C76.296 159.583 76.638 158.593 77.322 157.765C78.024 156.937 78.942 156.334 80.076 155.956C79.194 155.578 78.492 155.038 77.97 154.336C77.466 153.634 77.214 152.806 77.214 151.852C77.214 150.34 77.826 149.116 79.05 148.18C80.274 147.226 81.822 146.749 83.694 146.749C85.548 146.749 87.087 147.226 88.311 148.18C89.535 149.116 90.147 150.34 90.147 151.852C90.147 152.788 89.886 153.616 89.364 154.336C88.86 155.038 88.176 155.578 87.312 155.956ZM81.075 150.016C80.391 150.556 80.049 151.249 80.049 152.095C80.049 152.941 80.391 153.634 81.075 154.174C81.777 154.714 82.65 154.984 83.694 154.984C84.72 154.984 85.575 154.714 86.259 154.174C86.961 153.634 87.312 152.941 87.312 152.095C87.312 151.249 86.961 150.556 86.259 150.016C85.575 149.476 84.72 149.206 83.694 149.206C82.65 149.206 81.777 149.476 81.075 150.016ZM83.694 163.84C84.936 163.84 85.962 163.525 86.772 162.895C87.6 162.247 88.014 161.464 88.014 160.546C88.014 159.574 87.609 158.791 86.799 158.197C85.989 157.585 84.954 157.279 83.694 157.279C82.452 157.279 81.417 157.585 80.589 158.197C79.761 158.809 79.347 159.592 79.347 160.546C79.347 161.464 79.761 162.247 80.589 162.895C81.435 163.525 82.47 163.84 83.694 163.84ZM101.442 166V152.743H104.358V157.765L109.596 152.743H113.322L107.031 158.683L111.729 163.435H114.267V169.645H111.432V166H110.271L104.358 160.006V166H101.442ZM130.521 166V152.743H133.437V166H130.521ZM117.183 166V152.743H120.099V156.766H123.312C124.95 156.766 126.246 157.189 127.2 158.035C128.172 158.863 128.658 159.979 128.658 161.383C128.658 162.715 128.199 163.822 127.281 164.704C126.363 165.568 125.085 166 123.447 166H117.183ZM120.099 163.543H122.988C123.852 163.543 124.518 163.354 124.986 162.976C125.472 162.598 125.715 162.067 125.715 161.383C125.715 160.699 125.472 160.168 124.986 159.79C124.518 159.412 123.852 159.223 122.988 159.223H120.099V163.543ZM145.233 152.392C147.087 152.392 148.617 153.076 149.823 154.444C151.047 155.794 151.659 157.441 151.659 159.385C151.659 161.329 151.047 162.976 149.823 164.326C148.617 165.676 147.087 166.351 145.233 166.351C143.163 166.351 141.588 165.631 140.508 164.191V171.4H137.592V152.743H140.508V154.552C141.588 153.112 143.163 152.392 145.233 152.392ZM144.45 154.957C143.568 154.957 142.776 155.182 142.074 155.632C141.39 156.064 140.868 156.631 140.508 157.333V161.437C140.868 162.121 141.39 162.688 142.074 163.138C142.776 163.57 143.568 163.786 144.45 163.786C145.674 163.786 146.691 163.363 147.501 162.517C148.311 161.653 148.716 160.609 148.716 159.385C148.716 158.143 148.311 157.099 147.501 156.253C146.691 155.389 145.674 154.957 144.45 154.957ZM159.084 155.308L159.03 157.225C158.994 158.215 158.94 159.07 158.868 159.79C158.796 160.51 158.652 161.293 158.436 162.139C158.22 162.967 157.932 163.651 157.572 164.191C157.23 164.713 156.744 165.154 156.114 165.514C155.484 165.874 154.737 166.054 153.873 166.054C153.495 166.054 153.189 166.018 152.955 165.946V163.435C153.081 163.489 153.279 163.516 153.549 163.516C154.503 163.516 155.178 163.021 155.574 162.031C155.97 161.023 156.186 159.367 156.222 157.063L156.303 152.743H166.995V166H164.079V155.308H159.084ZM184.495 166V152.743H187.411V166H184.495ZM171.157 166V152.743H174.073V156.766H177.286C178.924 156.766 180.22 157.189 181.174 158.035C182.146 158.863 182.632 159.979 182.632 161.383C182.632 162.715 182.173 163.822 181.255 164.704C180.337 165.568 179.059 166 177.421 166H171.157ZM174.073 163.543H176.962C177.826 163.543 178.492 163.354 178.96 162.976C179.446 162.598 179.689 162.067 179.689 161.383C179.689 160.699 179.446 160.168 178.96 159.79C178.492 159.412 177.826 159.223 176.962 159.223H174.073V163.543ZM201.333 166V150.286L197.202 152.5V149.611L201.657 147.1H204.249V166H201.333ZM222.112 166.351C220.132 166.351 218.44 165.694 217.036 164.38C215.65 163.066 214.957 161.383 214.957 159.331C214.957 157.297 215.65 155.632 217.036 154.336C218.44 153.04 220.141 152.392 222.139 152.392C223.633 152.392 224.965 152.698 226.135 153.31V155.821C224.947 155.245 223.759 154.957 222.571 154.957C221.257 154.957 220.141 155.371 219.223 156.199C218.323 157.027 217.873 158.08 217.873 159.358C217.873 160.636 218.323 161.698 219.223 162.544C220.141 163.372 221.257 163.786 222.571 163.786C223.939 163.786 225.199 163.453 226.351 162.787V165.271C225.091 165.991 223.678 166.351 222.112 166.351ZM243.268 166V152.743H246.184V166H243.268ZM229.93 166V152.743H232.846V156.766H236.059C237.697 156.766 238.993 157.189 239.947 158.035C240.919 158.863 241.405 159.979 241.405 161.383C241.405 162.715 240.946 163.822 240.028 164.704C239.11 165.568 237.832 166 236.194 166H229.93ZM232.846 163.543H235.735C236.599 163.543 237.265 163.354 237.733 162.976C238.219 162.598 238.462 162.067 238.462 161.383C238.462 160.699 238.219 160.168 237.733 159.79C237.265 159.412 236.599 159.223 235.735 159.223H232.846V163.543ZM257.979 152.392C259.833 152.392 261.363 153.076 262.569 154.444C263.793 155.794 264.405 157.441 264.405 159.385C264.405 161.329 263.793 162.976 262.569 164.326C261.363 165.676 259.833 166.351 257.979 166.351C255.909 166.351 254.334 165.631 253.254 164.191V171.4H250.338V152.743H253.254V154.552C254.334 153.112 255.909 152.392 257.979 152.392ZM257.196 154.957C256.314 154.957 255.522 155.182 254.82 155.632C254.136 156.064 253.614 156.631 253.254 157.333V161.437C253.614 162.121 254.136 162.688 254.82 163.138C255.522 163.57 256.314 163.786 257.196 163.786C258.42 163.786 259.437 163.363 260.247 162.517C261.057 161.653 261.462 160.609 261.462 159.385C261.462 158.143 261.057 157.099 260.247 156.253C259.437 155.389 258.42 154.957 257.196 154.957ZM271.83 155.308L271.776 157.225C271.74 158.215 271.686 159.07 271.614 159.79C271.542 160.51 271.398 161.293 271.182 162.139C270.966 162.967 270.678 163.651 270.318 164.191C269.976 164.713 269.49 165.154 268.86 165.514C268.23 165.874 267.483 166.054 266.619 166.054C266.241 166.054 265.935 166.018 265.701 165.946V163.435C265.827 163.489 266.025 163.516 266.295 163.516C267.249 163.516 267.924 163.021 268.32 162.031C268.716 161.023 268.932 159.367 268.968 157.063L269.049 152.743H279.741V166H276.825V155.308H271.83ZM297.241 166V152.743H300.157V166H297.241ZM283.903 166V152.743H286.819V156.766H290.032C291.67 156.766 292.966 157.189 293.92 158.035C294.892 158.863 295.378 159.979 295.378 161.383C295.378 162.715 294.919 163.822 294.001 164.704C293.083 165.568 291.805 166 290.167 166H283.903ZM286.819 163.543H289.708C290.572 163.543 291.238 163.354 291.706 162.976C292.192 162.598 292.435 162.067 292.435 161.383C292.435 160.699 292.192 160.168 291.706 159.79C291.238 159.412 290.572 159.223 289.708 159.223H286.819V163.543ZM313.187 166V155.308H308.705V152.743H320.558V155.308H316.103V166H313.187ZM324.149 167.188V165.028H327.416L322.232 152.743H325.445L329.576 162.922L333.653 152.743H336.758L331.547 165.028H334.841V167.188H330.953V171.4H328.037V167.188H324.149ZM344.023 155.308L343.969 157.225C343.933 158.215 343.879 159.07 343.807 159.79C343.735 160.51 343.591 161.293 343.375 162.139C343.159 162.967 342.871 163.651 342.511 164.191C342.169 164.713 341.683 165.154 341.053 165.514C340.423 165.874 339.676 166.054 338.812 166.054C338.434 166.054 338.128 166.018 337.894 165.946V163.435C338.02 163.489 338.218 163.516 338.488 163.516C339.442 163.516 340.117 163.021 340.513 162.031C340.909 161.023 341.125 159.367 341.161 157.063L341.242 152.743H351.934V166H349.018V155.308H344.023ZM354.639 160.924V158.737H356.934V152.743H367.194V155.308H359.85V158.737H364.764V160.924H359.85V166H356.934V160.924H354.639ZM382.465 163.732C382.753 163.732 383.014 163.669 383.248 163.543V165.757C382.852 166.045 382.285 166.189 381.547 166.189C380.071 166.189 379.144 165.559 378.766 164.299C377.56 165.667 375.931 166.351 373.879 166.351C372.439 166.351 371.251 165.955 370.315 165.163C369.379 164.371 368.911 163.282 368.911 161.896C368.911 160.492 369.424 159.412 370.45 158.656C371.476 157.882 372.736 157.495 374.23 157.495C375.796 157.495 377.209 157.837 378.469 158.521V157.792C378.469 155.866 377.173 154.903 374.581 154.903C373.069 154.903 371.674 155.299 370.396 156.091V153.526C371.71 152.77 373.321 152.392 375.229 152.392C377.065 152.392 378.541 152.833 379.657 153.715C380.791 154.597 381.358 155.848 381.358 157.468V162.409C381.358 162.823 381.457 163.147 381.655 163.381C381.871 163.615 382.141 163.732 382.465 163.732ZM378.469 162.247V160.627C377.407 159.997 376.228 159.682 374.932 159.682C373.96 159.682 373.195 159.862 372.637 160.222C372.097 160.582 371.827 161.086 371.827 161.734C371.827 162.436 372.088 162.967 372.61 163.327C373.132 163.669 373.825 163.84 374.689 163.84C375.463 163.84 376.183 163.687 376.849 163.381C377.515 163.075 378.055 162.697 378.469 162.247ZM77.079 197V183.743H79.995V188.765L85.233 183.743H88.959L82.668 189.683L87.366 194.435H89.904V200.645H87.069V197H85.908L79.995 191.006V197H77.079ZM105.267 194.732C105.555 194.732 105.816 194.669 106.05 194.543V196.757C105.654 197.045 105.087 197.189 104.349 197.189C102.873 197.189 101.946 196.559 101.568 195.299C100.362 196.667 98.7332 197.351 96.6812 197.351C95.2412 197.351 94.0532 196.955 93.1172 196.163C92.1812 195.371 91.7132 194.282 91.7132 192.896C91.7132 191.492 92.2262 190.412 93.2522 189.656C94.2782 188.882 95.5382 188.495 97.0322 188.495C98.5982 188.495 100.011 188.837 101.271 189.521V188.792C101.271 186.866 99.9752 185.903 97.3832 185.903C95.8712 185.903 94.4762 186.299 93.1982 187.091V184.526C94.5122 183.77 96.1232 183.392 98.0312 183.392C99.8672 183.392 101.343 183.833 102.459 184.715C103.593 185.597 104.16 186.848 104.16 188.468V193.409C104.16 193.823 104.259 194.147 104.457 194.381C104.673 194.615 104.943 194.732 105.267 194.732ZM101.271 193.247V191.627C100.209 190.997 99.0302 190.682 97.7342 190.682C96.7622 190.682 95.9972 190.862 95.4392 191.222C94.8992 191.582 94.6292 192.086 94.6292 192.734C94.6292 193.436 94.8902 193.967 95.4122 194.327C95.9342 194.669 96.6272 194.84 97.4912 194.84C98.2652 194.84 98.9852 194.687 99.6512 194.381C100.317 194.075 100.857 193.697 101.271 193.247ZM113.548 186.308L113.494 188.225C113.458 189.215 113.404 190.07 113.332 190.79C113.26 191.51 113.116 192.293 112.9 193.139C112.684 193.967 112.396 194.651 112.036 195.191C111.694 195.713 111.208 196.154 110.578 196.514C109.948 196.874 109.201 197.054 108.337 197.054C107.959 197.054 107.653 197.018 107.419 196.946V194.435C107.545 194.489 107.743 194.516 108.013 194.516C108.967 194.516 109.642 194.021 110.038 193.031C110.434 192.023 110.65 190.367 110.686 188.063L110.767 183.743H121.459V197H118.543V186.308H113.548ZM138.959 197V183.743H141.875V197H138.959ZM125.621 197V183.743H128.537V187.766H131.75C133.388 187.766 134.684 188.189 135.638 189.035C136.61 189.863 137.096 190.979 137.096 192.383C137.096 193.715 136.637 194.822 135.719 195.704C134.801 196.568 133.523 197 131.885 197H125.621ZM128.537 194.543H131.426C132.29 194.543 132.956 194.354 133.424 193.976C133.91 193.598 134.153 193.067 134.153 192.383C134.153 191.699 133.91 191.168 133.424 190.79C132.956 190.412 132.29 190.223 131.426 190.223H128.537V194.543ZM146.029 197V183.743H158.395V197H155.479V186.308H148.945V197H146.029ZM165.504 197V186.308H161.022V183.743H172.875V186.308H168.42V197H165.504ZM187.981 194.732C188.269 194.732 188.53 194.669 188.764 194.543V196.757C188.368 197.045 187.801 197.189 187.063 197.189C185.587 197.189 184.66 196.559 184.282 195.299C183.076 196.667 181.447 197.351 179.395 197.351C177.955 197.351 176.767 196.955 175.831 196.163C174.895 195.371 174.427 194.282 174.427 192.896C174.427 191.492 174.94 190.412 175.966 189.656C176.992 188.882 178.252 188.495 179.746 188.495C181.312 188.495 182.725 188.837 183.985 189.521V188.792C183.985 186.866 182.689 185.903 180.097 185.903C178.585 185.903 177.19 186.299 175.912 187.091V184.526C177.226 183.77 178.837 183.392 180.745 183.392C182.581 183.392 184.057 183.833 185.173 184.715C186.307 185.597 186.874 186.848 186.874 188.468V193.409C186.874 193.823 186.973 194.147 187.171 194.381C187.387 194.615 187.657 194.732 187.981 194.732ZM183.985 193.247V191.627C182.923 190.997 181.744 190.682 180.448 190.682C179.476 190.682 178.711 190.862 178.153 191.222C177.613 191.582 177.343 192.086 177.343 192.734C177.343 193.436 177.604 193.967 178.126 194.327C178.648 194.669 179.341 194.84 180.205 194.84C180.979 194.84 181.699 194.687 182.365 194.381C183.031 194.075 183.571 193.697 183.985 193.247ZM197.854 197.351C195.874 197.351 194.182 196.694 192.778 195.38C191.392 194.066 190.699 192.383 190.699 190.331C190.699 188.297 191.392 186.632 192.778 185.336C194.182 184.04 195.883 183.392 197.881 183.392C199.375 183.392 200.707 183.698 201.877 184.31V186.821C200.689 186.245 199.501 185.957 198.313 185.957C196.999 185.957 195.883 186.371 194.965 187.199C194.065 188.027 193.615 189.08 193.615 190.358C193.615 191.636 194.065 192.698 194.965 193.544C195.883 194.372 196.999 194.786 198.313 194.786C199.681 194.786 200.941 194.453 202.093 193.787V196.271C200.833 196.991 199.42 197.351 197.854 197.351ZM208.615 197V186.308H204.133V183.743H215.986V186.308H211.531V197H208.615ZM231.982 197V183.743H234.898V197H231.982ZM218.644 197V183.743H221.56V187.766H224.773C226.411 187.766 227.707 188.189 228.661 189.035C229.633 189.863 230.119 190.979 230.119 192.383C230.119 193.715 229.66 194.822 228.742 195.704C227.824 196.568 226.546 197 224.908 197H218.644ZM221.56 194.543H224.449C225.313 194.543 225.979 194.354 226.447 193.976C226.933 193.598 227.176 193.067 227.176 192.383C227.176 191.699 226.933 191.168 226.447 190.79C225.979 190.412 225.313 190.223 224.449 190.223H221.56V194.543ZM246.694 183.392C248.548 183.392 250.078 184.076 251.284 185.444C252.508 186.794 253.12 188.441 253.12 190.385C253.12 192.329 252.508 193.976 251.284 195.326C250.078 196.676 248.548 197.351 246.694 197.351C244.624 197.351 243.049 196.631 241.969 195.191V202.4H239.053V183.743H241.969V185.552C243.049 184.112 244.624 183.392 246.694 183.392ZM245.911 185.957C245.029 185.957 244.237 186.182 243.535 186.632C242.851 187.064 242.329 187.631 241.969 188.333V192.437C242.329 193.121 242.851 193.688 243.535 194.138C244.237 194.57 245.029 194.786 245.911 194.786C247.135 194.786 248.152 194.363 248.962 193.517C249.772 192.653 250.177 191.609 250.177 190.385C250.177 189.143 249.772 188.099 248.962 187.253C248.152 186.389 247.135 185.957 245.911 185.957ZM257.251 202.535C256.153 202.535 255.352 202.391 254.848 202.103V199.538C255.442 199.826 256.081 199.97 256.765 199.97C257.521 199.97 258.151 199.691 258.655 199.133C259.177 198.593 259.69 197.72 260.194 196.514L254.389 183.743H257.629L261.625 193.085L265.486 183.743H268.645L262.3 198.431C261.094 201.167 259.411 202.535 257.251 202.535Z" fill="black"/>
<defs>
<filter id="filter0_ii_4282_1005" x="45" y="104" width="486" height="132" filterUnits="userSpaceOnUse" color-interpolation-filters="sRGB">
<feFlood flood-opacity="0" result="BackgroundImageFix"/>
<feBlend mode="normal" in="SourceGraphic" in2="BackgroundImageFix" result="shape"/>
<feColorMatrix in="SourceAlpha" type="matrix" values="0 0 0 0 0 0 0 0 0 0 0 0 0 0 0 0 0 0 127 0" result="hardAlpha"/>
<feOffset dy="-6"/>
<feGaussianBlur stdDeviation="15"/>
<feComposite in2="hardAlpha" operator="arithmetic" k2="-1" k3="1"/>
<feColorMatrix type="matrix" values="0 0 0 0 0 0 0 0 0 0 0 0 0 0 0 0 0 0 0.13 0"/>
<feBlend mode="normal" in2="shape" result="effect1_innerShadow_4282_1005"/>
<feColorMatrix in="SourceAlpha" type="matrix" values="0 0 0 0 0 0 0 0 0 0 0 0 0 0 0 0 0 0 127 0" result="hardAlpha"/>
<feOffset dy="2"/>
<feGaussianBlur stdDeviation="6"/>
<feComposite in2="hardAlpha" operator="arithmetic" k2="-1" k3="1"/>
<feColorMatrix type="matrix" values="0 0 0 0 0 0 0 0 0 0 0 0 0 0 0 0 0 0 0.25 0"/>
<feBlend mode="normal" in2="effect1_innerShadow_4282_1005" result="effect2_innerShadow_4282_1005"/>
</filter>
<linearGradient id="paint0_linear_4282_1005" x1="441.905" y1="333" x2="190.253" y2="358.888" gradientUnits="userSpaceOnUse">
<stop stop-color="#6ADAFF"/>
<stop offset="1" stop-color="#00B0EA"/>
</linearGradient>
</defs>
</svg>
