<svg width="196" height="179" viewBox="0 0 196 179" fill="none" xmlns="http://www.w3.org/2000/svg">
<rect x="54.0078" y="89.8906" width="50" height="50" transform="rotate(-45.8523 54.0078 89.8906)" fill="url(#paint0_linear_3704_628)"/>
<path d="M38.6211 40.1172L88.6156 39.3734L88.9874 64.3707C89.1928 78.1763 78.1677 89.5344 64.3621 89.7398L39.3649 90.1117L38.6211 40.1172Z" fill="white"/>
<path d="M88.6211 39.3711L138.616 38.6273L139.359 88.6218L114.362 88.9937C100.556 89.1991 89.1984 78.1739 88.993 64.3683L88.6211 39.3711Z" fill="white"/>
<path d="M89.7332 114.361C89.5278 100.555 100.553 89.1968 114.359 88.9914L139.356 88.6195L140.1 138.614L90.1051 139.358L89.7332 114.361Z" fill="white"/>
<path d="M39.3652 90.1055L64.3625 89.7336C78.1681 89.5282 89.5262 100.553 89.7316 114.359L90.1035 139.356L40.109 140.1L39.3652 90.1055Z" fill="white"/>
<path d="M193.5 34L189.506 38.1689L195.113 39.5435L193.5 34ZM121.5 91.5C148.528 91.5 183.419 72.0831 192.91 38.5048L191.948 38.2328C182.6 71.3033 148.167 90.5 121.5 90.5V91.5Z" fill="black"/>
<defs>
<linearGradient id="paint0_linear_3704_628" x1="54.0078" y1="139.891" x2="108.383" y2="134.566" gradientUnits="userSpaceOnUse">
<stop stop-color="#6ADAFF"/>
<stop offset="1" stop-color="#00B0EA"/>
</linearGradient>
</defs>
</svg>
