<svg width="345" height="286" viewBox="0 0 345 286" fill="none" xmlns="http://www.w3.org/2000/svg">
<path d="M48.8727 0H345V23.0852H48.8727V0Z" fill="#16B9EF"/>
<path d="M80.3483 26.2915H345V49.3767H80.3483V26.2915Z" fill="#16B9EF"/>
<path d="M292.327 52.583H345V75.6682H292.327V52.583Z" fill="#16B9EF"/>
<path d="M277.552 78.8744H345V101.96H277.552V78.8744Z" fill="#16B9EF"/>
<path d="M256.355 105.166H345V128.251H256.355V105.166Z" fill="#16B9EF"/>
<path d="M312.882 131.457H345V154.543H312.882V131.457Z" fill="#16B9EF"/>
<path d="M304.531 157.749H345V180.834H304.531V157.749Z" fill="#16B9EF"/>
<path d="M262.136 184.04H345V207.126H262.136V184.04Z" fill="#16B9EF"/>
<path d="M288.472 210.332H345V233.417H288.472V210.332Z" fill="#16B9EF"/>
<path d="M274.341 236.623H345V259.709H274.341V236.623Z" fill="#16B9EF"/>
<path d="M262.136 262.915H345V286H262.136V262.915Z" fill="#16B9EF"/>
<path d="M64.7486 18.1783C63.2087 18.1783 61.9978 17.6452 61.1161 16.579C60.2343 15.5004 59.7935 14.0003 59.7935 12.0787C59.7935 9.9711 60.3027 8.21684 61.321 6.81591C62.3394 5.41498 63.7303 4.71451 65.4938 4.71451C66.537 4.71451 67.4622 4.98106 68.2694 5.51416V6.94608C67.4622 6.40059 66.5804 6.12784 65.6242 6.12784C64.8914 6.12784 64.2395 6.27661 63.6682 6.57415C63.1093 6.8717 62.6623 7.28082 62.3269 7.80152C61.9916 8.30982 61.737 8.87391 61.5632 9.49379C61.3893 10.1013 61.2962 10.7459 61.2837 11.4278C61.6191 10.8699 62.1096 10.4298 62.7554 10.1075C63.4012 9.77273 64.1525 9.60537 65.0094 9.60537C66.1768 9.60537 67.1703 9.99589 67.99 10.7769C68.8096 11.5456 69.2194 12.5374 69.2194 13.7524C69.2194 15.0417 68.791 16.1017 67.9341 16.9324C67.0772 17.763 66.0154 18.1783 64.7486 18.1783ZM64.6741 16.765C65.5434 16.765 66.2699 16.486 66.8536 15.9281C67.4373 15.3579 67.7292 14.6388 67.7292 13.771C67.7292 12.9155 67.4311 12.2275 66.835 11.7068C66.2513 11.1861 65.5186 10.9257 64.6369 10.9257C63.8917 10.9257 63.2025 11.1551 62.5691 11.6138C61.9482 12.0725 61.5259 12.649 61.3024 13.3432C61.4017 14.4342 61.737 15.2773 62.3083 15.8724C62.8796 16.4674 63.6682 16.765 64.6741 16.765Z" fill="white"/>
<path d="M72.3048 17.9552L78.1913 6.3138H71.2616V4.93767H79.9238V6.07205L73.9068 17.9552H72.3048Z" fill="white"/>
<path d="M96.2242 44.4698C94.6842 44.4698 93.4734 43.9367 92.5917 42.8705C91.7099 41.7919 91.269 40.2918 91.269 38.3702C91.269 36.2626 91.7782 34.5083 92.7966 33.1074C93.8149 31.7065 95.2058 31.006 96.9693 31.006C98.0125 31.006 98.9377 31.2725 99.745 31.8056V33.2376C98.9377 32.6921 98.056 32.4193 97.0997 32.4193C96.367 32.4193 95.715 32.5681 95.1437 32.8656C94.5849 33.1632 94.1378 33.5723 93.8025 34.093C93.4672 34.6013 93.2126 35.1654 93.0387 35.7853C92.8649 36.3928 92.7717 37.0374 92.7593 37.7193C93.0946 37.1614 93.5852 36.7213 94.2309 36.399C94.8767 36.0642 95.6281 35.8968 96.485 35.8968C97.6524 35.8968 98.6459 36.2874 99.4655 37.0684C100.285 37.8371 100.695 38.8289 100.695 40.0438C100.695 41.3332 100.267 42.3932 99.4097 43.2238C98.5527 44.0545 97.4909 44.4698 96.2242 44.4698ZM96.1497 43.0565C97.019 43.0565 97.7455 42.7775 98.3292 42.2196C98.9129 41.6493 99.2047 40.9303 99.2047 40.0624C99.2047 39.207 98.9067 38.5189 98.3106 37.9982C97.7269 37.4775 96.9942 37.2172 96.1124 37.2172C95.3673 37.2172 94.678 37.4465 94.0447 37.9053C93.4237 38.364 93.0015 38.9405 92.7779 39.6347C92.8773 40.7257 93.2126 41.5688 93.7839 42.1638C94.3551 42.7589 95.1438 43.0565 96.1497 43.0565Z" fill="white"/>
<path d="M112.387 42.5358C111.393 43.8251 110.102 44.4698 108.512 44.4698C106.922 44.4698 105.625 43.8251 104.619 42.5358C103.625 41.234 103.128 39.6347 103.128 37.7379C103.128 35.8411 103.625 34.248 104.619 32.9586C105.625 31.6569 106.922 31.006 108.512 31.006C110.102 31.006 111.393 31.6569 112.387 32.9586C113.38 34.248 113.877 35.8411 113.877 37.7379C113.877 39.6347 113.38 41.234 112.387 42.5358ZM105.736 41.5316C106.457 42.5482 107.382 43.0565 108.512 43.0565C109.642 43.0565 110.567 42.5482 111.288 41.5316C112.008 40.515 112.368 39.2504 112.368 37.7379C112.368 36.2254 112.008 34.9608 111.288 33.9442C110.567 32.9276 109.642 32.4193 108.512 32.4193C107.382 32.4193 106.457 32.9276 105.736 33.9442C105.016 34.9608 104.656 36.2254 104.656 37.7379C104.656 39.2504 105.016 40.515 105.736 41.5316Z" fill="white"/>
<path d="M305.483 70.5381V59.1571L302.558 60.7936V59.3431L305.632 57.5206H306.973V70.5381H305.483Z" fill="white"/>
<path d="M309.749 70.5381V69.4223L314.089 65.3125C315.045 64.4075 315.716 63.6698 316.101 63.0996C316.486 62.5293 316.678 61.897 316.678 61.2027C316.678 60.4465 316.418 59.8452 315.896 59.3989C315.374 58.9402 314.673 58.7108 313.791 58.7108C312.45 58.7108 311.208 59.2811 310.065 60.4217V58.748C311.121 57.781 312.412 57.2975 313.94 57.2975C315.145 57.2975 316.157 57.6446 316.976 58.3389C317.796 59.0207 318.206 59.9134 318.206 61.0168C318.206 61.897 317.989 62.6904 317.554 63.3971C317.119 64.0914 316.374 64.9406 315.319 65.9448L311.947 69.162H318.672V70.5381H309.749Z" fill="white"/>
<path d="M290.708 96.8296V85.4486L287.784 87.0851V85.6346L290.858 83.8121H292.199V96.8296H290.708Z" fill="white"/>
<path d="M298.905 97.0528C297.489 97.0528 296.285 96.7676 295.291 96.1973V94.691C296.322 95.3233 297.514 95.6394 298.868 95.6394C299.936 95.6394 300.817 95.3667 301.513 94.8212C302.221 94.2757 302.575 93.569 302.575 92.7012C302.575 91.8582 302.246 91.1639 301.587 90.6184C300.929 90.0729 300.054 89.8002 298.961 89.8002C297.918 89.8002 296.874 89.9799 295.831 90.3394L296.688 83.8121H303.19V85.1882H297.825L297.322 88.7588C297.905 88.61 298.57 88.5356 299.315 88.5356C300.693 88.5356 301.836 88.9261 302.742 89.7072C303.649 90.4882 304.102 91.4862 304.102 92.7012C304.102 94.0029 303.606 95.0567 302.612 95.8626C301.619 96.656 300.383 97.0528 298.905 97.0528Z" fill="white"/>
<path d="M266.791 123.121V122.005L271.131 117.895C272.088 116.99 272.758 116.253 273.143 115.683C273.528 115.112 273.721 114.48 273.721 113.786C273.721 113.029 273.46 112.428 272.938 111.982C272.417 111.523 271.715 111.294 270.833 111.294C269.492 111.294 268.25 111.864 267.108 113.005V111.331C268.163 110.364 269.455 109.88 270.982 109.88C272.187 109.88 273.199 110.228 274.019 110.922C274.838 111.604 275.248 112.496 275.248 113.6C275.248 114.48 275.031 115.273 274.596 115.98C274.162 116.674 273.416 117.524 272.361 118.528L268.989 121.745H275.714V123.121H266.791Z" fill="white"/>
<path d="M287.174 121.41C286.18 122.7 284.889 123.344 283.299 123.344C281.71 123.344 280.412 122.7 279.406 121.41C278.412 120.108 277.916 118.509 277.916 116.612C277.916 114.716 278.412 113.122 279.406 111.833C280.412 110.531 281.71 109.88 283.299 109.88C284.889 109.88 286.18 110.531 287.174 111.833C288.168 113.122 288.664 114.716 288.664 116.612C288.664 118.509 288.168 120.108 287.174 121.41ZM280.524 120.406C281.244 121.423 282.169 121.931 283.299 121.931C284.429 121.931 285.355 121.423 286.075 120.406C286.795 119.389 287.155 118.125 287.155 116.612C287.155 115.1 286.795 113.835 286.075 112.819C285.355 111.802 284.429 111.294 283.299 111.294C282.169 111.294 281.244 111.802 280.524 112.819C279.803 113.835 279.443 115.1 279.443 116.612C279.443 118.125 279.803 119.389 280.524 120.406Z" fill="white"/>
<path d="M319.884 149.413L325.77 137.771H318.841V136.395H327.503V137.529L321.486 149.413H319.884Z" fill="white"/>
<path d="M319.923 162.463C321.463 162.463 322.674 163.003 323.555 164.081C324.437 165.147 324.878 166.641 324.878 168.563C324.878 170.671 324.369 172.425 323.351 173.826C322.332 175.227 320.941 175.927 319.178 175.927C318.135 175.927 317.209 175.661 316.402 175.128V173.696C317.209 174.241 318.091 174.514 319.047 174.514C319.78 174.514 320.426 174.365 320.985 174.068C321.556 173.77 322.009 173.367 322.345 172.859C322.68 172.338 322.935 171.774 323.108 171.167C323.282 170.547 323.375 169.896 323.388 169.214C323.053 169.772 322.562 170.218 321.916 170.553C321.27 170.875 320.519 171.036 319.662 171.036C318.482 171.036 317.483 170.652 316.663 169.883C315.856 169.102 315.452 168.104 315.452 166.889C315.452 165.6 315.881 164.54 316.737 163.709C317.594 162.879 318.656 162.463 319.923 162.463ZM319.997 163.877C319.128 163.877 318.402 164.162 317.818 164.732C317.234 165.29 316.942 166.003 316.942 166.871C316.942 167.726 317.234 168.414 317.818 168.935C318.414 169.456 319.153 169.716 320.035 169.716C320.78 169.716 321.463 169.487 322.084 169.028C322.717 168.569 323.146 167.993 323.369 167.298C323.27 166.207 322.935 165.364 322.363 164.769C321.792 164.174 321.003 163.877 319.997 163.877Z" fill="white"/>
<path d="M275.292 201.996V190.615L272.367 192.251V190.8L275.441 188.978H276.782V201.996H275.292Z" fill="white"/>
<path d="M284.513 188.755C286.053 188.755 287.264 189.294 288.145 190.373C289.027 191.439 289.468 192.933 289.468 194.855C289.468 196.962 288.959 198.716 287.941 200.117C286.922 201.518 285.531 202.219 283.768 202.219C282.725 202.219 281.799 201.952 280.992 201.419V199.987C281.799 200.533 282.681 200.805 283.637 200.805C284.37 200.805 285.016 200.657 285.575 200.359C286.146 200.061 286.599 199.659 286.935 199.15C287.27 198.63 287.525 198.065 287.698 197.458C287.872 196.838 287.965 196.187 287.978 195.505C287.643 196.063 287.152 196.51 286.506 196.844C285.86 197.167 285.109 197.328 284.252 197.328C283.072 197.328 282.073 196.943 281.253 196.175C280.446 195.394 280.042 194.396 280.042 193.181C280.042 191.891 280.471 190.831 281.327 190.001C282.184 189.17 283.246 188.755 284.513 188.755ZM284.587 190.168C283.718 190.168 282.992 190.453 282.408 191.024C281.824 191.582 281.532 192.294 281.532 193.162C281.532 194.018 281.824 194.706 282.408 195.226C283.004 195.747 283.743 196.007 284.625 196.007C285.37 196.007 286.053 195.778 286.674 195.319C287.307 194.861 287.736 194.284 287.959 193.59C287.86 192.499 287.525 191.656 286.953 191.061C286.382 190.466 285.593 190.168 284.587 190.168Z" fill="white"/>
<path d="M301.629 228.287V216.906L298.704 218.542V217.092L301.778 215.27H303.119V228.287H301.629Z" fill="white"/>
<path d="M309.676 228.51C308.136 228.51 306.863 228.194 305.857 227.562V226C306.9 226.731 308.142 227.097 309.583 227.097C310.564 227.097 311.402 226.836 312.098 226.316C312.806 225.783 313.16 225.057 313.16 224.14C313.16 223.272 312.849 222.578 312.228 222.057C311.62 221.537 310.781 221.276 309.713 221.276C309.167 221.276 308.67 221.344 308.223 221.481V220.439L312.154 216.646H306.379V215.27H314.184V216.404L310.403 220.086C311.533 220.136 312.526 220.532 313.383 221.276C314.24 222.008 314.668 222.962 314.668 224.14C314.668 225.442 314.19 226.496 313.234 227.301C312.278 228.107 311.092 228.51 309.676 228.51Z" fill="white"/>
<path d="M287.497 254.578V243.197L284.572 244.834V243.383L287.646 241.561H288.987V254.578H287.497Z" fill="white"/>
<path d="M297.202 254.802C295.662 254.802 294.451 254.269 293.57 253.202C292.688 252.124 292.247 250.624 292.247 248.702C292.247 246.594 292.756 244.84 293.774 243.439C294.793 242.038 296.184 241.338 297.947 241.338C298.99 241.338 299.916 241.604 300.723 242.137V243.569C299.916 243.024 299.034 242.751 298.078 242.751C297.345 242.751 296.693 242.9 296.122 243.197C295.563 243.495 295.116 243.904 294.78 244.425C294.445 244.933 294.19 245.497 294.017 246.117C293.843 246.725 293.75 247.369 293.737 248.051C294.073 247.493 294.563 247.053 295.209 246.731C295.855 246.396 296.606 246.229 297.463 246.229C298.63 246.229 299.624 246.619 300.443 247.4C301.263 248.169 301.673 249.161 301.673 250.376C301.673 251.665 301.244 252.725 300.388 253.556C299.531 254.386 298.469 254.802 297.202 254.802ZM297.128 253.388C297.997 253.388 298.723 253.109 299.307 252.551C299.891 251.981 300.183 251.262 300.183 250.394C300.183 249.539 299.885 248.851 299.288 248.33C298.705 247.809 297.972 247.549 297.09 247.549C296.345 247.549 295.656 247.778 295.023 248.237C294.402 248.696 293.979 249.272 293.756 249.967C293.855 251.058 294.19 251.901 294.762 252.496C295.333 253.091 296.122 253.388 297.128 253.388Z" fill="white"/>
<path d="M275.292 280.87V269.489L272.367 271.125V269.675L275.441 267.852H276.782V280.87H275.292Z" fill="white"/>
<path d="M284.513 267.629C286.053 267.629 287.264 268.169 288.145 269.247C289.027 270.313 289.468 271.807 289.468 273.729C289.468 275.837 288.959 277.591 287.941 278.992C286.922 280.393 285.531 281.093 283.768 281.093C282.725 281.093 281.799 280.827 280.992 280.293V278.862C281.799 279.407 282.681 279.68 283.637 279.68C284.37 279.68 285.016 279.531 285.575 279.233C286.146 278.936 286.599 278.533 286.935 278.025C287.27 277.504 287.525 276.94 287.698 276.332C287.872 275.713 287.965 275.062 287.978 274.38C287.643 274.938 287.152 275.384 286.506 275.719C285.86 276.041 285.109 276.202 284.252 276.202C283.072 276.202 282.073 275.818 281.253 275.049C280.446 274.268 280.042 273.27 280.042 272.055C280.042 270.766 280.471 269.706 281.327 268.875C282.184 268.045 283.246 267.629 284.513 267.629ZM284.587 269.043C283.718 269.043 282.992 269.328 282.408 269.898C281.824 270.456 281.532 271.169 281.532 272.037C281.532 272.892 281.824 273.58 282.408 274.101C283.004 274.622 283.743 274.882 284.625 274.882C285.37 274.882 286.053 274.653 286.674 274.194C287.307 273.735 287.736 273.159 287.959 272.464C287.86 271.373 287.525 270.53 286.953 269.935C286.382 269.34 285.593 269.043 284.587 269.043Z" fill="white"/>
<path d="M4.84338 18.1783C2.89361 18.1783 1.27915 17.7196 0 16.8022V15.1285C0.496757 15.5624 1.1798 15.9467 2.04912 16.2815C2.93087 16.6038 3.83124 16.765 4.75024 16.765C5.74376 16.765 6.5634 16.5542 7.20919 16.1327C7.85497 15.7112 8.17787 15.1409 8.17787 14.4218C8.17787 14.1119 8.10956 13.8392 7.97295 13.6036C7.84876 13.3556 7.69974 13.1511 7.52587 12.9899C7.36443 12.8287 7.09742 12.6738 6.72485 12.525C6.3647 12.3638 6.04802 12.2399 5.7748 12.1531C5.51401 12.0663 5.1166 11.9485 4.58259 11.7997C3.86229 11.6014 3.29102 11.4278 2.86877 11.279C2.44653 11.1179 2.00566 10.9009 1.54616 10.6282C1.09908 10.343 0.769974 9.99589 0.558852 9.58677C0.34773 9.17765 0.242169 8.68794 0.242169 8.11765C0.242169 7.12585 0.645784 6.3138 1.45301 5.68152C2.26025 5.03685 3.37795 4.71451 4.80613 4.71451C6.37091 4.71451 7.73078 5.07404 8.88574 5.7931V7.3366C7.60659 6.53076 6.25914 6.12784 4.84338 6.12784C3.82503 6.12784 3.06127 6.32 2.55209 6.70433C2.04291 7.08865 1.78833 7.57216 1.78833 8.15485C1.78833 8.31602 1.80695 8.47099 1.84421 8.61976C1.88147 8.75613 1.94356 8.88631 2.03049 9.01028C2.12985 9.12186 2.21678 9.22104 2.29129 9.30782C2.36581 9.39461 2.49621 9.48759 2.68249 9.58677C2.86877 9.67355 3.01159 9.74794 3.11094 9.80993C3.21029 9.85952 3.38416 9.92771 3.63254 10.0145C3.89333 10.0889 4.07341 10.1447 4.17276 10.1819C4.28453 10.2067 4.48944 10.2624 4.7875 10.3492C5.09797 10.436 5.30288 10.4918 5.40223 10.5166C5.93625 10.6778 6.35849 10.8203 6.66897 10.9443C6.99186 11.0559 7.37064 11.2233 7.8053 11.4464C8.23996 11.6696 8.57527 11.9051 8.81123 12.1531C9.05961 12.401 9.27073 12.7234 9.4446 13.1201C9.63088 13.5044 9.72402 13.9321 9.72402 14.4032C9.72402 15.581 9.2521 16.5046 8.30826 17.1741C7.37684 17.8436 6.22188 18.1783 4.84338 18.1783Z" fill="#212121"/>
<path d="M12.6287 17.9552V4.93767H16.9505C19.0493 4.93767 20.7507 5.53895 22.0547 6.74152C23.3711 7.94409 24.0293 9.51238 24.0293 11.4464C24.0293 13.3804 23.3711 14.9487 22.0547 16.1513C20.7507 17.3539 19.0493 17.9552 16.9505 17.9552H12.6287ZM14.1376 16.579H16.7829C18.5464 16.579 19.9373 16.1203 20.9556 15.2029C21.974 14.2731 22.4832 13.0209 22.4832 11.4464C22.4832 9.87192 21.974 8.62596 20.9556 7.70853C19.9373 6.77871 18.5464 6.3138 16.7829 6.3138H14.1376V16.579Z" fill="#212121"/>
<path d="M36.1437 16.6906C35.1502 17.6824 33.8587 18.1783 32.269 18.1783C30.6794 18.1783 29.3878 17.6824 28.3943 16.6906C27.4132 15.6864 26.9227 14.2607 26.9227 12.4134V4.93767H28.4316V12.4506C28.4316 13.8268 28.7793 14.8929 29.4748 15.6492C30.1702 16.3931 31.1017 16.765 32.269 16.765C33.4488 16.765 34.3865 16.3931 35.0819 15.6492C35.7774 14.8929 36.1251 13.8268 36.1251 12.4506V4.93767H37.634V12.4134C37.634 14.2607 37.1373 15.6864 36.1437 16.6906Z" fill="#212121"/>
<path d="M14.5052 31.2291V36.8081L20.3918 31.2291H22.3851L16.0514 37.18L23.3724 44.2466H21.286L14.5052 37.7193V44.2466H12.9963V31.2291H14.5052Z" fill="#212121"/>
<path d="M28.1978 43.1495C28.8312 43.1495 29.4149 43.0131 29.9489 42.7403C30.4953 42.4676 30.9238 42.1328 31.2343 41.7361V40.5088C30.3898 39.9509 29.4459 39.6719 28.4028 39.6719C27.6079 39.6719 26.9808 39.8269 26.5213 40.1368C26.0742 40.4344 25.8507 40.8559 25.8507 41.4014C25.8507 41.9841 26.0742 42.4242 26.5213 42.7217C26.9684 43.0069 27.5272 43.1495 28.1978 43.1495ZM27.788 44.4698C26.8318 44.4698 26.0183 44.2032 25.3477 43.6701C24.6895 43.1371 24.3604 42.4056 24.3604 41.4758C24.3604 40.546 24.7081 39.8207 25.4036 39.3C26.1115 38.7669 26.9932 38.5003 28.0488 38.5003C29.2783 38.5003 30.3401 38.7793 31.2343 39.3372V38.5189C31.2343 37.056 30.2656 36.3246 28.3282 36.3246C27.2726 36.3246 26.2915 36.6221 25.385 37.2172V35.8225C26.2915 35.277 27.3782 35.0042 28.6449 35.0042C29.862 35.0042 30.8431 35.2894 31.5882 35.8597C32.3333 36.4299 32.7059 37.2668 32.7059 38.3702V41.9221C32.7059 42.7031 32.9853 43.0937 33.5442 43.0937C33.7677 43.0937 33.9416 43.0503 34.0658 42.9635V44.1165C33.8422 44.2652 33.5256 44.3396 33.1157 44.3396C32.1595 44.3396 31.582 43.8685 31.3833 42.9263C30.4643 43.9553 29.2659 44.4698 27.788 44.4698Z" fill="#212121"/>
<path d="M39.1276 44.4698C37.7988 44.4698 36.6811 44.2652 35.7745 43.8561V42.4242C36.7059 42.9077 37.7553 43.1495 38.9227 43.1495C40.8476 43.1495 41.8101 42.6225 41.8101 41.5688C41.8101 40.6265 41.0277 40.1554 39.4629 40.1554H37.8609V38.8909H39.4629C40.1584 38.8909 40.6676 38.7793 40.9905 38.5561C41.3258 38.3206 41.4934 38.0168 41.4934 37.6449C41.4934 36.7647 40.6676 36.3246 39.0158 36.3246C38.0099 36.3246 37.0226 36.5291 36.0539 36.9382V35.5993C36.9605 35.2026 38.0472 35.0042 39.3139 35.0042C40.3447 35.0042 41.214 35.2274 41.9219 35.6737C42.6297 36.1076 42.9837 36.6779 42.9837 37.3846C42.9837 37.9672 42.8533 38.4012 42.5925 38.6863C42.3317 38.9715 41.984 39.2132 41.5493 39.4116C42.7539 39.7835 43.3563 40.5398 43.3563 41.6803C43.3563 42.511 42.9713 43.1866 42.2013 43.7073C41.4313 44.2156 40.4068 44.4698 39.1276 44.4698Z" fill="#212121"/>
<path d="M46.2509 44.2466V31.2291H47.7598V36.5849H55.323V31.2291H56.8319V44.2466H55.323V37.961H47.7598V44.2466H46.2509Z" fill="#212121"/>
<path d="M61.9312 44.4698C61.2358 44.4698 60.6769 44.383 60.2547 44.2094V42.7961C60.6521 42.9697 61.1302 43.0565 61.6891 43.0565C61.9995 43.0565 62.2728 43.0069 62.5087 42.9077C62.7571 42.7961 62.9869 42.604 63.198 42.3312C63.4215 42.0461 63.5954 41.7981 63.7196 41.5873C63.8438 41.3766 64.03 41.0357 64.2784 40.5645L59.0625 31.2291H60.739L65.0422 38.9839L68.6188 31.2291H70.2209L65.4148 41.4944C64.8932 42.5854 64.3467 43.354 63.7755 43.8003C63.2166 44.2466 62.6019 44.4698 61.9312 44.4698Z" fill="#212121"/>
<path d="M154.36 70.5381L160.154 57.4462H161.588L167.382 70.5381H165.78L164.196 67.0234H157.49L155.944 70.5381H154.36ZM158.012 65.6845H163.712L160.862 59.3431L158.012 65.6845Z" fill="#212121"/>
<path d="M173.383 70.7613C172.017 70.7613 170.869 70.3088 169.937 69.4037C169.018 68.4987 168.559 67.3705 168.559 66.0192C168.559 64.6555 169.018 63.5273 169.937 62.6346C170.869 61.742 172.024 61.2957 173.402 61.2957C174.445 61.2957 175.352 61.5127 176.122 61.9466V63.2855C175.327 62.8392 174.489 62.616 173.607 62.616C172.613 62.616 171.775 62.9384 171.092 63.5831C170.409 64.2277 170.068 65.046 170.068 66.0378C170.068 67.0172 170.409 67.8292 171.092 68.4739C171.775 69.1186 172.613 69.4409 173.607 69.4409C174.625 69.4409 175.519 69.1868 176.289 68.6785V69.9988C175.445 70.5071 174.476 70.7613 173.383 70.7613Z" fill="#212121"/>
<path d="M183.306 57.5206H184.778V61.3701C186.405 61.4445 187.672 61.897 188.578 62.7276C189.497 63.5583 189.957 64.6617 189.957 66.0378C189.957 67.4139 189.491 68.5235 188.559 69.3665C187.64 70.1972 186.38 70.6373 184.778 70.6869V74.2574H183.306V70.6869C181.717 70.6621 180.456 70.222 179.525 69.3665C178.593 68.5111 178.128 67.4015 178.128 66.0378C178.128 64.6741 178.587 63.5769 179.506 62.7462C180.437 61.9032 181.704 61.4445 183.306 61.3701V57.5206ZM188.504 66.0378C188.504 64.984 188.15 64.1595 187.442 63.5645C186.746 62.957 185.858 62.6532 184.778 62.6532V69.4037C185.858 69.4037 186.746 69.1062 187.442 68.5111C188.15 67.9036 188.504 67.0792 188.504 66.0378ZM179.581 66.0378C179.581 67.0792 179.928 67.9036 180.624 68.5111C181.332 69.1062 182.226 69.4037 183.306 69.4037V62.6532C182.226 62.6532 181.332 62.957 180.624 63.5645C179.928 64.1595 179.581 64.984 179.581 66.0378Z" fill="#212121"/>
<path d="M196.709 70.7613C195.305 70.7613 194.126 70.3212 193.169 69.4409C192.213 68.5483 191.735 67.4139 191.735 66.0378C191.735 64.6741 192.157 63.5459 193.002 62.6532C193.859 61.7482 194.97 61.2957 196.336 61.2957C197.044 61.2957 197.677 61.4445 198.236 61.742C198.808 62.0272 199.255 62.4053 199.578 62.8764C199.9 63.3475 200.143 63.8496 200.304 64.3827C200.478 64.9158 200.565 65.4551 200.565 66.0006V66.4097H193.244C193.343 67.3395 193.728 68.0772 194.399 68.6227C195.082 69.1682 195.951 69.4409 197.007 69.4409C198.05 69.4409 199.019 69.162 199.913 68.6041V69.9058C199.155 70.4761 198.087 70.7613 196.709 70.7613ZM193.263 65.2195H199.075C199.037 64.5625 198.783 63.9674 198.311 63.4343C197.851 62.8888 197.168 62.616 196.262 62.616C195.392 62.616 194.685 62.8764 194.138 63.3971C193.604 63.9054 193.312 64.5129 193.263 65.2195Z" fill="#212121"/>
<path d="M203.593 70.5381V61.5189H205.083V65.2567H210.43V61.5189H211.901V70.5381H210.43V66.5771H205.083V70.5381H203.593Z" fill="#212121"/>
<path d="M213.881 73.1602V69.255H215.018C215.564 68.5235 215.949 67.5627 216.173 66.3725C216.409 65.1823 216.527 63.5645 216.527 61.5189H223.326V69.255H224.984V73.1602H223.568V70.5381H215.297V73.1602H213.881ZM216.638 69.255H221.854V62.802H217.886C217.886 65.7278 217.47 67.8788 216.638 69.255Z" fill="#212121"/>
<path d="M227.152 70.5381V61.5189H228.642V68.3809L234.23 61.5189H235.609V70.5381H234.119V63.6946L228.53 70.5381H227.152Z" fill="#212121"/>
<path d="M238.014 70.5381L240.677 66.949C239.187 66.6639 238.442 65.7774 238.442 64.2897C238.442 63.4839 238.722 62.8206 239.28 62.2999C239.839 61.7792 240.653 61.5189 241.721 61.5189H246.378V70.5381H244.906V67.228H242.149L239.69 70.5381H238.014ZM241.926 65.9634H244.906V62.7834H241.926C241.292 62.7834 240.802 62.9198 240.454 63.1925C240.119 63.4653 239.951 63.862 239.951 64.3827C239.951 65.4365 240.609 65.9634 241.926 65.9634Z" fill="#212121"/>
<path d="M250.981 74.2574H249.491V61.5189H250.981V62.9136C251.813 61.835 252.956 61.2957 254.409 61.2957C255.725 61.2957 256.806 61.7606 257.65 62.6904C258.495 63.6079 258.917 64.7174 258.917 66.0192C258.917 67.3333 258.495 68.4553 257.65 69.3851C256.806 70.3026 255.725 70.7613 254.409 70.7613C252.931 70.7613 251.789 70.222 250.981 69.1434V74.2574ZM250.981 64.5687V67.5069C251.242 68.0772 251.646 68.5421 252.192 68.9016C252.739 69.2612 253.36 69.4409 254.055 69.4409C255.024 69.4409 255.825 69.1124 256.458 68.4553C257.091 67.7982 257.408 66.9862 257.408 66.0192C257.408 65.0522 257.091 64.2463 256.458 63.6017C255.825 62.9446 255.024 62.616 254.055 62.616C253.397 62.616 252.782 62.802 252.211 63.1739C251.652 63.5459 251.242 64.0108 250.981 64.5687Z" fill="#212121"/>
<path d="M262.06 62.6904C262.979 61.7606 264.153 61.2957 265.581 61.2957C267.009 61.2957 268.183 61.7606 269.102 62.6904C270.021 63.6203 270.48 64.736 270.48 66.0378C270.48 67.3395 270.021 68.4553 269.102 69.3851C268.183 70.3026 267.009 70.7613 265.581 70.7613C264.153 70.7613 262.979 70.3026 262.06 69.3851C261.141 68.4553 260.682 67.3395 260.682 66.0378C260.682 64.736 261.141 63.6203 262.06 62.6904ZM263.159 68.4739C263.805 69.1186 264.612 69.4409 265.581 69.4409C266.55 69.4409 267.357 69.1186 268.003 68.4739C268.649 67.8168 268.972 67.0048 268.972 66.0378C268.972 65.0708 268.649 64.2587 268.003 63.6017C267.357 62.9446 266.55 62.616 265.581 62.616C264.612 62.616 263.805 62.9446 263.159 63.6017C262.514 64.2587 262.191 65.0708 262.191 66.0378C262.191 67.0048 262.514 67.8168 263.159 68.4739Z" fill="#212121"/>
<path d="M273.468 70.5381V61.5189H278.255C279.149 61.5189 279.833 61.7296 280.304 62.1511C280.776 62.5727 281.012 63.1305 281.012 63.8248C281.012 64.7918 280.634 65.4489 279.876 65.796C281.031 66.1432 281.608 66.9118 281.608 68.102C281.608 68.8582 281.348 69.4533 280.826 69.8872C280.304 70.3212 279.553 70.5381 278.572 70.5381H273.468ZM274.958 69.2736H278.274C279.503 69.2736 280.118 68.8211 280.118 67.916C280.118 66.9862 279.503 66.5213 278.274 66.5213H274.958V69.2736ZM274.958 65.3125H277.864C278.398 65.3125 278.814 65.2071 279.112 64.9964C279.41 64.7732 279.559 64.4571 279.559 64.048C279.559 63.2049 278.994 62.7834 277.864 62.7834H274.958V65.3125Z" fill="#212121"/>
<path d="M197.92 83.8121V89.391L203.806 83.8121H205.8L199.466 89.763L206.787 96.8296H204.701L197.92 90.3023V96.8296H196.411V83.8121H197.92Z" fill="#212121"/>
<path d="M211.613 95.7324C212.246 95.7324 212.83 95.596 213.364 95.3233C213.91 95.0505 214.338 94.7158 214.649 94.3191V93.0917C213.804 92.5338 212.861 92.2549 211.817 92.2549C211.023 92.2549 210.395 92.4099 209.936 92.7198C209.489 93.0173 209.265 93.4389 209.265 93.9843C209.265 94.567 209.489 95.0071 209.936 95.3047C210.383 95.5898 210.942 95.7324 211.613 95.7324ZM211.203 97.0528C210.246 97.0528 209.433 96.7862 208.762 96.2531C208.104 95.72 207.775 94.9886 207.775 94.0587C207.775 93.1289 208.123 92.4036 208.818 91.8829C209.526 91.3499 210.408 91.0833 211.463 91.0833C212.693 91.0833 213.755 91.3622 214.649 91.9201V91.1019C214.649 89.639 213.68 88.9075 211.743 88.9075C210.687 88.9075 209.706 89.2051 208.8 89.8002V88.4054C209.706 87.8599 210.793 87.5872 212.06 87.5872C213.277 87.5872 214.258 87.8723 215.003 88.4426C215.748 89.0129 216.121 89.8497 216.121 90.9531V94.505C216.121 95.2861 216.4 95.6766 216.959 95.6766C217.182 95.6766 217.356 95.6332 217.48 95.5464V96.6994C217.257 96.8482 216.94 96.9226 216.53 96.9226C215.574 96.9226 214.997 96.4515 214.798 95.5092C213.879 96.5383 212.681 97.0528 211.203 97.0528Z" fill="#212121"/>
<path d="M222.542 97.0528C221.213 97.0528 220.096 96.8482 219.189 96.4391V95.0072C220.121 95.4907 221.17 95.7324 222.337 95.7324C224.262 95.7324 225.225 95.2055 225.225 94.1517C225.225 93.2095 224.442 92.7384 222.878 92.7384H221.276V91.4738H222.878C223.573 91.4738 224.082 91.3622 224.405 91.1391C224.74 90.9035 224.908 90.5998 224.908 90.2279C224.908 89.3476 224.082 88.9075 222.431 88.9075C221.425 88.9075 220.437 89.1121 219.469 89.5212V88.1823C220.375 87.7855 221.462 87.5872 222.729 87.5872C223.759 87.5872 224.629 87.8103 225.337 88.2566C226.044 88.6906 226.398 89.2609 226.398 89.9675C226.398 90.5502 226.268 90.9841 226.007 91.2693C225.746 91.5544 225.399 91.7962 224.964 91.9945C226.169 92.3665 226.771 93.1227 226.771 94.2633C226.771 95.0939 226.386 95.7696 225.616 96.2903C224.846 96.7986 223.821 97.0528 222.542 97.0528Z" fill="#212121"/>
<path d="M229.666 96.8296V83.8121H238.477V85.1882H231.175V96.8296H229.666Z" fill="#212121"/>
<path d="M240.628 95.7324C241.262 95.7324 241.845 95.596 242.379 95.3233C242.926 95.0505 243.354 94.7158 243.665 94.3191V93.0917C242.82 92.5338 241.877 92.2549 240.833 92.2549C240.039 92.2549 239.411 92.4099 238.952 92.7198C238.505 93.0173 238.281 93.4389 238.281 93.9843C238.281 94.567 238.505 95.0071 238.952 95.3047C239.399 95.5898 239.958 95.7324 240.628 95.7324ZM240.219 97.0528C239.262 97.0528 238.449 96.7862 237.778 96.2531C237.12 95.72 236.791 94.9886 236.791 94.0587C236.791 93.1289 237.139 92.4036 237.834 91.8829C238.542 91.3499 239.424 91.0833 240.479 91.0833C241.709 91.0833 242.771 91.3622 243.665 91.9201V91.1019C243.665 89.639 242.696 88.9075 240.759 88.9075C239.703 88.9075 238.722 89.2051 237.816 89.8002V88.4054C238.722 87.8599 239.809 87.5872 241.075 87.5872C242.293 87.5872 243.274 87.8723 244.019 88.4426C244.764 89.0129 245.136 89.8497 245.136 90.9531V94.505C245.136 95.2861 245.416 95.6766 245.975 95.6766C246.198 95.6766 246.372 95.6332 246.496 95.5464V96.6994C246.273 96.8482 245.956 96.9226 245.546 96.9226C244.59 96.9226 244.013 96.4515 243.814 95.5092C242.895 96.5383 241.696 97.0528 240.219 97.0528Z" fill="#212121"/>
<path d="M252.806 97.0528C251.44 97.0528 250.291 96.6002 249.36 95.6952C248.441 94.7902 247.982 93.662 247.982 92.3107C247.982 90.9469 248.441 89.8188 249.36 88.9261C250.291 88.0335 251.446 87.5872 252.825 87.5872C253.868 87.5872 254.775 87.8041 255.545 88.2381V89.577C254.75 89.1307 253.912 88.9075 253.03 88.9075C252.036 88.9075 251.198 89.2299 250.515 89.8745C249.832 90.5192 249.49 91.3375 249.49 92.3293C249.49 93.3087 249.832 94.1207 250.515 94.7654C251.198 95.4101 252.036 95.7324 253.03 95.7324C254.048 95.7324 254.942 95.4783 255.712 94.97V96.2903C254.868 96.7986 253.899 97.0528 252.806 97.0528Z" fill="#212121"/>
<path d="M261.458 95.7324C262.091 95.7324 262.675 95.596 263.209 95.3233C263.756 95.0505 264.184 94.7158 264.494 94.3191V93.0917C263.65 92.5338 262.706 92.2549 261.663 92.2549C260.868 92.2549 260.241 92.4099 259.781 92.7198C259.334 93.0173 259.111 93.4389 259.111 93.9843C259.111 94.567 259.334 95.0071 259.781 95.3047C260.229 95.5898 260.787 95.7324 261.458 95.7324ZM261.048 97.0528C260.092 97.0528 259.278 96.7862 258.608 96.2531C257.95 95.72 257.621 94.9886 257.621 94.0587C257.621 93.1289 257.968 92.4036 258.664 91.8829C259.372 91.3499 260.253 91.0833 261.309 91.0833C262.538 91.0833 263.6 91.3622 264.494 91.9201V91.1019C264.494 89.639 263.526 88.9075 261.588 88.9075C260.533 88.9075 259.552 89.2051 258.645 89.8002V88.4054C259.552 87.8599 260.638 87.5872 261.905 87.5872C263.122 87.5872 264.103 87.8723 264.848 88.4426C265.594 89.0129 265.966 89.8497 265.966 90.9531V94.505C265.966 95.2861 266.246 95.6766 266.804 95.6766C267.028 95.6766 267.202 95.6332 267.326 95.5464V96.6994C267.102 96.8482 266.786 96.9226 266.376 96.9226C265.42 96.9226 264.842 96.4515 264.643 95.5092C263.724 96.5383 262.526 97.0528 261.048 97.0528Z" fill="#212121"/>
<path d="M183.466 110.104L188.813 115.85V110.104H190.322V115.868L195.705 110.104H197.624L191.849 116.278L198.369 123.121H196.357L190.322 116.817V123.121H188.813V116.835L182.814 123.121H180.821L187.323 116.278L181.566 110.104H183.466Z" fill="#212121"/>
<path d="M203.96 123.344C202.557 123.344 201.377 122.904 200.421 122.024C199.465 121.131 198.987 119.997 198.987 118.621C198.987 117.257 199.409 116.129 200.253 115.236C201.11 114.331 202.222 113.879 203.588 113.879C204.296 113.879 204.929 114.027 205.488 114.325C206.059 114.61 206.506 114.988 206.829 115.459C207.152 115.93 207.394 116.433 207.556 116.966C207.73 117.499 207.816 118.038 207.816 118.584V118.993H200.496C200.595 119.922 200.98 120.66 201.65 121.206C202.334 121.751 203.203 122.024 204.258 122.024C205.302 122.024 206.27 121.745 207.165 121.187V122.489C206.407 123.059 205.339 123.344 203.96 123.344ZM200.514 117.803H206.326C206.289 117.145 206.034 116.55 205.562 116.017C205.103 115.472 204.42 115.199 203.513 115.199C202.644 115.199 201.936 115.459 201.39 115.98C200.856 116.488 200.564 117.096 200.514 117.803Z" fill="#212121"/>
<path d="M210.845 123.121V114.102H212.335V117.84H217.681V114.102H219.153V123.121H217.681V119.16H212.335V123.121H210.845Z" fill="#212121"/>
<path d="M222.53 123.121V110.104H232.832V123.121H231.304V111.48H224.039V123.121H222.53Z" fill="#212121"/>
<path d="M237.937 123.344C237.242 123.344 236.683 123.257 236.261 123.084V121.671C236.658 121.844 237.136 121.931 237.695 121.931C238.006 121.931 238.279 121.881 238.515 121.782C238.763 121.671 238.993 121.478 239.204 121.206C239.428 120.921 239.602 120.673 239.726 120.462C239.85 120.251 240.036 119.91 240.285 119.439L235.069 110.104H236.745L241.048 117.858L244.625 110.104H246.227L241.421 120.369C240.899 121.46 240.353 122.228 239.782 122.675C239.223 123.121 238.608 123.344 237.937 123.344Z" fill="#212121"/>
<path d="M252.577 149.413L258.37 136.321H259.804L265.598 149.413H263.996L262.412 145.898H255.706L254.16 149.413H252.577ZM256.228 144.559H261.928L259.078 138.218L256.228 144.559Z" fill="#212121"/>
<path d="M269.069 149.636C268.374 149.636 267.815 149.549 267.393 149.375V147.962C267.79 148.136 268.268 148.222 268.827 148.222C269.138 148.222 269.411 148.173 269.647 148.074C269.895 147.962 270.125 147.77 270.336 147.497C270.56 147.212 270.733 146.964 270.858 146.753C270.982 146.543 271.168 146.202 271.416 145.73L266.2 136.395H267.877L272.18 144.15L275.757 136.395H277.359L272.553 146.66C272.031 147.751 271.485 148.52 270.913 148.966C270.355 149.413 269.74 149.636 269.069 149.636Z" fill="#212121"/>
<path d="M282.421 149.636C280.881 149.636 279.589 149.264 278.546 148.52V146.939C279.564 147.795 280.856 148.222 282.421 148.222C283.774 148.222 284.935 147.77 285.904 146.865C286.885 145.96 287.413 144.819 287.487 143.443H281.489V142.067H287.432C287.283 140.753 286.742 139.68 285.811 138.85C284.88 138.007 283.762 137.585 282.458 137.585C281.154 137.585 279.943 137.945 278.825 138.664V137.12C279.868 136.488 281.067 136.172 282.421 136.172C284.321 136.172 285.91 136.817 287.189 138.106C288.481 139.395 289.127 140.995 289.127 142.904C289.127 144.813 288.481 146.412 287.189 147.702C285.91 148.991 284.321 149.636 282.421 149.636Z" fill="#212121"/>
<path d="M298.395 149.636C296.482 149.636 294.88 149.003 293.589 147.739C292.31 146.474 291.67 144.863 291.67 142.904C291.67 140.957 292.31 139.352 293.589 138.087C294.868 136.81 296.47 136.172 298.395 136.172C299.798 136.172 301.009 136.488 302.027 137.12V138.664C300.935 137.945 299.73 137.585 298.413 137.585C296.948 137.585 295.712 138.094 294.706 139.11C293.713 140.114 293.216 141.379 293.216 142.904C293.216 144.454 293.713 145.73 294.706 146.735C295.712 147.726 296.967 148.222 298.469 148.222C299.96 148.222 301.239 147.801 302.307 146.958V148.501C301.251 149.258 299.947 149.636 298.395 149.636Z" fill="#212121"/>
<path d="M242.837 175.704V162.687H244.327V173.175L252.244 162.687H253.567V175.704H252.077V165.178L244.104 175.704H242.837Z" fill="#212121"/>
<path d="M257.154 175.704V162.687H258.663V168.042H266.226V162.687H267.735V175.704H266.226V169.418H258.663V175.704H257.154Z" fill="#212121"/>
<path d="M270.264 175.704L274.474 169.772C273.493 169.586 272.735 169.189 272.201 168.582C271.679 167.962 271.419 167.187 271.419 166.257C271.419 165.178 271.785 164.317 272.518 163.672C273.263 163.015 274.281 162.687 275.573 162.687H281.441V175.704H279.932V169.921H276.132L272.052 175.704H270.264ZM275.666 168.563H279.932V164.063H275.666C274.797 164.063 274.12 164.261 273.635 164.658C273.163 165.042 272.927 165.594 272.927 166.313C272.927 167.044 273.163 167.602 273.635 167.987C274.12 168.371 274.797 168.563 275.666 168.563Z" fill="#212121"/>
<path d="M288.488 175.927C286.75 175.927 285.272 175.586 284.055 174.904V173.379C285.334 174.136 286.737 174.514 288.265 174.514C289.494 174.514 290.457 174.278 291.152 173.807C291.86 173.324 292.214 172.673 292.214 171.855C292.214 171.111 291.891 170.516 291.245 170.069C290.612 169.611 289.755 169.381 288.675 169.381H287.054V168.005H288.842C289.736 168.005 290.432 167.825 290.929 167.466C291.425 167.094 291.674 166.579 291.674 165.922C291.674 165.265 291.388 164.763 290.817 164.416C290.246 164.056 289.494 163.877 288.563 163.877C287.246 163.877 285.942 164.18 284.651 164.788V163.375C285.967 162.767 287.296 162.463 288.637 162.463C289.966 162.463 291.053 162.773 291.897 163.393C292.742 164.001 293.164 164.819 293.164 165.848C293.164 166.592 292.94 167.199 292.493 167.67C292.059 168.141 291.581 168.458 291.059 168.619C291.767 168.842 292.394 169.232 292.94 169.79C293.487 170.336 293.76 171.055 293.76 171.948C293.76 173.113 293.288 174.068 292.344 174.811C291.413 175.555 290.128 175.927 288.488 175.927Z" fill="#212121"/>
<path d="M183.595 202.219C181.683 202.219 180.081 201.586 178.789 200.322C177.51 199.057 176.87 197.446 176.87 195.487C176.87 193.54 177.51 191.935 178.789 190.67C180.068 189.393 181.67 188.755 183.595 188.755C184.999 188.755 186.209 189.071 187.228 189.703V191.247C186.135 190.528 184.93 190.168 183.614 190.168C182.148 190.168 180.913 190.676 179.907 191.693C178.913 192.697 178.417 193.962 178.417 195.487C178.417 197.036 178.913 198.313 179.907 199.318C180.913 200.309 182.167 200.805 183.67 200.805C185.16 200.805 186.439 200.384 187.507 199.541V201.084C186.452 201.841 185.148 202.219 183.595 202.219Z" fill="#212121"/>
<path d="M193.067 200.898C193.7 200.898 194.284 200.762 194.818 200.489C195.364 200.216 195.793 199.882 196.103 199.485V198.258C195.259 197.7 194.315 197.421 193.272 197.421C192.477 197.421 191.85 197.576 191.39 197.886C190.943 198.183 190.72 198.605 190.72 199.15C190.72 199.733 190.943 200.173 191.39 200.471C191.837 200.756 192.396 200.898 193.067 200.898ZM192.657 202.219C191.701 202.219 190.887 201.952 190.217 201.419C189.559 200.886 189.229 200.154 189.229 199.225C189.229 198.295 189.577 197.57 190.273 197.049C190.981 196.516 191.862 196.249 192.918 196.249C194.147 196.249 195.209 196.528 196.103 197.086V196.268C196.103 194.805 195.135 194.073 193.197 194.073C192.142 194.073 191.161 194.371 190.254 194.966V193.571C191.161 193.026 192.247 192.753 193.514 192.753C194.731 192.753 195.712 193.038 196.457 193.609C197.202 194.179 197.575 195.016 197.575 196.119V199.671C197.575 200.452 197.854 200.843 198.413 200.843C198.637 200.843 198.811 200.799 198.935 200.712V201.865C198.711 202.014 198.395 202.088 197.985 202.088C197.029 202.088 196.451 201.617 196.252 200.675C195.333 201.704 194.135 202.219 192.657 202.219Z" fill="#212121"/>
<path d="M202.996 201.996V194.259H199.773V192.976H207.69V194.259H204.468V201.996H202.996Z" fill="#212121"/>
<path d="M209.695 201.996V192.976H217.873V201.996H216.401V194.259H211.185V201.996H209.695Z" fill="#212121"/>
<path d="M224.066 200.898C224.699 200.898 225.283 200.762 225.817 200.489C226.363 200.216 226.792 199.882 227.102 199.485V198.258C226.258 197.7 225.314 197.421 224.271 197.421C223.476 197.421 222.849 197.576 222.389 197.886C221.942 198.183 221.719 198.605 221.719 199.15C221.719 199.733 221.942 200.173 222.389 200.471C222.836 200.756 223.395 200.898 224.066 200.898ZM223.656 202.219C222.7 202.219 221.886 201.952 221.216 201.419C220.557 200.886 220.228 200.154 220.228 199.225C220.228 198.295 220.576 197.57 221.271 197.049C221.979 196.516 222.861 196.249 223.917 196.249C225.146 196.249 226.208 196.528 227.102 197.086V196.268C227.102 194.805 226.133 194.073 224.196 194.073C223.141 194.073 222.159 194.371 221.253 194.966V193.571C222.159 193.026 223.246 192.753 224.513 192.753C225.73 192.753 226.711 193.038 227.456 193.609C228.201 194.179 228.574 195.016 228.574 196.119V199.671C228.574 200.452 228.853 200.843 229.412 200.843C229.636 200.843 229.809 200.799 229.934 200.712V201.865C229.71 202.014 229.393 202.088 228.984 202.088C228.027 202.088 227.45 201.617 227.251 200.675C226.332 201.704 225.134 202.219 223.656 202.219Z" fill="#212121"/>
<path d="M236.393 202.219C234.989 202.219 233.809 201.779 232.853 200.898C231.897 200.006 231.419 198.871 231.419 197.495C231.419 196.131 231.841 195.003 232.686 194.111C233.542 193.206 234.654 192.753 236.02 192.753C236.728 192.753 237.361 192.902 237.92 193.199C238.491 193.485 238.939 193.863 239.261 194.334C239.584 194.805 239.826 195.307 239.988 195.84C240.162 196.373 240.249 196.913 240.249 197.458V197.867H232.928C233.027 198.797 233.412 199.535 234.083 200.08C234.766 200.626 235.635 200.898 236.691 200.898C237.734 200.898 238.703 200.619 239.597 200.061V201.363C238.839 201.934 237.771 202.219 236.393 202.219ZM232.946 196.677H238.758C238.721 196.02 238.467 195.425 237.995 194.892C237.535 194.346 236.852 194.073 235.946 194.073C235.076 194.073 234.368 194.334 233.822 194.855C233.288 195.363 232.996 195.97 232.946 196.677Z" fill="#212121"/>
<path d="M243.277 201.996V192.976H248.064C248.959 192.976 249.642 193.187 250.114 193.609C250.586 194.03 250.821 194.588 250.821 195.282C250.821 196.249 250.443 196.906 249.685 197.253C250.84 197.601 251.418 198.369 251.418 199.559C251.418 200.316 251.157 200.911 250.635 201.345C250.114 201.779 249.362 201.996 248.381 201.996H243.277ZM244.767 200.731H248.083C249.313 200.731 249.927 200.278 249.927 199.373C249.927 198.444 249.313 197.979 248.083 197.979H244.767V200.731ZM244.767 196.77H247.673C248.207 196.77 248.623 196.665 248.921 196.454C249.219 196.231 249.368 195.914 249.368 195.505C249.368 194.662 248.803 194.241 247.673 194.241H244.767V196.77Z" fill="#212121"/>
<path d="M226.669 228.287V215.27H228.159L232.779 221.481L237.399 215.27H238.871V228.287H237.38V217.557L233.245 223.099H232.332L228.159 217.557V228.287H226.669Z" fill="#212121"/>
<path d="M243.968 228.51C243.273 228.51 242.714 228.423 242.292 228.25V226.836C242.689 227.01 243.167 227.097 243.726 227.097C244.037 227.097 244.31 227.047 244.546 226.948C244.794 226.836 245.024 226.644 245.235 226.372C245.459 226.086 245.632 225.838 245.757 225.628C245.881 225.417 246.067 225.076 246.316 224.605L241.1 215.27H242.776L247.079 223.024L250.656 215.27H252.258L247.452 225.535C246.93 226.626 246.384 227.394 245.813 227.841C245.254 228.287 244.639 228.51 243.968 228.51Z" fill="#212121"/>
<path d="M254.557 228.287V215.27H256.047V225.758L263.964 215.27H265.287V228.287H263.797V217.761L255.824 228.287H254.557Z" fill="#212121"/>
<path d="M272.171 228.287V216.646H267.719V215.27H278.188V216.646H273.699V228.287H272.171Z" fill="#212121"/>
<path d="M219.358 241.561V247.14L225.245 241.561H227.238L220.904 247.512L228.225 254.578H226.139L219.358 248.051V254.578H217.849V241.561H219.358Z" fill="#212121"/>
<path d="M230.238 254.578V241.561H239.198V242.937H231.747V246.433H235.603C237.056 246.433 238.192 246.811 239.012 247.568C239.831 248.311 240.241 249.291 240.241 250.506C240.241 251.733 239.831 252.719 239.012 253.463C238.192 254.207 237.056 254.578 235.603 254.578H230.238ZM231.747 253.202H235.454C236.509 253.202 237.316 252.973 237.875 252.514C238.447 252.043 238.732 251.374 238.732 250.506C238.732 249.638 238.447 248.975 237.875 248.516C237.316 248.045 236.509 247.809 235.454 247.809H231.747V253.202Z" fill="#212121"/>
<path d="M245.942 254.578V242.937H241.49V241.561H251.959V242.937H247.469V254.578H245.942Z" fill="#212121"/>
<path d="M255.923 254.802C255.228 254.802 254.669 254.715 254.247 254.541V253.128C254.644 253.302 255.122 253.388 255.681 253.388C255.992 253.388 256.265 253.339 256.501 253.24C256.749 253.128 256.979 252.936 257.19 252.663C257.414 252.378 257.588 252.13 257.712 251.919C257.836 251.708 258.022 251.367 258.271 250.896L253.055 241.561H254.731L259.034 249.316L262.611 241.561H264.213L259.407 251.826C258.885 252.917 258.339 253.686 257.768 254.132C257.209 254.578 256.594 254.802 255.923 254.802Z" fill="#212121"/>
<path d="M114.219 280.87L120.012 267.778H121.446L127.24 280.87H125.638L124.054 277.355H117.348L115.802 280.87H114.219ZM117.87 276.016H123.57L120.72 269.675L117.87 276.016Z" fill="#212121"/>
<path d="M132.416 281.093C131.659 281.093 130.932 281.006 130.237 280.833C129.554 280.647 129.032 280.424 128.672 280.163V278.676C129.032 278.948 129.548 279.202 130.218 279.438C130.901 279.661 131.615 279.773 132.36 279.773C133.106 279.773 133.689 279.655 134.112 279.419C134.534 279.184 134.745 278.849 134.745 278.415C134.745 278.266 134.72 278.136 134.67 278.025C134.633 277.913 134.559 277.82 134.447 277.746C134.347 277.659 134.242 277.585 134.13 277.523C134.031 277.461 133.882 277.405 133.683 277.355C133.497 277.293 133.329 277.244 133.18 277.206C133.044 277.169 132.851 277.12 132.603 277.058C132.354 276.996 132.149 276.946 131.988 276.909C130.92 276.636 130.125 276.308 129.603 275.923C129.094 275.527 128.84 274.938 128.84 274.157C128.84 273.376 129.156 272.762 129.79 272.316C130.436 271.857 131.342 271.628 132.509 271.628C133.863 271.628 134.962 271.894 135.807 272.427V273.859C134.813 273.252 133.733 272.948 132.565 272.948C131.088 272.948 130.349 273.363 130.349 274.194C130.349 274.677 130.715 275.049 131.448 275.31C131.696 275.396 132.224 275.533 133.031 275.719C134.049 275.942 134.838 276.258 135.397 276.667C135.968 277.076 136.254 277.671 136.254 278.452C136.254 279.271 135.894 279.915 135.173 280.386C134.465 280.858 133.546 281.093 132.416 281.093Z" fill="#212121"/>
<path d="M142.288 281.093C141.431 281.093 140.785 280.845 140.351 280.349C139.916 279.853 139.699 279.184 139.699 278.341V273.134H137.612V271.851H139.699V269.117H141.189V271.851H144.281V273.134H141.189V277.913C141.189 278.583 141.307 279.054 141.543 279.326C141.779 279.599 142.17 279.736 142.717 279.736C143.3 279.736 143.785 279.612 144.17 279.364V280.684C143.747 280.957 143.12 281.093 142.288 281.093Z" fill="#212121"/>
<path d="M149.77 279.773C150.404 279.773 150.987 279.636 151.522 279.364C152.068 279.091 152.496 278.756 152.807 278.359V277.132C151.962 276.574 151.019 276.295 149.975 276.295C149.181 276.295 148.553 276.45 148.094 276.76C147.647 277.058 147.423 277.479 147.423 278.025C147.423 278.607 147.647 279.048 148.094 279.345C148.541 279.63 149.1 279.773 149.77 279.773ZM149.361 281.093C148.404 281.093 147.591 280.827 146.92 280.293C146.262 279.76 145.933 279.029 145.933 278.099C145.933 277.169 146.281 276.444 146.976 275.923C147.684 275.39 148.566 275.124 149.621 275.124C150.851 275.124 151.913 275.403 152.807 275.961V275.142C152.807 273.679 151.838 272.948 149.901 272.948C148.845 272.948 147.864 273.245 146.958 273.841V272.446C147.864 271.9 148.951 271.628 150.218 271.628C151.435 271.628 152.416 271.913 153.161 272.483C153.906 273.053 154.279 273.89 154.279 274.993V278.545C154.279 279.326 154.558 279.717 155.117 279.717C155.34 279.717 155.514 279.674 155.638 279.587V280.74C155.415 280.889 155.098 280.963 154.688 280.963C153.732 280.963 153.155 280.492 152.956 279.55C152.037 280.579 150.838 281.093 149.361 281.093Z" fill="#212121"/>
<path d="M159.266 280.87H157.776V271.851H159.266V273.208C159.626 272.762 160.11 272.39 160.719 272.092C161.34 271.783 162.035 271.628 162.805 271.628C163.935 271.628 164.786 271.956 165.357 272.613C165.941 273.27 166.233 274.194 166.233 275.384V280.87H164.743V275.7C164.743 275.167 164.662 274.715 164.5 274.343C164.351 273.958 164.146 273.679 163.886 273.506C163.625 273.332 163.364 273.208 163.103 273.134C162.855 273.059 162.582 273.022 162.284 273.022C161.7 273.022 161.116 273.208 160.533 273.58C159.949 273.94 159.527 274.355 159.266 274.826V280.87Z" fill="#212121"/>
<path d="M172.237 279.773C172.871 279.773 173.454 279.636 173.988 279.364C174.535 279.091 174.963 278.756 175.274 278.359V277.132C174.429 276.574 173.485 276.295 172.442 276.295C171.647 276.295 171.02 276.45 170.561 276.76C170.114 277.058 169.89 277.479 169.89 278.025C169.89 278.607 170.114 279.048 170.561 279.345C171.008 279.63 171.567 279.773 172.237 279.773ZM171.827 281.093C170.871 281.093 170.058 280.827 169.387 280.293C168.729 279.76 168.4 279.029 168.4 278.099C168.4 277.169 168.748 276.444 169.443 275.923C170.151 275.39 171.033 275.124 172.088 275.124C173.318 275.124 174.38 275.403 175.274 275.961V275.142C175.274 273.679 174.305 272.948 172.368 272.948C171.312 272.948 170.331 273.245 169.424 273.841V272.446C170.331 271.9 171.418 271.628 172.684 271.628C173.901 271.628 174.883 271.913 175.628 272.483C176.373 273.053 176.745 273.89 176.745 274.993V278.545C176.745 279.326 177.025 279.717 177.584 279.717C177.807 279.717 177.981 279.674 178.105 279.587V280.74C177.882 280.889 177.565 280.963 177.155 280.963C176.199 280.963 175.621 280.492 175.423 279.55C174.504 280.579 173.305 281.093 171.827 281.093Z" fill="#212121"/>
<path d="M185.49 280.87V267.852H186.999V280.87H185.49Z" fill="#212121"/>
<path d="M193.988 280.87V269.229H189.536V267.852H200.005V269.229H195.515V280.87H193.988Z" fill="#212121"/>
<path d="M198.835 283.473L206.678 266.142H208.206L200.363 283.473H198.835Z" fill="#212121"/>
<path d="M210.156 280.87V267.852H211.646L216.266 274.064L220.886 267.852H222.357V280.87H220.867V270.14L216.732 275.682H215.819L211.646 270.14V280.87H210.156Z" fill="#212121"/>
<path d="M225.946 280.87V267.852H227.25L235.316 278.248V267.852H236.788V280.87H235.503L227.418 270.437V280.87H225.946Z" fill="#212121"/>
<path d="M249.407 279.605C248.413 280.597 247.122 281.093 245.532 281.093C243.942 281.093 242.651 280.597 241.657 279.605C240.676 278.601 240.186 277.175 240.186 275.328V267.852H241.695V275.365C241.695 276.742 242.042 277.808 242.738 278.564C243.433 279.308 244.365 279.68 245.532 279.68C246.712 279.68 247.649 279.308 248.345 278.564C249.04 277.808 249.388 276.742 249.388 275.365V267.852H250.897V275.328C250.897 277.175 250.4 278.601 249.407 279.605Z" fill="#212121"/>
</svg>
