<svg width="1200" height="743" viewBox="0 0 1200 743" fill="none" xmlns="http://www.w3.org/2000/svg">
<rect width="1200" height="743" rx="31" fill="#FAFAFA"/>
<rect x="484" y="66" width="215" height="132" rx="14" fill="#212121"/>
<path d="M529.806 96.2H555.634V101.876H545.866V127H539.53V101.876H529.806V96.2ZM555.859 129.64V125.108H561.095L552.779 105.044H559.467L565.275 120.092L571.039 105.044H577.507L569.191 125.108H574.515V129.64H568.223V135.8H562.019V129.64H555.859ZM589.436 110.236L589.348 113.316C589.318 114.577 589.245 115.692 589.128 116.66C589.04 117.628 588.878 118.684 588.644 119.828C588.438 120.943 588.13 121.911 587.72 122.732C587.309 123.553 586.81 124.316 586.224 125.02C585.637 125.724 584.874 126.267 583.936 126.648C583.026 127 581.985 127.176 580.812 127.176C579.756 127.176 578.978 127.044 578.48 126.78V121.72C578.802 121.837 579.228 121.896 579.756 121.896C580.489 121.896 581.09 121.676 581.56 121.236C582.029 120.796 582.381 120.077 582.616 119.08C582.88 118.053 583.056 116.997 583.144 115.912C583.232 114.797 583.29 113.331 583.32 111.512L583.452 105.044H602.416V127H596.212V110.236H589.436ZM605.971 119.344V114.768H609.535V105.044H626.959V110.236H615.739V114.768H623.307V119.344H615.739V127H609.535V119.344H605.971ZM651.981 122.204C652.509 122.204 652.934 122.116 653.257 121.94V126.472C652.465 127.088 651.35 127.396 649.913 127.396C647.42 127.396 645.762 126.457 644.941 124.58C642.946 126.575 640.424 127.572 637.373 127.572C634.968 127.572 633.017 126.912 631.521 125.592C630.025 124.243 629.277 122.453 629.277 120.224C629.277 117.877 630.128 116.088 631.829 114.856C633.53 113.624 635.569 113.008 637.945 113.008C640.409 113.008 642.521 113.463 644.281 114.372V113.712C644.281 110.955 642.345 109.576 638.473 109.576C636.126 109.576 633.912 110.192 631.829 111.424V106.232C634.058 105.059 636.772 104.472 639.969 104.472C643.108 104.472 645.63 105.235 647.537 106.76C649.473 108.285 650.441 110.397 650.441 113.096V120.532C650.441 121.647 650.954 122.204 651.981 122.204ZM644.281 120.532V118.332C643.078 117.481 641.553 117.056 639.705 117.056C638.385 117.056 637.329 117.305 636.537 117.804C635.774 118.273 635.393 118.977 635.393 119.916C635.393 121.823 636.698 122.776 639.309 122.776C641.509 122.776 643.166 122.028 644.281 120.532ZM534.63 155.05C536.216 155.47 537.465 156.228 538.375 157.325C539.285 158.398 539.74 159.717 539.74 161.28C539.74 163.45 538.841 165.188 537.045 166.495C535.271 167.778 533.055 168.42 530.395 168.42C527.735 168.42 525.506 167.778 523.71 166.495C521.913 165.188 521.015 163.45 521.015 161.28C521.015 159.717 521.481 158.398 522.415 157.325C523.348 156.252 524.608 155.493 526.195 155.05C524.981 154.56 524.013 153.848 523.29 152.915C522.59 151.958 522.24 150.827 522.24 149.52C522.24 147.63 523.01 146.09 524.55 144.9C526.09 143.687 528.038 143.08 530.395 143.08C532.751 143.08 534.7 143.687 536.24 144.9C537.78 146.09 538.55 147.63 538.55 149.52C538.55 150.803 538.2 151.923 537.5 152.88C536.8 153.837 535.843 154.56 534.63 155.05ZM524.935 149.765C524.935 151.002 525.448 152.017 526.475 152.81C527.525 153.58 528.831 153.965 530.395 153.965C531.958 153.965 533.253 153.58 534.28 152.81C535.33 152.017 535.855 151.002 535.855 149.765C535.855 148.482 535.33 147.443 534.28 146.65C533.253 145.857 531.958 145.46 530.395 145.46C528.831 145.46 527.525 145.857 526.475 146.65C525.448 147.443 524.935 148.482 524.935 149.765ZM525.775 164.605C527.035 165.538 528.575 166.005 530.395 166.005C532.215 166.005 533.755 165.538 535.015 164.605C536.275 163.672 536.905 162.517 536.905 161.14C536.905 159.693 536.286 158.538 535.05 157.675C533.813 156.788 532.261 156.345 530.395 156.345C528.528 156.345 526.976 156.788 525.74 157.675C524.503 158.538 523.885 159.693 523.885 161.14C523.885 162.517 524.515 163.672 525.775 164.605ZM565.402 168L556.582 159.775V168H553.782V151.025H556.582V157.92L564.352 151.025H568.062L559.312 158.69L566.732 165.585H569.322V172.935H566.662V168H565.402ZM589.828 168V151.025H592.593V168H589.828ZM572.923 168V151.025H575.723V156.59H580.588C582.618 156.59 584.205 157.103 585.348 158.13C586.515 159.157 587.098 160.545 587.098 162.295C587.098 163.975 586.538 165.352 585.418 166.425C584.298 167.475 582.723 168 580.693 168H572.923ZM575.723 165.585H580.203C581.51 165.585 582.513 165.305 583.213 164.745C583.936 164.185 584.298 163.38 584.298 162.33C584.298 160.113 582.933 159.005 580.203 159.005H575.723V165.585ZM601.221 175H598.421V151.025H601.221V153.65C602.784 151.62 604.931 150.605 607.661 150.605C610.134 150.605 612.164 151.48 613.751 153.23C615.338 154.957 616.131 157.045 616.131 159.495C616.131 161.968 615.338 164.08 613.751 165.83C612.164 167.557 610.134 168.42 607.661 168.42C604.884 168.42 602.738 167.405 601.221 165.375V175ZM601.221 156.765V162.295C601.711 163.368 602.469 164.243 603.496 164.92C604.523 165.597 605.689 165.935 606.996 165.935C608.816 165.935 610.321 165.317 611.511 164.08C612.701 162.843 613.296 161.315 613.296 159.495C613.296 157.675 612.701 156.158 611.511 154.945C610.321 153.708 608.816 153.09 606.996 153.09C605.759 153.09 604.604 153.44 603.531 154.14C602.481 154.84 601.711 155.715 601.221 156.765ZM617.989 168V165.48C618.106 165.527 618.339 165.55 618.689 165.55C619.389 165.55 619.984 165.328 620.474 164.885C620.988 164.418 621.373 163.753 621.629 162.89C621.886 162.027 622.073 161.093 622.189 160.09C622.329 159.063 622.411 157.862 622.434 156.485L622.574 151.025H635.454V168H632.689V153.44H625.234L625.129 156.555C625.106 157.605 625.059 158.515 624.989 159.285C624.919 160.055 624.803 160.93 624.639 161.91C624.499 162.867 624.278 163.683 623.974 164.36C623.694 165.013 623.333 165.643 622.889 166.25C622.446 166.833 621.874 167.277 621.174 167.58C620.498 167.883 619.716 168.035 618.829 168.035C618.456 168.035 618.176 168.023 617.989 168ZM658.187 168V151.025H660.952V168H658.187ZM641.282 168V151.025H644.082V156.59H648.947C650.977 156.59 652.564 157.103 653.707 158.13C654.874 159.157 655.457 160.545 655.457 162.295C655.457 163.975 654.897 165.352 653.777 166.425C652.657 167.475 651.082 168 649.052 168H641.282ZM644.082 165.585H648.562C649.869 165.585 650.872 165.305 651.572 164.745C652.296 164.185 652.657 163.38 652.657 162.33C652.657 160.113 651.292 159.005 648.562 159.005H644.082V165.585Z" fill="white"/>
<rect x="167.5" y="227.5" width="233" height="58" rx="13.5" stroke="black"/>
<path d="M184.484 266V247.1H187.454V266H184.484ZM192.312 266V247.1H195.282V254.822L203.031 247.1H206.838L198.09 255.74L208.242 266H204.192L195.282 256.928V266H192.312ZM210.851 266V247.1H213.821V266H210.851ZM227.832 266.351C225.042 266.351 222.702 265.433 220.812 263.597C218.94 261.743 218.004 259.394 218.004 256.55C218.004 253.706 218.949 251.366 220.839 249.53C222.729 247.676 225.096 246.749 227.94 246.749C230.19 246.749 232.134 247.289 233.772 248.369V251.312C232.062 250.124 230.181 249.53 228.129 249.53C226.059 249.53 224.358 250.187 223.026 251.501C221.712 252.797 221.055 254.489 221.055 256.577C221.055 258.665 221.703 260.357 222.999 261.653C224.313 262.931 225.924 263.57 227.832 263.57C229.758 263.57 231.279 263.039 232.395 261.977V255.092H235.365V263.192C234.609 264.092 233.556 264.848 232.206 265.46C230.856 266.054 229.398 266.351 227.832 266.351ZM237.833 266L246.095 246.992H248.957L257.219 266H254.033L251.981 261.302H243.017L240.992 266H237.833ZM244.043 258.683H250.955L247.499 250.745L244.043 258.683ZM260.29 266V247.1H263.26V266H260.29ZM287.308 263.732C287.596 263.732 287.857 263.669 288.091 263.543V265.757C287.695 266.045 287.128 266.189 286.39 266.189C284.914 266.189 283.987 265.559 283.609 264.299C282.403 265.667 280.774 266.351 278.722 266.351C277.282 266.351 276.094 265.955 275.158 265.163C274.222 264.371 273.754 263.282 273.754 261.896C273.754 260.492 274.267 259.412 275.293 258.656C276.319 257.882 277.579 257.495 279.073 257.495C280.639 257.495 282.052 257.837 283.312 258.521V257.792C283.312 255.866 282.016 254.903 279.424 254.903C277.912 254.903 276.517 255.299 275.239 256.091V253.526C276.553 252.77 278.164 252.392 280.072 252.392C281.908 252.392 283.384 252.833 284.5 253.715C285.634 254.597 286.201 255.848 286.201 257.468V262.409C286.201 262.823 286.3 263.147 286.498 263.381C286.714 263.615 286.984 263.732 287.308 263.732ZM283.312 262.247V260.627C282.25 259.997 281.071 259.682 279.775 259.682C278.803 259.682 278.038 259.862 277.48 260.222C276.94 260.582 276.67 261.086 276.67 261.734C276.67 262.436 276.931 262.967 277.453 263.327C277.975 263.669 278.668 263.84 279.532 263.84C280.306 263.84 281.026 263.687 281.692 263.381C282.358 263.075 282.898 262.697 283.312 262.247ZM290.972 266V252.743H293.888V257.927H300.611V252.743H303.527V266H300.611V260.492H293.888V266H290.972ZM321.026 266V252.743H323.942V266H321.026ZM307.688 266V252.743H310.604V256.766H313.817C315.455 256.766 316.751 257.189 317.705 258.035C318.677 258.863 319.163 259.979 319.163 261.383C319.163 262.715 318.704 263.822 317.786 264.704C316.868 265.568 315.59 266 313.952 266H307.688ZM310.604 263.543H313.493C314.357 263.543 315.023 263.354 315.491 262.976C315.977 262.598 316.22 262.067 316.22 261.383C316.22 260.699 315.977 260.168 315.491 259.79C315.023 259.412 314.357 259.223 313.493 259.223H310.604V263.543ZM328.097 266V252.743H331.013V257.765L336.251 252.743H339.977L333.686 258.683L338.384 263.435H340.922V269.645H338.087V266H336.926L331.013 260.006V266H328.097ZM346.781 266V255.308H342.299V252.743H354.152V255.308H349.697V266H346.781ZM369.257 263.732C369.545 263.732 369.806 263.669 370.04 263.543V265.757C369.644 266.045 369.077 266.189 368.339 266.189C366.863 266.189 365.936 265.559 365.558 264.299C364.352 265.667 362.723 266.351 360.671 266.351C359.231 266.351 358.043 265.955 357.107 265.163C356.171 264.371 355.703 263.282 355.703 261.896C355.703 260.492 356.216 259.412 357.242 258.656C358.268 257.882 359.528 257.495 361.022 257.495C362.588 257.495 364.001 257.837 365.261 258.521V257.792C365.261 255.866 363.965 254.903 361.373 254.903C359.861 254.903 358.466 255.299 357.188 256.091V253.526C358.502 252.77 360.113 252.392 362.021 252.392C363.857 252.392 365.333 252.833 366.449 253.715C367.583 254.597 368.15 255.848 368.15 257.468V262.409C368.15 262.823 368.249 263.147 368.447 263.381C368.663 263.615 368.933 263.732 369.257 263.732ZM365.261 262.247V260.627C364.199 259.997 363.02 259.682 361.724 259.682C360.752 259.682 359.987 259.862 359.429 260.222C358.889 260.582 358.619 261.086 358.619 261.734C358.619 262.436 358.88 262.967 359.402 263.327C359.924 263.669 360.617 263.84 361.481 263.84C362.255 263.84 362.975 263.687 363.641 263.381C364.307 263.075 364.847 262.697 365.261 262.247ZM373.849 271.535C372.751 271.535 371.95 271.391 371.446 271.103V268.538C372.04 268.826 372.679 268.97 373.363 268.97C374.119 268.97 374.749 268.691 375.253 268.133C375.775 267.593 376.288 266.72 376.792 265.514L370.987 252.743H374.227L378.223 262.085L382.084 252.743H385.243L378.898 267.431C377.692 270.167 376.009 271.535 373.849 271.535Z" fill="black"/>
<rect x="171.5" y="323.5" width="229" height="89" rx="13.5" stroke="black"/>
<path d="M187.654 362L195.916 342.992H198.778L207.04 362H203.854L201.802 357.302H192.838L190.813 362H187.654ZM193.864 354.683H200.776L197.32 346.745L193.864 354.683ZM208.247 356.924V354.737H210.542V348.743H220.802V351.308H213.458V354.737H218.372V356.924H213.458V362H210.542V356.924H208.247ZM236.965 362V348.743H239.881V362H236.965ZM223.627 362V348.743H226.543V352.766H229.756C231.394 352.766 232.69 353.189 233.644 354.035C234.616 354.863 235.102 355.979 235.102 357.383C235.102 358.715 234.643 359.822 233.725 360.704C232.807 361.568 231.529 362 229.891 362H223.627ZM226.543 359.543H229.432C230.296 359.543 230.962 359.354 231.43 358.976C231.916 358.598 232.159 358.067 232.159 357.383C232.159 356.699 231.916 356.168 231.43 355.79C230.962 355.412 230.296 355.223 229.432 355.223H226.543V359.543ZM248.652 351.308L248.598 353.225C248.562 354.215 248.508 355.07 248.436 355.79C248.364 356.51 248.22 357.293 248.004 358.139C247.788 358.967 247.5 359.651 247.14 360.191C246.798 360.713 246.312 361.154 245.682 361.514C245.052 361.874 244.305 362.054 243.441 362.054C243.063 362.054 242.757 362.018 242.523 361.946V359.435C242.649 359.489 242.847 359.516 243.117 359.516C244.071 359.516 244.746 359.021 245.142 358.031C245.538 357.023 245.754 355.367 245.79 353.063L245.871 348.743H256.563V362H253.647V351.308H248.652ZM260.725 362V348.743H263.641V359.435H268.582V348.743H271.498V359.435H276.439V348.743H279.355V362H260.725ZM296.845 362V348.743H299.761V362H296.845ZM283.507 362V348.743H286.423V352.766H289.636C291.274 352.766 292.57 353.189 293.524 354.035C294.496 354.863 294.982 355.979 294.982 357.383C294.982 358.715 294.523 359.822 293.605 360.704C292.687 361.568 291.409 362 289.771 362H283.507ZM286.423 359.543H289.312C290.176 359.543 290.842 359.354 291.31 358.976C291.796 358.598 292.039 358.067 292.039 357.383C292.039 356.699 291.796 356.168 291.31 355.79C290.842 355.412 290.176 355.223 289.312 355.223H286.423V359.543ZM303.915 362V348.743H306.831V353.927H313.554V348.743H316.47V362H313.554V356.492H306.831V362H303.915ZM329.507 362V351.308H325.025V348.743H336.878V351.308H332.423V362H329.507ZM339.78 362V348.743H342.696V362H339.78ZM342.534 345.854C342.192 346.196 341.76 346.367 341.238 346.367C340.716 346.367 340.275 346.196 339.915 345.854C339.573 345.494 339.402 345.053 339.402 344.531C339.402 344.009 339.573 343.568 339.915 343.208C340.275 342.848 340.716 342.668 341.238 342.668C341.76 342.668 342.192 342.848 342.534 343.208C342.876 343.568 343.047 344.009 343.047 344.531C343.047 345.053 342.876 345.494 342.534 345.854ZM351.721 351.308L351.667 353.225C351.631 354.215 351.577 355.07 351.505 355.79C351.433 356.51 351.289 357.293 351.073 358.139C350.857 358.967 350.569 359.651 350.209 360.191C349.867 360.713 349.381 361.154 348.751 361.514C348.121 361.874 347.374 362.054 346.51 362.054C346.132 362.054 345.826 362.018 345.592 361.946V359.435C345.718 359.489 345.916 359.516 346.186 359.516C347.14 359.516 347.815 359.021 348.211 358.031C348.607 357.023 348.823 355.367 348.859 353.063L348.94 348.743H359.632V362H356.716V351.308H351.721ZM364.038 362V348.743H366.954V362H364.038ZM366.792 345.854C366.45 346.196 366.018 346.367 365.496 346.367C364.974 346.367 364.533 346.196 364.173 345.854C363.831 345.494 363.66 345.053 363.66 344.531C363.66 344.009 363.831 343.568 364.173 343.208C364.533 342.848 364.974 342.668 365.496 342.668C366.018 342.668 366.45 342.848 366.792 343.208C367.134 343.568 367.305 344.009 367.305 344.531C367.305 345.053 367.134 345.494 366.792 345.854ZM371.362 362V348.743H374.278V353.927H381.001V348.743H383.917V362H381.001V356.492H374.278V362H371.362ZM301.325 393.351C299.039 393.351 297.257 392.559 295.979 390.975C294.719 389.391 294.089 387.276 294.089 384.63C294.089 383.1 294.269 381.768 294.629 380.634C295.007 379.5 295.511 378.564 296.141 377.826C296.771 377.07 297.635 376.422 298.733 375.882C299.849 375.342 301.001 374.919 302.189 374.613C303.395 374.307 304.88 374.01 306.644 373.722V376.422C303.764 376.962 301.892 377.385 301.028 377.691C299.03 378.375 297.743 379.491 297.167 381.039C296.951 381.633 296.816 382.317 296.762 383.091C297.32 382.281 298.058 381.642 298.976 381.174C299.912 380.706 300.965 380.472 302.135 380.472C303.863 380.472 305.294 381.03 306.428 382.146C307.562 383.262 308.129 384.72 308.129 386.52C308.129 388.536 307.472 390.183 306.158 391.461C304.862 392.721 303.251 393.351 301.325 393.351ZM301.325 390.786C302.441 390.786 303.368 390.408 304.106 389.652C304.844 388.896 305.213 387.924 305.213 386.736C305.213 385.602 304.853 384.693 304.133 384.009C303.431 383.325 302.531 382.983 301.433 382.983C300.479 382.983 299.597 383.244 298.787 383.766C297.977 384.288 297.365 384.918 296.951 385.656C297.023 387.276 297.437 388.536 298.193 389.436C298.949 390.336 299.993 390.786 301.325 390.786ZM311.593 393V379.743H314.509V393H311.593ZM314.347 376.854C314.005 377.196 313.573 377.367 313.051 377.367C312.529 377.367 312.088 377.196 311.728 376.854C311.386 376.494 311.215 376.053 311.215 375.531C311.215 375.009 311.386 374.568 311.728 374.208C312.088 373.848 312.529 373.668 313.051 373.668C313.573 373.668 314.005 373.848 314.347 374.208C314.689 374.568 314.86 375.009 314.86 375.531C314.86 376.053 314.689 376.494 314.347 376.854ZM323.535 382.308L323.481 384.225C323.445 385.215 323.391 386.07 323.319 386.79C323.247 387.51 323.103 388.293 322.887 389.139C322.671 389.967 322.383 390.651 322.023 391.191C321.681 391.713 321.195 392.154 320.565 392.514C319.935 392.874 319.188 393.054 318.324 393.054C317.946 393.054 317.64 393.018 317.406 392.946V390.435C317.532 390.489 317.73 390.516 318 390.516C318.954 390.516 319.629 390.021 320.025 389.031C320.421 388.023 320.637 386.367 320.673 384.063L320.754 379.743H331.446V393H328.53V382.308H323.535ZM346.867 392.055C345.661 392.919 344.032 393.351 341.98 393.351C339.928 393.351 338.191 392.703 336.769 391.407C335.365 390.111 334.663 388.428 334.663 386.358C334.663 384.378 335.293 382.722 336.553 381.39C337.813 380.058 339.451 379.392 341.467 379.392C343.447 379.392 344.986 380.103 346.084 381.525C347.2 382.929 347.758 384.576 347.758 386.466V387.222H337.606C337.804 388.338 338.344 389.211 339.226 389.841C340.126 390.471 341.251 390.786 342.601 390.786C344.185 390.786 345.607 390.39 346.867 389.598V392.055ZM337.633 385.008H344.815C344.815 384.216 344.5 383.496 343.87 382.848C343.258 382.182 342.412 381.849 341.332 381.849C340.27 381.849 339.406 382.164 338.74 382.794C338.074 383.406 337.705 384.144 337.633 385.008ZM353.765 393V382.308H349.283V379.743H361.136V382.308H356.681V393H353.765ZM364.038 393V379.743H366.954V393H364.038ZM366.792 376.854C366.45 377.196 366.018 377.367 365.496 377.367C364.974 377.367 364.533 377.196 364.173 376.854C363.831 376.494 363.66 376.053 363.66 375.531C363.66 375.009 363.831 374.568 364.173 374.208C364.533 373.848 364.974 373.668 365.496 373.668C366.018 373.668 366.45 373.848 366.792 374.208C367.134 374.568 367.305 375.009 367.305 375.531C367.305 376.053 367.134 376.494 366.792 376.854ZM371.362 393V379.743H374.278V384.927H381.001V379.743H383.917V393H381.001V387.492H374.278V393H371.362Z" fill="black"/>
<rect x="171.5" y="450.5" width="229" height="89" rx="13.5" stroke="black"/>
<path d="M237.804 489L246.066 469.992H248.928L257.19 489H254.004L251.952 484.302H242.988L240.963 489H237.804ZM244.014 481.683H250.926L247.47 473.745L244.014 481.683ZM259.855 489V475.743H262.771V480.765L268.009 475.743H271.735L265.444 481.683L270.142 486.435H272.68V492.645H269.845V489H268.684L262.771 483.006V489H259.855ZM275.597 489V475.743H287.963V489H285.047V478.308H278.513V489H275.597ZM304.576 486.732C304.864 486.732 305.125 486.669 305.359 486.543V488.757C304.963 489.045 304.396 489.189 303.658 489.189C302.182 489.189 301.255 488.559 300.877 487.299C299.671 488.667 298.042 489.351 295.99 489.351C294.55 489.351 293.362 488.955 292.426 488.163C291.49 487.371 291.022 486.282 291.022 484.896C291.022 483.492 291.535 482.412 292.561 481.656C293.587 480.882 294.847 480.495 296.341 480.495C297.907 480.495 299.32 480.837 300.58 481.521V480.792C300.58 478.866 299.284 477.903 296.692 477.903C295.18 477.903 293.785 478.299 292.507 479.091V476.526C293.821 475.77 295.432 475.392 297.34 475.392C299.176 475.392 300.652 475.833 301.768 476.715C302.902 477.597 303.469 478.848 303.469 480.468V485.409C303.469 485.823 303.568 486.147 303.766 486.381C303.982 486.615 304.252 486.732 304.576 486.732ZM300.58 485.247V483.627C299.518 482.997 298.339 482.682 297.043 482.682C296.071 482.682 295.306 482.862 294.748 483.222C294.208 483.582 293.938 484.086 293.938 484.734C293.938 485.436 294.199 485.967 294.721 486.327C295.243 486.669 295.936 486.84 296.8 486.84C297.574 486.84 298.294 486.687 298.96 486.381C299.626 486.075 300.166 485.697 300.58 485.247ZM315.88 475.392C317.734 475.392 319.264 476.076 320.47 477.444C321.694 478.794 322.306 480.441 322.306 482.385C322.306 484.329 321.694 485.976 320.47 487.326C319.264 488.676 317.734 489.351 315.88 489.351C313.81 489.351 312.235 488.631 311.155 487.191V494.4H308.239V475.743H311.155V477.552C312.235 476.112 313.81 475.392 315.88 475.392ZM315.097 477.957C314.215 477.957 313.423 478.182 312.721 478.632C312.037 479.064 311.515 479.631 311.155 480.333V484.437C311.515 485.121 312.037 485.688 312.721 486.138C313.423 486.57 314.215 486.786 315.097 486.786C316.321 486.786 317.338 486.363 318.148 485.517C318.958 484.653 319.363 483.609 319.363 482.385C319.363 481.143 318.958 480.099 318.148 479.253C317.338 478.389 316.321 477.957 315.097 477.957ZM337.957 486.732C338.245 486.732 338.506 486.669 338.74 486.543V488.757C338.344 489.045 337.777 489.189 337.039 489.189C335.563 489.189 334.636 488.559 334.258 487.299C333.052 488.667 331.423 489.351 329.371 489.351C327.931 489.351 326.743 488.955 325.807 488.163C324.871 487.371 324.403 486.282 324.403 484.896C324.403 483.492 324.916 482.412 325.942 481.656C326.968 480.882 328.228 480.495 329.722 480.495C331.288 480.495 332.701 480.837 333.961 481.521V480.792C333.961 478.866 332.665 477.903 330.073 477.903C328.561 477.903 327.166 478.299 325.888 479.091V476.526C327.202 475.77 328.813 475.392 330.721 475.392C332.557 475.392 334.033 475.833 335.149 476.715C336.283 477.597 336.85 478.848 336.85 480.468V485.409C336.85 485.823 336.949 486.147 337.147 486.381C337.363 486.615 337.633 486.732 337.957 486.732ZM333.961 485.247V483.627C332.899 482.997 331.72 482.682 330.424 482.682C329.452 482.682 328.687 482.862 328.129 483.222C327.589 483.582 327.319 484.086 327.319 484.734C327.319 485.436 327.58 485.967 328.102 486.327C328.624 486.669 329.317 486.84 330.181 486.84C330.955 486.84 331.675 486.687 332.341 486.381C333.007 486.075 333.547 485.697 333.961 485.247ZM344.141 489V478.308H339.659V475.743H351.512V478.308H347.057V489H344.141ZM357.641 489V478.308H353.159V475.743H365.012V478.308H360.557V489H357.641ZM381.009 489V475.743H383.925V489H381.009ZM367.671 489V475.743H370.587V479.766H373.8C375.438 479.766 376.734 480.189 377.688 481.035C378.66 481.863 379.146 482.979 379.146 484.383C379.146 485.715 378.687 486.822 377.769 487.704C376.851 488.568 375.573 489 373.935 489H367.671ZM370.587 486.543H373.476C374.34 486.543 375.006 486.354 375.474 485.976C375.96 485.598 376.203 485.067 376.203 484.383C376.203 483.699 375.96 483.168 375.474 482.79C375.006 482.412 374.34 482.223 373.476 482.223H370.587V486.543ZM286.843 520.351C284.863 520.351 283.171 519.694 281.767 518.38C280.381 517.066 279.688 515.383 279.688 513.331C279.688 511.297 280.381 509.632 281.767 508.336C283.171 507.04 284.872 506.392 286.87 506.392C288.364 506.392 289.696 506.698 290.866 507.31V509.821C289.678 509.245 288.49 508.957 287.302 508.957C285.988 508.957 284.872 509.371 283.954 510.199C283.054 511.027 282.604 512.08 282.604 513.358C282.604 514.636 283.054 515.698 283.954 516.544C284.872 517.372 285.988 517.786 287.302 517.786C288.67 517.786 289.93 517.453 291.082 516.787V519.271C289.822 519.991 288.409 520.351 286.843 520.351ZM307.107 517.732C307.395 517.732 307.656 517.669 307.89 517.543V519.757C307.494 520.045 306.927 520.189 306.189 520.189C304.713 520.189 303.786 519.559 303.408 518.299C302.202 519.667 300.573 520.351 298.521 520.351C297.081 520.351 295.893 519.955 294.957 519.163C294.021 518.371 293.553 517.282 293.553 515.896C293.553 514.492 294.066 513.412 295.092 512.656C296.118 511.882 297.378 511.495 298.872 511.495C300.438 511.495 301.851 511.837 303.111 512.521V511.792C303.111 509.866 301.815 508.903 299.223 508.903C297.711 508.903 296.316 509.299 295.038 510.091V507.526C296.352 506.77 297.963 506.392 299.871 506.392C301.707 506.392 303.183 506.833 304.299 507.715C305.433 508.597 306 509.848 306 511.468V516.409C306 516.823 306.099 517.147 306.297 517.381C306.513 517.615 306.783 517.732 307.107 517.732ZM303.111 516.247V514.627C302.049 513.997 300.87 513.682 299.574 513.682C298.602 513.682 297.837 513.862 297.279 514.222C296.739 514.582 296.469 515.086 296.469 515.734C296.469 516.436 296.73 516.967 297.252 517.327C297.774 517.669 298.467 517.84 299.331 517.84C300.105 517.84 300.825 517.687 301.491 517.381C302.157 517.075 302.697 516.697 303.111 516.247ZM311.699 525.535C310.601 525.535 309.8 525.391 309.296 525.103V522.538C309.89 522.826 310.529 522.97 311.213 522.97C311.969 522.97 312.599 522.691 313.103 522.133C313.625 521.593 314.138 520.72 314.642 519.514L308.837 506.743H312.077L316.073 516.085L319.934 506.743H323.093L316.748 521.431C315.542 524.167 313.859 525.535 311.699 525.535ZM337.957 517.732C338.245 517.732 338.506 517.669 338.74 517.543V519.757C338.344 520.045 337.777 520.189 337.039 520.189C335.563 520.189 334.636 519.559 334.258 518.299C333.052 519.667 331.423 520.351 329.371 520.351C327.931 520.351 326.743 519.955 325.807 519.163C324.871 518.371 324.403 517.282 324.403 515.896C324.403 514.492 324.916 513.412 325.942 512.656C326.968 511.882 328.228 511.495 329.722 511.495C331.288 511.495 332.701 511.837 333.961 512.521V511.792C333.961 509.866 332.665 508.903 330.073 508.903C328.561 508.903 327.166 509.299 325.888 510.091V507.526C327.202 506.77 328.813 506.392 330.721 506.392C332.557 506.392 334.033 506.833 335.149 507.715C336.283 508.597 336.85 509.848 336.85 511.468V516.409C336.85 516.823 336.949 517.147 337.147 517.381C337.363 517.615 337.633 517.732 337.957 517.732ZM333.961 516.247V514.627C332.899 513.997 331.72 513.682 330.424 513.682C329.452 513.682 328.687 513.862 328.129 514.222C327.589 514.582 327.319 515.086 327.319 515.734C327.319 516.436 327.58 516.967 328.102 517.327C328.624 517.669 329.317 517.84 330.181 517.84C330.955 517.84 331.675 517.687 332.341 517.381C333.007 517.075 333.547 516.697 333.961 516.247ZM344.141 520V509.308H339.659V506.743H351.512V509.308H347.057V520H344.141ZM357.641 520V509.308H353.159V506.743H365.012V509.308H360.557V520H357.641ZM381.009 520V506.743H383.925V520H381.009ZM367.671 520V506.743H370.587V510.766H373.8C375.438 510.766 376.734 511.189 377.688 512.035C378.66 512.863 379.146 513.979 379.146 515.383C379.146 516.715 378.687 517.822 377.769 518.704C376.851 519.568 375.573 520 373.935 520H367.671ZM370.587 517.543H373.476C374.34 517.543 375.006 517.354 375.474 516.976C375.96 516.598 376.203 516.067 376.203 515.383C376.203 514.699 375.96 514.168 375.474 513.79C375.006 513.412 374.34 513.223 373.476 513.223H370.587V517.543Z" fill="black"/>
<rect x="122.5" y="577.5" width="278" height="89" rx="13.5" stroke="black"/>
<path d="M164.63 616.351C161.804 616.351 159.437 615.433 157.529 613.597C155.621 611.743 154.667 609.394 154.667 606.55C154.667 603.706 155.612 601.366 157.502 599.53C159.392 597.676 161.768 596.749 164.63 596.749C166.556 596.749 168.266 597.172 169.76 598.018V601.015C168.212 600.025 166.511 599.53 164.657 599.53C162.659 599.53 161.003 600.196 159.689 601.528C158.375 602.842 157.718 604.516 157.718 606.55C157.718 608.602 158.384 610.285 159.716 611.599C161.066 612.913 162.749 613.57 164.765 613.57C166.907 613.57 168.707 612.994 170.165 611.842V614.839C168.599 615.847 166.754 616.351 164.63 616.351ZM185.976 613.732C186.264 613.732 186.525 613.669 186.759 613.543V615.757C186.363 616.045 185.796 616.189 185.058 616.189C183.582 616.189 182.655 615.559 182.277 614.299C181.071 615.667 179.442 616.351 177.39 616.351C175.95 616.351 174.762 615.955 173.826 615.163C172.89 614.371 172.422 613.282 172.422 611.896C172.422 610.492 172.935 609.412 173.961 608.656C174.987 607.882 176.247 607.495 177.741 607.495C179.307 607.495 180.72 607.837 181.98 608.521V607.792C181.98 605.866 180.684 604.903 178.092 604.903C176.58 604.903 175.185 605.299 173.907 606.091V603.526C175.221 602.77 176.832 602.392 178.74 602.392C180.576 602.392 182.052 602.833 183.168 603.715C184.302 604.597 184.869 605.848 184.869 607.468V612.409C184.869 612.823 184.968 613.147 185.166 613.381C185.382 613.615 185.652 613.732 185.976 613.732ZM181.98 612.247V610.627C180.918 609.997 179.739 609.682 178.443 609.682C177.471 609.682 176.706 609.862 176.148 610.222C175.608 610.582 175.338 611.086 175.338 611.734C175.338 612.436 175.599 612.967 176.121 613.327C176.643 613.669 177.336 613.84 178.2 613.84C178.974 613.84 179.694 613.687 180.36 613.381C181.026 613.075 181.566 612.697 181.98 612.247ZM194.257 605.308L194.203 607.225C194.167 608.215 194.113 609.07 194.041 609.79C193.969 610.51 193.825 611.293 193.609 612.139C193.393 612.967 193.105 613.651 192.745 614.191C192.403 614.713 191.917 615.154 191.287 615.514C190.657 615.874 189.91 616.054 189.046 616.054C188.668 616.054 188.362 616.018 188.128 615.946V613.435C188.254 613.489 188.452 613.516 188.722 613.516C189.676 613.516 190.351 613.021 190.747 612.031C191.143 611.023 191.359 609.367 191.395 607.063L191.476 602.743H202.168V616H199.252V605.308H194.257ZM218.777 613.732C219.065 613.732 219.326 613.669 219.56 613.543V615.757C219.164 616.045 218.597 616.189 217.859 616.189C216.383 616.189 215.456 615.559 215.078 614.299C213.872 615.667 212.243 616.351 210.191 616.351C208.751 616.351 207.563 615.955 206.627 615.163C205.691 614.371 205.223 613.282 205.223 611.896C205.223 610.492 205.736 609.412 206.762 608.656C207.788 607.882 209.048 607.495 210.542 607.495C212.108 607.495 213.521 607.837 214.781 608.521V607.792C214.781 605.866 213.485 604.903 210.893 604.903C209.381 604.903 207.986 605.299 206.708 606.091V603.526C208.022 602.77 209.633 602.392 211.541 602.392C213.377 602.392 214.853 602.833 215.969 603.715C217.103 604.597 217.67 605.848 217.67 607.468V612.409C217.67 612.823 217.769 613.147 217.967 613.381C218.183 613.615 218.453 613.732 218.777 613.732ZM214.781 612.247V610.627C213.719 609.997 212.54 609.682 211.244 609.682C210.272 609.682 209.507 609.862 208.949 610.222C208.409 610.582 208.139 611.086 208.139 611.734C208.139 612.436 208.4 612.967 208.922 613.327C209.444 613.669 210.137 613.84 211.001 613.84C211.775 613.84 212.495 613.687 213.161 613.381C213.827 613.075 214.367 612.697 214.781 612.247ZM223.368 621.535C222.27 621.535 221.469 621.391 220.965 621.103V618.538C221.559 618.826 222.198 618.97 222.882 618.97C223.638 618.97 224.268 618.691 224.772 618.133C225.294 617.593 225.807 616.72 226.311 615.514L220.506 602.743H223.746L227.742 612.085L231.603 602.743H234.762L228.417 617.431C227.211 620.167 225.528 621.535 223.368 621.535ZM249.627 613.732C249.915 613.732 250.176 613.669 250.41 613.543V615.757C250.014 616.045 249.447 616.189 248.709 616.189C247.233 616.189 246.306 615.559 245.928 614.299C244.722 615.667 243.093 616.351 241.041 616.351C239.601 616.351 238.413 615.955 237.477 615.163C236.541 614.371 236.073 613.282 236.073 611.896C236.073 610.492 236.586 609.412 237.612 608.656C238.638 607.882 239.898 607.495 241.392 607.495C242.958 607.495 244.371 607.837 245.631 608.521V607.792C245.631 605.866 244.335 604.903 241.743 604.903C240.231 604.903 238.836 605.299 237.558 606.091V603.526C238.872 602.77 240.483 602.392 242.391 602.392C244.227 602.392 245.703 602.833 246.819 603.715C247.953 604.597 248.52 605.848 248.52 607.468V612.409C248.52 612.823 248.619 613.147 248.817 613.381C249.033 613.615 249.303 613.732 249.627 613.732ZM245.631 612.247V610.627C244.569 609.997 243.39 609.682 242.094 609.682C241.122 609.682 240.357 609.862 239.799 610.222C239.259 610.582 238.989 611.086 238.989 611.734C238.989 612.436 239.25 612.967 239.772 613.327C240.294 613.669 240.987 613.84 241.851 613.84C242.625 613.84 243.345 613.687 244.011 613.381C244.677 613.075 245.217 612.697 245.631 612.247ZM255.811 616V605.308H251.329V602.743H263.182V605.308H258.727V616H255.811ZM269.311 616V605.308H264.829V602.743H276.682V605.308H272.227V616H269.311ZM292.679 616V602.743H295.595V616H292.679ZM279.341 616V602.743H282.257V606.766H285.47C287.108 606.766 288.404 607.189 289.358 608.035C290.33 608.863 290.816 609.979 290.816 611.383C290.816 612.715 290.357 613.822 289.439 614.704C288.521 615.568 287.243 616 285.605 616H279.341ZM282.257 613.543H285.146C286.01 613.543 286.676 613.354 287.144 612.976C287.63 612.598 287.873 612.067 287.873 611.383C287.873 610.699 287.63 610.168 287.144 609.79C286.676 609.412 286.01 609.223 285.146 609.223H282.257V613.543ZM307.168 617.188V615.028H310.435L305.251 602.743H308.464L312.595 612.922L316.672 602.743H319.777L314.566 615.028H317.86V617.188H313.972V621.4H311.056V617.188H307.168ZM330.066 602.392C331.92 602.392 333.45 603.076 334.656 604.444C335.88 605.794 336.492 607.441 336.492 609.385C336.492 611.329 335.88 612.976 334.656 614.326C333.45 615.676 331.92 616.351 330.066 616.351C327.996 616.351 326.421 615.631 325.341 614.191V621.4H322.425V602.743H325.341V604.552C326.421 603.112 327.996 602.392 330.066 602.392ZM329.283 604.957C328.401 604.957 327.609 605.182 326.907 605.632C326.223 606.064 325.701 606.631 325.341 607.333V611.437C325.701 612.121 326.223 612.688 326.907 613.138C327.609 613.57 328.401 613.786 329.283 613.786C330.507 613.786 331.524 613.363 332.334 612.517C333.144 611.653 333.549 610.609 333.549 609.385C333.549 608.143 333.144 607.099 332.334 606.253C331.524 605.389 330.507 604.957 329.283 604.957ZM339.695 616V602.743H352.061V616H349.145V605.308H342.611V616H339.695ZM368.674 613.732C368.962 613.732 369.223 613.669 369.457 613.543V615.757C369.061 616.045 368.494 616.189 367.756 616.189C366.28 616.189 365.353 615.559 364.975 614.299C363.769 615.667 362.14 616.351 360.088 616.351C358.648 616.351 357.46 615.955 356.524 615.163C355.588 614.371 355.12 613.282 355.12 611.896C355.12 610.492 355.633 609.412 356.659 608.656C357.685 607.882 358.945 607.495 360.439 607.495C362.005 607.495 363.418 607.837 364.678 608.521V607.792C364.678 605.866 363.382 604.903 360.79 604.903C359.278 604.903 357.883 605.299 356.605 606.091V603.526C357.919 602.77 359.53 602.392 361.438 602.392C363.274 602.392 364.75 602.833 365.866 603.715C367 604.597 367.567 605.848 367.567 607.468V612.409C367.567 612.823 367.666 613.147 367.864 613.381C368.08 613.615 368.35 613.732 368.674 613.732ZM364.678 612.247V610.627C363.616 609.997 362.437 609.682 361.141 609.682C360.169 609.682 359.404 609.862 358.846 610.222C358.306 610.582 358.036 611.086 358.036 611.734C358.036 612.436 358.297 612.967 358.819 613.327C359.341 613.669 360.034 613.84 360.898 613.84C361.672 613.84 362.392 613.687 363.058 613.381C363.724 613.075 364.264 612.697 364.678 612.247ZM372.338 616V602.743H375.254V607.765L380.492 602.743H384.218L377.927 608.683L382.625 613.435H385.163V619.645H382.328V616H381.167L375.254 610.006V616H372.338ZM334.404 652.562H331.407C328.761 649.286 327.438 645.182 327.438 640.25C327.438 635.318 328.761 631.214 331.407 627.938H334.404C331.56 631.538 330.138 635.642 330.138 640.25C330.138 644.858 331.56 648.962 334.404 652.562ZM337.698 647V628.1H345.825C347.769 628.1 349.308 628.613 350.442 629.639C351.576 630.647 352.143 631.961 352.143 633.581C352.143 635.237 351.576 636.587 350.442 637.631C349.308 638.675 347.769 639.197 345.825 639.197H340.668V647H337.698ZM340.668 636.47H345.582C346.716 636.47 347.589 636.227 348.201 635.741C348.831 635.255 349.146 634.553 349.146 633.635C349.146 632.717 348.831 632.024 348.201 631.556C347.589 631.07 346.716 630.827 345.582 630.827H340.668V636.47ZM364.836 647.351H364.539C361.785 647.351 359.49 646.415 357.654 644.543C355.818 642.653 354.9 640.322 354.9 637.55C354.9 634.778 355.818 632.456 357.654 630.584C359.49 628.694 361.785 627.749 364.539 627.749C367.293 627.749 369.588 628.694 371.424 630.584C373.278 632.456 374.205 634.778 374.205 637.55C374.205 639.638 373.656 641.501 372.558 643.139C371.478 644.777 370.029 645.956 368.211 646.676C369.201 647.702 370.209 648.215 371.235 648.215C372.099 648.215 372.846 648.017 373.476 647.621V650.348C372.666 650.744 371.766 650.942 370.776 650.942C369.732 650.942 368.751 650.645 367.833 650.051C366.915 649.457 365.916 648.557 364.836 647.351ZM364.539 644.57C366.429 644.57 368.004 643.904 369.264 642.572C370.524 641.24 371.154 639.566 371.154 637.55C371.154 635.534 370.524 633.86 369.264 632.528C368.004 631.196 366.429 630.53 364.539 630.53C362.667 630.53 361.101 631.196 359.841 632.528C358.581 633.86 357.951 635.534 357.951 637.55C357.951 639.566 358.581 641.24 359.841 642.572C361.101 643.904 362.667 644.57 364.539 644.57ZM379.817 652.562H376.82C379.664 648.962 381.086 644.858 381.086 640.25C381.086 635.642 379.664 631.538 376.82 627.938H379.817C382.463 631.214 383.786 635.318 383.786 640.25C383.786 645.182 382.463 649.286 379.817 652.562Z" fill="black"/>
<rect x="782.5" y="227.5" width="182" height="58" rx="13.5" stroke="black"/>
<path d="M799.349 266V247.1H812.687V249.827H802.319V253.823H807.341C809.483 253.823 811.175 254.39 812.417 255.524C813.659 256.658 814.28 258.125 814.28 259.925C814.28 261.743 813.659 263.21 812.417 264.326C811.193 265.442 809.501 266 807.341 266H799.349ZM802.319 263.273H807.071C808.403 263.273 809.429 262.985 810.149 262.409C810.887 261.833 811.256 261.005 811.256 259.925C811.256 258.863 810.887 258.035 810.149 257.441C809.429 256.847 808.403 256.55 807.071 256.55H802.319V263.273ZM818.016 266V252.743H820.932V266H818.016ZM820.77 249.854C820.428 250.196 819.996 250.367 819.474 250.367C818.952 250.367 818.511 250.196 818.151 249.854C817.809 249.494 817.638 249.053 817.638 248.531C817.638 248.009 817.809 247.568 818.151 247.208C818.511 246.848 818.952 246.668 819.474 246.668C819.996 246.668 820.428 246.848 820.77 247.208C821.112 247.568 821.283 248.009 821.283 248.531C821.283 249.053 821.112 249.494 820.77 249.854ZM829.958 255.308L829.904 257.225C829.868 258.215 829.814 259.07 829.742 259.79C829.67 260.51 829.526 261.293 829.31 262.139C829.094 262.967 828.806 263.651 828.446 264.191C828.104 264.713 827.618 265.154 826.988 265.514C826.358 265.874 825.611 266.054 824.747 266.054C824.369 266.054 824.063 266.018 823.829 265.946V263.435C823.955 263.489 824.153 263.516 824.423 263.516C825.377 263.516 826.052 263.021 826.448 262.031C826.844 261.023 827.06 259.367 827.096 257.063L827.177 252.743H837.869V266H834.953V255.308H829.958ZM842.274 266V252.743H845.19V266H842.274ZM845.028 249.854C844.686 250.196 844.254 250.367 843.732 250.367C843.21 250.367 842.769 250.196 842.409 249.854C842.067 249.494 841.896 249.053 841.896 248.531C841.896 248.009 842.067 247.568 842.409 247.208C842.769 246.848 843.21 246.668 843.732 246.668C844.254 246.668 844.686 246.848 845.028 247.208C845.37 247.568 845.541 248.009 845.541 248.531C845.541 249.053 845.37 249.494 845.028 249.854ZM849.599 266V252.743H852.461L856.997 258.251L861.56 252.743H864.422V266H861.614V256.712L857.564 261.599H856.43L852.407 256.712V266H849.599ZM867.071 269.645V263.435H868.799C869.501 262.391 869.996 261.068 870.284 259.466C870.572 257.864 870.716 255.623 870.716 252.743H881.273V263.435H883.568V269.645H880.814V266H869.879V269.645H867.071ZM871.877 263.435H878.357V255.308H873.389C873.389 258.8 872.885 261.509 871.877 263.435ZM886.729 266V252.743H889.645V266H886.729ZM889.483 249.854C889.141 250.196 888.709 250.367 888.187 250.367C887.665 250.367 887.224 250.196 886.864 249.854C886.522 249.494 886.351 249.053 886.351 248.531C886.351 248.009 886.522 247.568 886.864 247.208C887.224 246.848 887.665 246.668 888.187 246.668C888.709 246.668 889.141 246.848 889.483 247.208C889.825 247.568 889.996 248.009 889.996 248.531C889.996 249.053 889.825 249.494 889.483 249.854ZM908.168 271.562H905.171C902.525 268.286 901.202 264.182 901.202 259.25C901.202 254.318 902.525 250.214 905.171 246.938H908.168C905.324 250.538 903.902 254.642 903.902 259.25C903.902 263.858 905.324 267.962 908.168 271.562ZM911.597 266V247.1H914.567V266H911.597ZM928.686 266.351H928.389C925.635 266.351 923.34 265.415 921.504 263.543C919.668 261.653 918.75 259.322 918.75 256.55C918.75 253.778 919.668 251.456 921.504 249.584C923.34 247.694 925.635 246.749 928.389 246.749C931.143 246.749 933.438 247.694 935.274 249.584C937.128 251.456 938.055 253.778 938.055 256.55C938.055 258.638 937.506 260.501 936.408 262.139C935.328 263.777 933.879 264.956 932.061 265.676C933.051 266.702 934.059 267.215 935.085 267.215C935.949 267.215 936.696 267.017 937.326 266.621V269.348C936.516 269.744 935.616 269.942 934.626 269.942C933.582 269.942 932.601 269.645 931.683 269.051C930.765 268.457 929.766 267.557 928.686 266.351ZM928.389 263.57C930.279 263.57 931.854 262.904 933.114 261.572C934.374 260.24 935.004 258.566 935.004 256.55C935.004 254.534 934.374 252.86 933.114 251.528C931.854 250.196 930.279 249.53 928.389 249.53C926.517 249.53 924.951 250.196 923.691 251.528C922.431 252.86 921.801 254.534 921.801 256.55C921.801 258.566 922.431 260.24 923.691 261.572C924.951 262.904 926.517 263.57 928.389 263.57ZM943.668 271.562H940.671C943.515 267.962 944.937 263.858 944.937 259.25C944.937 254.642 943.515 250.538 940.671 246.938H943.668C946.314 250.214 947.637 254.318 947.637 259.25C947.637 264.182 946.314 268.286 943.668 271.562Z" fill="black"/>
<rect x="782.5" y="323.5" width="330" height="89" rx="13.5" stroke="black"/>
<path d="M799.349 362V343.1H812.795V345.827H802.319V350.552H810.851V353.279H802.319V359.273H813.146V362H799.349ZM824.017 348.392C825.871 348.392 827.401 349.076 828.607 350.444C829.831 351.794 830.443 353.441 830.443 355.385C830.443 357.329 829.831 358.976 828.607 360.326C827.401 361.676 825.871 362.351 824.017 362.351C821.947 362.351 820.372 361.631 819.292 360.191V367.4H816.376V348.743H819.292V350.552C820.372 349.112 821.947 348.392 824.017 348.392ZM823.234 350.957C822.352 350.957 821.56 351.182 820.858 351.632C820.174 352.064 819.652 352.631 819.292 353.333V357.437C819.652 358.121 820.174 358.688 820.858 359.138C821.56 359.57 822.352 359.786 823.234 359.786C824.458 359.786 825.475 359.363 826.285 358.517C827.095 357.653 827.5 356.609 827.5 355.385C827.5 354.143 827.095 353.099 826.285 352.253C825.475 351.389 824.458 350.957 823.234 350.957ZM833.889 362V348.743H836.805V362H833.889ZM836.643 345.854C836.301 346.196 835.869 346.367 835.347 346.367C834.825 346.367 834.384 346.196 834.024 345.854C833.682 345.494 833.511 345.053 833.511 344.531C833.511 344.009 833.682 343.568 834.024 343.208C834.384 342.848 834.825 342.668 835.347 342.668C835.869 342.668 836.301 342.848 836.643 343.208C836.985 343.568 837.156 344.009 837.156 344.531C837.156 345.053 836.985 345.494 836.643 345.854ZM841.214 362V348.743H844.13V353.765L849.368 348.743H853.094L846.803 354.683L854.039 362H850.043L844.13 356.006V362H841.214ZM855.597 355.871V353.252H863.562V355.871H855.597ZM865.334 362L871.652 354.899L866.09 348.743H869.519L874.163 353.927V348.743H877.079V353.927L881.723 348.743H885.152L879.536 354.899L885.908 362H882.29L877.079 356.087V362H874.163V356.087L868.925 362H865.334ZM888.944 362V348.743H891.86V362H888.944ZM891.698 345.854C891.356 346.196 890.924 346.367 890.402 346.367C889.88 346.367 889.439 346.196 889.079 345.854C888.737 345.494 888.566 345.053 888.566 344.531C888.566 344.009 888.737 343.568 889.079 343.208C889.439 342.848 889.88 342.668 890.402 342.668C890.924 342.668 891.356 342.848 891.698 343.208C892.04 343.568 892.211 344.009 892.211 344.531C892.211 345.053 892.04 345.494 891.698 345.854ZM896.268 362V348.743H906.528V351.308H899.184V362H896.268ZM920.289 361.055C919.083 361.919 917.454 362.351 915.402 362.351C913.35 362.351 911.613 361.703 910.191 360.407C908.787 359.111 908.085 357.428 908.085 355.358C908.085 353.378 908.715 351.722 909.975 350.39C911.235 349.058 912.873 348.392 914.889 348.392C916.869 348.392 918.408 349.103 919.506 350.525C920.622 351.929 921.18 353.576 921.18 355.466V356.222H911.028C911.226 357.338 911.766 358.211 912.648 358.841C913.548 359.471 914.673 359.786 916.023 359.786C917.607 359.786 919.029 359.39 920.289 358.598V361.055ZM911.055 354.008H918.237C918.237 353.216 917.922 352.496 917.292 351.848C916.68 351.182 915.834 350.849 914.754 350.849C913.692 350.849 912.828 351.164 912.162 351.794C911.496 352.406 911.127 353.144 911.055 354.008ZM932.122 348.392C933.976 348.392 935.506 349.076 936.712 350.444C937.936 351.794 938.548 353.441 938.548 355.385C938.548 357.329 937.936 358.976 936.712 360.326C935.506 361.676 933.976 362.351 932.122 362.351C930.052 362.351 928.477 361.631 927.397 360.191V367.4H924.481V348.743H927.397V350.552C928.477 349.112 930.052 348.392 932.122 348.392ZM931.339 350.957C930.457 350.957 929.665 351.182 928.963 351.632C928.279 352.064 927.757 352.631 927.397 353.333V357.437C927.757 358.121 928.279 358.688 928.963 359.138C929.665 359.57 930.457 359.786 931.339 359.786C932.563 359.786 933.58 359.363 934.39 358.517C935.2 357.653 935.605 356.609 935.605 355.385C935.605 354.143 935.2 353.099 934.39 352.253C933.58 351.389 932.563 350.957 931.339 350.957ZM945.973 351.308L945.919 353.225C945.883 354.215 945.829 355.07 945.757 355.79C945.685 356.51 945.541 357.293 945.325 358.139C945.109 358.967 944.821 359.651 944.461 360.191C944.119 360.713 943.633 361.154 943.003 361.514C942.373 361.874 941.626 362.054 940.762 362.054C940.384 362.054 940.078 362.018 939.844 361.946V359.435C939.97 359.489 940.168 359.516 940.438 359.516C941.392 359.516 942.067 359.021 942.463 358.031C942.859 357.023 943.075 355.367 943.111 353.063L943.192 348.743H953.884V362H950.968V351.308H945.973ZM958.29 362V348.743H961.206V362H958.29ZM961.044 345.854C960.702 346.196 960.27 346.367 959.748 346.367C959.226 346.367 958.785 346.196 958.425 345.854C958.083 345.494 957.912 345.053 957.912 344.531C957.912 344.009 958.083 343.568 958.425 343.208C958.785 342.848 959.226 342.668 959.748 342.668C960.27 342.668 960.702 342.848 961.044 343.208C961.386 343.568 961.557 344.009 961.557 344.531C961.557 345.053 961.386 345.494 961.044 345.854ZM985.075 359.732C985.363 359.732 985.624 359.669 985.858 359.543V361.757C985.462 362.045 984.895 362.189 984.157 362.189C982.681 362.189 981.754 361.559 981.376 360.299C980.17 361.667 978.541 362.351 976.489 362.351C975.049 362.351 973.861 361.955 972.925 361.163C971.989 360.371 971.521 359.282 971.521 357.896C971.521 356.492 972.034 355.412 973.06 354.656C974.086 353.882 975.346 353.495 976.84 353.495C978.406 353.495 979.819 353.837 981.079 354.521V353.792C981.079 351.866 979.783 350.903 977.191 350.903C975.679 350.903 974.284 351.299 973.006 352.091V349.526C974.32 348.77 975.931 348.392 977.839 348.392C979.675 348.392 981.151 348.833 982.267 349.715C983.401 350.597 983.968 351.848 983.968 353.468V358.409C983.968 358.823 984.067 359.147 984.265 359.381C984.481 359.615 984.751 359.732 985.075 359.732ZM981.079 358.247V356.627C980.017 355.997 978.838 355.682 977.542 355.682C976.57 355.682 975.805 355.862 975.247 356.222C974.707 356.582 974.437 357.086 974.437 357.734C974.437 358.436 974.698 358.967 975.22 359.327C975.742 359.669 976.435 359.84 977.299 359.84C978.073 359.84 978.793 359.687 979.459 359.381C980.125 359.075 980.665 358.697 981.079 358.247ZM993.193 362.351C991.123 362.351 989.44 362.036 988.144 361.406V358.76C989.62 359.48 991.168 359.84 992.788 359.84C993.94 359.84 994.849 359.678 995.515 359.354C996.181 359.03 996.514 358.553 996.514 357.923C996.514 356.807 995.542 356.249 993.598 356.249H991.141V353.9H993.598C995.254 353.9 996.082 353.414 996.082 352.442C996.082 351.416 995.011 350.903 992.869 350.903C991.501 350.903 990.052 351.227 988.522 351.875V349.31C989.89 348.698 991.546 348.392 993.49 348.392C995.092 348.392 996.424 348.725 997.486 349.391C998.548 350.057 999.079 350.912 999.079 351.956C999.079 353.468 998.404 354.44 997.054 354.872C998.746 355.394 999.592 356.483 999.592 358.139C999.592 359.381 999.007 360.398 997.837 361.19C996.667 361.964 995.119 362.351 993.193 362.351ZM1015.45 359.732C1015.74 359.732 1016 359.669 1016.23 359.543V361.757C1015.84 362.045 1015.27 362.189 1014.53 362.189C1013.06 362.189 1012.13 361.559 1011.75 360.299C1010.54 361.667 1008.92 362.351 1006.86 362.351C1005.42 362.351 1004.24 361.955 1003.3 361.163C1002.36 360.371 1001.9 359.282 1001.9 357.896C1001.9 356.492 1002.41 355.412 1003.43 354.656C1004.46 353.882 1005.72 353.495 1007.21 353.495C1008.78 353.495 1010.19 353.837 1011.45 354.521V353.792C1011.45 351.866 1010.16 350.903 1007.57 350.903C1006.05 350.903 1004.66 351.299 1003.38 352.091V349.526C1004.69 348.77 1006.31 348.392 1008.21 348.392C1010.05 348.392 1011.53 348.833 1012.64 349.715C1013.78 350.597 1014.34 351.848 1014.34 353.468V358.409C1014.34 358.823 1014.44 359.147 1014.64 359.381C1014.86 359.615 1015.13 359.732 1015.45 359.732ZM1011.45 358.247V356.627C1010.39 355.997 1009.21 355.682 1007.92 355.682C1006.94 355.682 1006.18 355.862 1005.62 356.222C1005.08 356.582 1004.81 357.086 1004.81 357.734C1004.81 358.436 1005.07 358.967 1005.59 359.327C1006.12 359.669 1006.81 359.84 1007.67 359.84C1008.45 359.84 1009.17 359.687 1009.83 359.381C1010.5 359.075 1011.04 358.697 1011.45 358.247ZM1019.11 362V348.743H1021.98L1026.51 354.251L1031.07 348.743H1033.94V362H1031.13V352.712L1027.08 357.599H1025.94L1021.92 352.712V362H1019.11ZM1050.54 359.732C1050.83 359.732 1051.09 359.669 1051.33 359.543V361.757C1050.93 362.045 1050.36 362.189 1049.63 362.189C1048.15 362.189 1047.22 361.559 1046.85 360.299C1045.64 361.667 1044.01 362.351 1041.96 362.351C1040.52 362.351 1039.33 361.955 1038.39 361.163C1037.46 360.371 1036.99 359.282 1036.99 357.896C1036.99 356.492 1037.5 355.412 1038.53 354.656C1039.56 353.882 1040.82 353.495 1042.31 353.495C1043.88 353.495 1045.29 353.837 1046.55 354.521V353.792C1046.55 351.866 1045.25 350.903 1042.66 350.903C1041.15 350.903 1039.75 351.299 1038.48 352.091V349.526C1039.79 348.77 1041.4 348.392 1043.31 348.392C1045.14 348.392 1046.62 348.833 1047.74 349.715C1048.87 350.597 1049.44 351.848 1049.44 353.468V358.409C1049.44 358.823 1049.54 359.147 1049.73 359.381C1049.95 359.615 1050.22 359.732 1050.54 359.732ZM1046.55 358.247V356.627C1045.49 355.997 1044.31 355.682 1043.01 355.682C1042.04 355.682 1041.27 355.862 1040.72 356.222C1040.18 356.582 1039.91 357.086 1039.91 357.734C1039.91 358.436 1040.17 358.967 1040.69 359.327C1041.21 359.669 1041.9 359.84 1042.77 359.84C1043.54 359.84 1044.26 359.687 1044.93 359.381C1045.59 359.075 1046.13 358.697 1046.55 358.247ZM1056.73 362V351.308H1052.25V348.743H1064.1V351.308H1059.65V362H1056.73Z" fill="black"/>
<path d="M806.18 398.562H803.183C800.537 395.286 799.214 391.182 799.214 386.25C799.214 381.318 800.537 377.214 803.183 373.938H806.18C803.336 377.538 801.914 381.642 801.914 386.25C801.914 390.858 803.336 394.962 806.18 398.562ZM809.474 393V374.1H817.601C819.545 374.1 821.084 374.613 822.218 375.639C823.352 376.647 823.919 377.961 823.919 379.581C823.919 381.237 823.352 382.587 822.218 383.631C821.084 384.675 819.545 385.197 817.601 385.197H812.444V393H809.474ZM812.444 382.47H817.358C818.492 382.47 819.365 382.227 819.977 381.741C820.607 381.255 820.922 380.553 820.922 379.635C820.922 378.717 820.607 378.024 819.977 377.556C819.365 377.07 818.492 376.827 817.358 376.827H812.444V382.47ZM832.609 390.786C833.851 390.786 834.886 390.363 835.714 389.517C836.542 388.671 836.956 387.618 836.956 386.358C836.956 385.116 836.542 384.072 835.714 383.226C834.886 382.38 833.851 381.957 832.609 381.957C831.367 381.957 830.323 382.38 829.477 383.226C828.649 384.072 828.235 385.116 828.235 386.358C828.235 387.618 828.649 388.671 829.477 389.517C830.305 390.363 831.349 390.786 832.609 390.786ZM837.82 391.326C836.47 392.676 834.733 393.351 832.609 393.351C830.485 393.351 828.739 392.676 827.371 391.326C826.003 389.976 825.319 388.32 825.319 386.358C825.319 384.414 826.003 382.767 827.371 381.417C828.739 380.067 830.485 379.392 832.609 379.392C834.733 379.392 836.47 380.067 837.82 381.417C839.188 382.767 839.872 384.414 839.872 386.358C839.872 388.32 839.188 389.976 837.82 391.326ZM846.116 393.108L841.499 379.743H844.469L847.574 388.761L850.652 379.689H853.055L856.187 388.761L859.265 379.743H862.208L857.564 393.108H855.026L851.813 383.955L848.627 393.108H846.116ZM876.045 392.055C874.839 392.919 873.21 393.351 871.158 393.351C869.106 393.351 867.369 392.703 865.947 391.407C864.543 390.111 863.841 388.428 863.841 386.358C863.841 384.378 864.471 382.722 865.731 381.39C866.991 380.058 868.629 379.392 870.645 379.392C872.625 379.392 874.164 380.103 875.262 381.525C876.378 382.929 876.936 384.576 876.936 386.466V387.222H866.784C866.982 388.338 867.522 389.211 868.404 389.841C869.304 390.471 870.429 390.786 871.779 390.786C873.363 390.786 874.785 390.39 876.045 389.598V392.055ZM866.811 385.008H873.993C873.993 384.216 873.678 383.496 873.048 382.848C872.436 382.182 871.59 381.849 870.51 381.849C869.448 381.849 868.584 382.164 867.918 382.794C867.252 383.406 866.883 384.144 866.811 385.008ZM880.237 393V379.743H883.153V382.038C883.603 381.264 884.269 380.634 885.151 380.148C886.051 379.644 887.014 379.392 888.04 379.392C888.166 379.392 888.256 379.401 888.31 379.419V382.335C888.058 382.299 887.788 382.281 887.5 382.281C886.456 382.281 885.538 382.551 884.746 383.091C883.972 383.613 883.441 384.207 883.153 384.873V393H880.237ZM898.252 393V374.1H901.276L907.405 382.605L913.48 374.1H916.45V393H913.48V378.636L908.215 385.764H906.487L901.222 378.636V393H898.252ZM933.316 390.732C933.604 390.732 933.865 390.669 934.099 390.543V392.757C933.703 393.045 933.136 393.189 932.398 393.189C930.922 393.189 929.995 392.559 929.617 391.299C928.411 392.667 926.782 393.351 924.73 393.351C923.29 393.351 922.102 392.955 921.166 392.163C920.23 391.371 919.762 390.282 919.762 388.896C919.762 387.492 920.275 386.412 921.301 385.656C922.327 384.882 923.587 384.495 925.081 384.495C926.647 384.495 928.06 384.837 929.32 385.521V384.792C929.32 382.866 928.024 381.903 925.432 381.903C923.92 381.903 922.525 382.299 921.247 383.091V380.526C922.561 379.77 924.172 379.392 926.08 379.392C927.916 379.392 929.392 379.833 930.508 380.715C931.642 381.597 932.209 382.848 932.209 384.468V389.409C932.209 389.823 932.308 390.147 932.506 390.381C932.722 390.615 932.992 390.732 933.316 390.732ZM929.32 389.247V387.627C928.258 386.997 927.079 386.682 925.783 386.682C924.811 386.682 924.046 386.862 923.488 387.222C922.948 387.582 922.678 388.086 922.678 388.734C922.678 389.436 922.939 389.967 923.461 390.327C923.983 390.669 924.676 390.84 925.54 390.84C926.314 390.84 927.034 390.687 927.7 390.381C928.366 390.075 928.906 389.697 929.32 389.247ZM939.895 393H936.979V379.743H939.895V381.498C941.191 380.094 942.811 379.392 944.755 379.392C946.339 379.392 947.554 379.887 948.4 380.877C949.246 381.849 949.669 383.19 949.669 384.9V393H946.753V385.548C946.753 384.252 946.447 383.361 945.835 382.875C945.241 382.371 944.512 382.119 943.648 382.119C942.91 382.119 942.19 382.326 941.488 382.74C940.804 383.154 940.273 383.667 939.895 384.279V393ZM966.011 390.732C966.299 390.732 966.56 390.669 966.794 390.543V392.757C966.398 393.045 965.831 393.189 965.093 393.189C963.617 393.189 962.69 392.559 962.312 391.299C961.106 392.667 959.477 393.351 957.425 393.351C955.985 393.351 954.797 392.955 953.861 392.163C952.925 391.371 952.457 390.282 952.457 388.896C952.457 387.492 952.97 386.412 953.996 385.656C955.022 384.882 956.282 384.495 957.776 384.495C959.342 384.495 960.755 384.837 962.015 385.521V384.792C962.015 382.866 960.719 381.903 958.127 381.903C956.615 381.903 955.22 382.299 953.942 383.091V380.526C955.256 379.77 956.867 379.392 958.775 379.392C960.611 379.392 962.087 379.833 963.203 380.715C964.337 381.597 964.904 382.848 964.904 384.468V389.409C964.904 389.823 965.003 390.147 965.201 390.381C965.417 390.615 965.687 390.732 966.011 390.732ZM962.015 389.247V387.627C960.953 386.997 959.774 386.682 958.478 386.682C957.506 386.682 956.741 386.862 956.183 387.222C955.643 387.582 955.373 388.086 955.373 388.734C955.373 389.436 955.634 389.967 956.156 390.327C956.678 390.669 957.371 390.84 958.235 390.84C959.009 390.84 959.729 390.687 960.395 390.381C961.061 390.075 961.601 389.697 962.015 389.247ZM979.881 379.743H982.797V391.812C982.797 393.99 982.068 395.655 980.61 396.807C979.152 397.959 977.397 398.535 975.345 398.535C973.275 398.535 971.547 398.139 970.161 397.347V394.674C971.583 395.538 973.203 395.97 975.021 395.97C976.425 395.97 977.586 395.646 978.504 394.998C979.422 394.35 979.881 393.306 979.881 391.866V390.867C978.765 392.253 977.19 392.946 975.156 392.946C973.302 392.946 971.763 392.289 970.539 390.975C969.333 389.661 968.73 388.05 968.73 386.142C968.73 384.27 969.333 382.677 970.539 381.363C971.763 380.049 973.302 379.392 975.156 379.392C977.226 379.392 978.801 380.085 979.881 381.471V379.743ZM975.939 390.381C976.821 390.381 977.613 390.174 978.315 389.76C979.017 389.328 979.539 388.779 979.881 388.113V384.252C979.539 383.568 979.017 383.019 978.315 382.605C977.613 382.173 976.821 381.957 975.939 381.957C974.697 381.957 973.671 382.362 972.861 383.172C972.069 383.964 971.673 384.963 971.673 386.169C971.673 387.375 972.069 388.383 972.861 389.193C973.671 389.985 974.697 390.381 975.939 390.381ZM986.866 393V379.743H989.782V381.471C990.79 380.085 992.248 379.392 994.156 379.392C995.2 379.392 996.082 379.608 996.802 380.04C997.54 380.472 998.053 381.048 998.341 381.768C998.827 381.066 999.484 380.499 1000.31 380.067C1001.16 379.617 1002.11 379.392 1003.17 379.392C1004.63 379.392 1005.78 379.842 1006.6 380.742C1007.45 381.642 1007.87 382.965 1007.87 384.711V393H1004.96V385.386C1004.96 383.208 1004.06 382.119 1002.26 382.119C1001.54 382.119 1000.86 382.335 1000.23 382.767C999.601 383.181 999.142 383.703 998.854 384.333V393H995.938V385.386C995.938 383.208 995.029 382.119 993.211 382.119C992.527 382.119 991.861 382.326 991.213 382.74C990.583 383.136 990.106 383.64 989.782 384.252V393H986.866ZM1023.02 392.055C1021.81 392.919 1020.18 393.351 1018.13 393.351C1016.08 393.351 1014.34 392.703 1012.92 391.407C1011.51 390.111 1010.81 388.428 1010.81 386.358C1010.81 384.378 1011.44 382.722 1012.7 381.39C1013.96 380.058 1015.6 379.392 1017.62 379.392C1019.6 379.392 1021.13 380.103 1022.23 381.525C1023.35 382.929 1023.91 384.576 1023.91 386.466V387.222H1013.75C1013.95 388.338 1014.49 389.211 1015.37 389.841C1016.27 390.471 1017.4 390.786 1018.75 390.786C1020.33 390.786 1021.76 390.39 1023.02 389.598V392.055ZM1013.78 385.008H1020.96C1020.96 384.216 1020.65 383.496 1020.02 382.848C1019.41 382.182 1018.56 381.849 1017.48 381.849C1016.42 381.849 1015.55 382.164 1014.89 382.794C1014.22 383.406 1013.85 384.144 1013.78 385.008ZM1030.12 393H1027.21V379.743H1030.12V381.498C1031.42 380.094 1033.04 379.392 1034.98 379.392C1036.57 379.392 1037.78 379.887 1038.63 380.877C1039.47 381.849 1039.9 383.19 1039.9 384.9V393H1036.98V385.548C1036.98 384.252 1036.68 383.361 1036.06 382.875C1035.47 382.371 1034.74 382.119 1033.88 382.119C1033.14 382.119 1032.42 382.326 1031.72 382.74C1031.03 383.154 1030.5 383.667 1030.12 384.279V393ZM1045.17 389.382V382.308H1042.33V379.743H1045.17V375.882H1048.09V379.743H1052.27V382.308H1048.09V388.545C1048.09 389.301 1048.26 389.85 1048.6 390.192C1048.94 390.516 1049.46 390.678 1050.16 390.678C1050.94 390.678 1051.6 390.516 1052.16 390.192V392.703C1051.5 393.135 1050.52 393.351 1049.22 393.351C1047.98 393.351 1046.99 393.018 1046.25 392.352C1045.53 391.686 1045.17 390.696 1045.17 389.382ZM1057.15 398.562H1054.15C1057 394.962 1058.42 390.858 1058.42 386.25C1058.42 381.642 1057 377.538 1054.15 373.938H1057.15C1059.8 377.214 1061.12 381.318 1061.12 386.25C1061.12 391.182 1059.8 395.286 1057.15 398.562Z" fill="#777777"/>
<rect x="782.5" y="450.5" width="229" height="89" rx="13.5" stroke="black"/>
<path d="M799.349 489V470.1H807.476C809.42 470.1 810.959 470.613 812.093 471.639C813.227 472.647 813.794 473.961 813.794 475.581C813.794 477.237 813.227 478.587 812.093 479.631C810.959 480.675 809.42 481.197 807.476 481.197H802.319V489H799.349ZM802.319 478.47H807.233C808.367 478.47 809.24 478.227 809.852 477.741C810.482 477.255 810.797 476.553 810.797 475.635C810.797 474.717 810.482 474.024 809.852 473.556C809.24 473.07 808.367 472.827 807.233 472.827H802.319V478.47ZM818.306 494.535C817.208 494.535 816.407 494.391 815.903 494.103V491.538C816.497 491.826 817.136 491.97 817.82 491.97C818.576 491.97 819.206 491.691 819.71 491.133C820.232 490.593 820.745 489.72 821.249 488.514L815.444 475.743H818.684L822.68 485.085L826.541 475.743H829.7L823.355 490.431C822.149 493.167 820.466 494.535 818.306 494.535ZM834.654 475.743L837.786 479.847L840.945 475.743H844.266L839.46 482.007L844.806 489H841.431L837.732 484.167L834.033 489H830.739L836.085 482.061L831.279 475.743H834.654ZM860.2 486.732C860.488 486.732 860.749 486.669 860.983 486.543V488.757C860.587 489.045 860.02 489.189 859.282 489.189C857.806 489.189 856.879 488.559 856.501 487.299C855.295 488.667 853.666 489.351 851.614 489.351C850.174 489.351 848.986 488.955 848.05 488.163C847.114 487.371 846.646 486.282 846.646 484.896C846.646 483.492 847.159 482.412 848.185 481.656C849.211 480.882 850.471 480.495 851.965 480.495C853.531 480.495 854.944 480.837 856.204 481.521V480.792C856.204 478.866 854.908 477.903 852.316 477.903C850.804 477.903 849.409 478.299 848.131 479.091V476.526C849.445 475.77 851.056 475.392 852.964 475.392C854.8 475.392 856.276 475.833 857.392 476.715C858.526 477.597 859.093 478.848 859.093 480.468V485.409C859.093 485.823 859.192 486.147 859.39 486.381C859.606 486.615 859.876 486.732 860.2 486.732ZM856.204 485.247V483.627C855.142 482.997 853.963 482.682 852.667 482.682C851.695 482.682 850.93 482.862 850.372 483.222C849.832 483.582 849.562 484.086 849.562 484.734C849.562 485.436 849.823 485.967 850.345 486.327C850.867 486.669 851.56 486.84 852.424 486.84C853.198 486.84 853.918 486.687 854.584 486.381C855.25 486.075 855.79 485.697 856.204 485.247ZM863.863 489V475.743H866.779V480.927H873.502V475.743H876.418V489H873.502V483.492H866.779V489H863.863ZM880.58 489V475.743H883.496V484.734L890.651 475.743H893.378V489H890.462V479.982L883.307 489H880.58ZM911.028 489.351C908.742 489.351 906.96 488.559 905.682 486.975C904.422 485.391 903.792 483.276 903.792 480.63C903.792 479.1 903.972 477.768 904.332 476.634C904.71 475.5 905.214 474.564 905.844 473.826C906.474 473.07 907.338 472.422 908.436 471.882C909.552 471.342 910.704 470.919 911.892 470.613C913.098 470.307 914.583 470.01 916.347 469.722V472.422C913.467 472.962 911.595 473.385 910.731 473.691C908.733 474.375 907.446 475.491 906.87 477.039C906.654 477.633 906.519 478.317 906.465 479.091C907.023 478.281 907.761 477.642 908.679 477.174C909.615 476.706 910.668 476.472 911.838 476.472C913.566 476.472 914.997 477.03 916.131 478.146C917.265 479.262 917.832 480.72 917.832 482.52C917.832 484.536 917.175 486.183 915.861 487.461C914.565 488.721 912.954 489.351 911.028 489.351ZM911.028 486.786C912.144 486.786 913.071 486.408 913.809 485.652C914.547 484.896 914.916 483.924 914.916 482.736C914.916 481.602 914.556 480.693 913.836 480.009C913.134 479.325 912.234 478.983 911.136 478.983C910.182 478.983 909.3 479.244 908.49 479.766C907.68 480.288 907.068 480.918 906.654 481.656C906.726 483.276 907.14 484.536 907.896 485.436C908.652 486.336 909.696 486.786 911.028 486.786ZM933.501 486.732C933.789 486.732 934.05 486.669 934.284 486.543V488.757C933.888 489.045 933.321 489.189 932.583 489.189C931.107 489.189 930.18 488.559 929.802 487.299C928.596 488.667 926.967 489.351 924.915 489.351C923.475 489.351 922.287 488.955 921.351 488.163C920.415 487.371 919.947 486.282 919.947 484.896C919.947 483.492 920.46 482.412 921.486 481.656C922.512 480.882 923.772 480.495 925.266 480.495C926.832 480.495 928.245 480.837 929.505 481.521V480.792C929.505 478.866 928.209 477.903 925.617 477.903C924.105 477.903 922.71 478.299 921.432 479.091V476.526C922.746 475.77 924.357 475.392 926.265 475.392C928.101 475.392 929.577 475.833 930.693 476.715C931.827 477.597 932.394 478.848 932.394 480.468V485.409C932.394 485.823 932.493 486.147 932.691 486.381C932.907 486.615 933.177 486.732 933.501 486.732ZM929.505 485.247V483.627C928.443 482.997 927.264 482.682 925.968 482.682C924.996 482.682 924.231 482.862 923.673 483.222C923.133 483.582 922.863 484.086 922.863 484.734C922.863 485.436 923.124 485.967 923.646 486.327C924.168 486.669 924.861 486.84 925.725 486.84C926.499 486.84 927.219 486.687 927.885 486.381C928.551 486.075 929.091 485.697 929.505 485.247ZM937.164 489V475.743H940.08V484.734L947.235 475.743H949.962V489H947.046V479.982L939.891 489H937.164ZM943.563 473.961C942.195 473.961 941.07 473.565 940.188 472.773C939.324 471.963 938.892 470.874 938.892 469.506H941.349C941.349 470.172 941.538 470.712 941.916 471.126C942.312 471.522 942.852 471.72 943.536 471.72C944.184 471.72 944.706 471.513 945.102 471.099C945.516 470.685 945.732 470.154 945.75 469.506H948.234C948.234 470.856 947.784 471.936 946.884 472.746C946.002 473.556 944.895 473.961 943.563 473.961ZM806.18 525.562H803.183C800.537 522.286 799.214 518.182 799.214 513.25C799.214 508.318 800.537 504.214 803.183 500.938H806.18C803.336 504.538 801.914 508.642 801.914 513.25C801.914 517.858 803.336 521.962 806.18 525.562ZM815.441 520.351C812.597 520.351 810.23 519.676 808.34 518.326V515.113C809.096 515.779 810.113 516.355 811.391 516.841C812.687 517.327 813.983 517.57 815.279 517.57C816.521 517.57 817.556 517.327 818.384 516.841C819.23 516.337 819.653 515.644 819.653 514.762C819.653 514.312 819.545 513.916 819.329 513.574C819.131 513.232 818.825 512.953 818.411 512.737C817.997 512.503 817.556 512.305 817.088 512.143C816.62 511.963 816.044 511.774 815.36 511.576C815.144 511.522 814.982 511.477 814.874 511.441C813.848 511.153 813.029 510.901 812.417 510.685C811.823 510.451 811.193 510.127 810.527 509.713C809.861 509.299 809.366 508.777 809.042 508.147C808.736 507.517 808.583 506.77 808.583 505.906C808.583 504.34 809.195 503.089 810.419 502.153C811.643 501.217 813.317 500.749 815.441 500.749C817.709 500.749 819.725 501.271 821.489 502.315V505.285C819.581 504.115 817.583 503.53 815.495 503.53C814.199 503.53 813.227 503.755 812.579 504.205C811.949 504.655 811.634 505.231 811.634 505.933C811.634 506.185 811.67 506.419 811.742 506.635C811.832 506.833 811.976 507.022 812.174 507.202C812.372 507.364 812.561 507.508 812.741 507.634C812.921 507.742 813.182 507.859 813.524 507.985C813.884 508.111 814.181 508.219 814.415 508.309C814.667 508.381 815.027 508.489 815.495 508.633C815.963 508.759 816.323 508.858 816.575 508.93C817.295 509.146 817.898 509.353 818.384 509.551C818.888 509.749 819.437 510.01 820.031 510.334C820.625 510.658 821.093 511.009 821.435 511.387C821.795 511.765 822.092 512.242 822.326 512.818C822.578 513.394 822.704 514.024 822.704 514.708C822.704 516.454 822.011 517.831 820.625 518.839C819.239 519.847 817.511 520.351 815.441 520.351ZM835.478 520.351H835.181C832.427 520.351 830.132 519.415 828.296 517.543C826.46 515.653 825.542 513.322 825.542 510.55C825.542 507.778 826.46 505.456 828.296 503.584C830.132 501.694 832.427 500.749 835.181 500.749C837.935 500.749 840.23 501.694 842.066 503.584C843.92 505.456 844.847 507.778 844.847 510.55C844.847 512.638 844.298 514.501 843.2 516.139C842.12 517.777 840.671 518.956 838.853 519.676C839.843 520.702 840.851 521.215 841.877 521.215C842.741 521.215 843.488 521.017 844.118 520.621V523.348C843.308 523.744 842.408 523.942 841.418 523.942C840.374 523.942 839.393 523.645 838.475 523.051C837.557 522.457 836.558 521.557 835.478 520.351ZM835.181 517.57C837.071 517.57 838.646 516.904 839.906 515.572C841.166 514.24 841.796 512.566 841.796 510.55C841.796 508.534 841.166 506.86 839.906 505.528C838.646 504.196 837.071 503.53 835.181 503.53C833.309 503.53 831.743 504.196 830.483 505.528C829.223 506.86 828.593 508.534 828.593 510.55C828.593 512.566 829.223 514.24 830.483 515.572C831.743 516.904 833.309 517.57 835.181 517.57ZM850.46 525.562H847.463C850.307 521.962 851.729 517.858 851.729 513.25C851.729 508.642 850.307 504.538 847.463 500.938H850.46C853.106 504.214 854.429 508.318 854.429 513.25C854.429 518.182 853.106 522.286 850.46 525.562Z" fill="black"/>
<rect x="782.5" y="577.5" width="227" height="89" rx="13.5" stroke="black"/>
<path d="M808.637 616.351C805.811 616.351 803.444 615.433 801.536 613.597C799.628 611.743 798.674 609.394 798.674 606.55C798.674 603.706 799.619 601.366 801.509 599.53C803.399 597.676 805.775 596.749 808.637 596.749C810.563 596.749 812.273 597.172 813.767 598.018V601.015C812.219 600.025 810.518 599.53 808.664 599.53C806.666 599.53 805.01 600.196 803.696 601.528C802.382 602.842 801.725 604.516 801.725 606.55C801.725 608.602 802.391 610.285 803.723 611.599C805.073 612.913 806.756 613.57 808.772 613.57C810.914 613.57 812.714 612.994 814.172 611.842V614.839C812.606 615.847 810.761 616.351 808.637 616.351ZM829.092 614.326C827.742 615.676 826.005 616.351 823.881 616.351C821.757 616.351 820.011 615.676 818.643 614.326C817.275 612.976 816.591 611.32 816.591 609.358C816.591 607.414 817.275 605.767 818.643 604.417C820.011 603.067 821.757 602.392 823.881 602.392C826.005 602.392 827.742 603.067 829.092 604.417C830.46 605.767 831.144 607.414 831.144 609.358C831.144 611.32 830.46 612.976 829.092 614.326ZM826.635 605.902C825.861 605.272 824.943 604.957 823.881 604.957C822.819 604.957 821.892 605.272 821.1 605.902C820.326 606.532 819.831 607.342 819.615 608.332H828.12C827.904 607.342 827.409 606.532 826.635 605.902ZM823.881 613.786C824.925 613.786 825.825 613.48 826.581 612.868C827.355 612.256 827.859 611.455 828.093 610.465H819.615C819.849 611.455 820.353 612.256 821.127 612.868C821.901 613.48 822.819 613.786 823.881 613.786ZM838.154 616.351C836.084 616.351 834.401 616.036 833.105 615.406V612.76C834.581 613.48 836.129 613.84 837.749 613.84C838.901 613.84 839.81 613.678 840.476 613.354C841.142 613.03 841.475 612.553 841.475 611.923C841.475 610.807 840.503 610.249 838.559 610.249H836.102V607.9H838.559C840.215 607.9 841.043 607.414 841.043 606.442C841.043 605.416 839.972 604.903 837.83 604.903C836.462 604.903 835.013 605.227 833.483 605.875V603.31C834.851 602.698 836.507 602.392 838.451 602.392C840.053 602.392 841.385 602.725 842.447 603.391C843.509 604.057 844.04 604.912 844.04 605.956C844.04 607.468 843.365 608.44 842.015 608.872C843.707 609.394 844.553 610.483 844.553 612.139C844.553 613.381 843.968 614.398 842.798 615.19C841.628 615.964 840.08 616.351 838.154 616.351ZM847.964 616V602.743H858.224V605.308H850.88V616H847.964ZM871.984 615.055C870.778 615.919 869.149 616.351 867.097 616.351C865.045 616.351 863.308 615.703 861.886 614.407C860.482 613.111 859.78 611.428 859.78 609.358C859.78 607.378 860.41 605.722 861.67 604.39C862.93 603.058 864.568 602.392 866.584 602.392C868.564 602.392 870.103 603.103 871.201 604.525C872.317 605.929 872.875 607.576 872.875 609.466V610.222H862.723C862.921 611.338 863.461 612.211 864.343 612.841C865.243 613.471 866.368 613.786 867.718 613.786C869.302 613.786 870.724 613.39 871.984 612.598V615.055ZM862.75 608.008H869.932C869.932 607.216 869.617 606.496 868.987 605.848C868.375 605.182 867.529 604.849 866.449 604.849C865.387 604.849 864.523 605.164 863.857 605.794C863.191 606.406 862.822 607.144 862.75 608.008ZM883.19 616V602.743H886.106V613.435H891.047V602.743H893.963V613.435H898.904V602.743H901.82V616H883.19ZM917.231 615.055C916.025 615.919 914.396 616.351 912.344 616.351C910.292 616.351 908.555 615.703 907.133 614.407C905.729 613.111 905.027 611.428 905.027 609.358C905.027 607.378 905.657 605.722 906.917 604.39C908.177 603.058 909.815 602.392 911.831 602.392C913.811 602.392 915.35 603.103 916.448 604.525C917.564 605.929 918.122 607.576 918.122 609.466V610.222H907.97C908.168 611.338 908.708 612.211 909.59 612.841C910.49 613.471 911.615 613.786 912.965 613.786C914.549 613.786 915.971 613.39 917.231 612.598V615.055ZM907.997 608.008H915.179C915.179 607.216 914.864 606.496 914.234 605.848C913.622 605.182 912.776 604.849 911.696 604.849C910.634 604.849 909.77 605.164 909.104 605.794C908.438 606.406 908.069 607.144 907.997 608.008ZM921.423 616V602.743H924.339V613.435H929.28V602.743H932.196V613.435H937.137V602.743H940.053V616H921.423ZM955.463 615.055C954.257 615.919 952.628 616.351 950.576 616.351C948.524 616.351 946.787 615.703 945.365 614.407C943.961 613.111 943.259 611.428 943.259 609.358C943.259 607.378 943.889 605.722 945.149 604.39C946.409 603.058 948.047 602.392 950.063 602.392C952.043 602.392 953.582 603.103 954.68 604.525C955.796 605.929 956.354 607.576 956.354 609.466V610.222H946.202C946.4 611.338 946.94 612.211 947.822 612.841C948.722 613.471 949.847 613.786 951.197 613.786C952.781 613.786 954.203 613.39 955.463 612.598V615.055ZM946.229 608.008H953.411C953.411 607.216 953.096 606.496 952.466 605.848C951.854 605.182 951.008 604.849 949.928 604.849C948.866 604.849 948.002 605.164 947.336 605.794C946.67 606.406 946.301 607.144 946.229 608.008ZM959.655 616V602.743H962.571V607.927H969.294V602.743H972.21V616H969.294V610.492H962.571V616H959.655ZM974.509 620.104L976.75 612.544H980.098L976.804 620.104H974.509ZM799.322 647V633.743H802.238V647H799.322ZM802.076 630.854C801.734 631.196 801.302 631.367 800.78 631.367C800.258 631.367 799.817 631.196 799.457 630.854C799.115 630.494 798.944 630.053 798.944 629.531C798.944 629.009 799.115 628.568 799.457 628.208C799.817 627.848 800.258 627.668 800.78 627.668C801.302 627.668 801.734 627.848 802.076 628.208C802.418 628.568 802.589 629.009 802.589 629.531C802.589 630.053 802.418 630.494 802.076 630.854ZM812.856 647.351C810.876 647.351 809.184 646.694 807.78 645.38C806.394 644.066 805.701 642.383 805.701 640.331C805.701 638.297 806.394 636.632 807.78 635.336C809.184 634.04 810.885 633.392 812.883 633.392C814.377 633.392 815.709 633.698 816.879 634.31V636.821C815.691 636.245 814.503 635.957 813.315 635.957C812.001 635.957 810.885 636.371 809.967 637.199C809.067 638.027 808.617 639.08 808.617 640.358C808.617 641.636 809.067 642.698 809.967 643.544C810.885 644.372 812.001 644.786 813.315 644.786C814.683 644.786 815.943 644.453 817.095 643.787V646.271C815.835 646.991 814.422 647.351 812.856 647.351ZM820.674 647V633.743H823.59V638.765L828.828 633.743H832.554L826.263 639.683L833.499 647H829.503L823.59 641.006V647H820.674ZM846.382 646.055C845.176 646.919 843.547 647.351 841.495 647.351C839.443 647.351 837.706 646.703 836.284 645.407C834.88 644.111 834.178 642.428 834.178 640.358C834.178 638.378 834.808 636.722 836.068 635.39C837.328 634.058 838.966 633.392 840.982 633.392C842.962 633.392 844.501 634.103 845.599 635.525C846.715 636.929 847.273 638.576 847.273 640.466V641.222H837.121C837.319 642.338 837.859 643.211 838.741 643.841C839.641 644.471 840.766 644.786 842.116 644.786C843.7 644.786 845.122 644.39 846.382 643.598V646.055ZM837.148 639.008H844.33C844.33 638.216 844.015 637.496 843.385 636.848C842.773 636.182 841.927 635.849 840.847 635.849C839.785 635.849 838.921 636.164 838.255 636.794C837.589 637.406 837.22 638.144 837.148 639.008ZM857.588 647V633.743H860.504V638.765L865.742 633.743H869.468L863.177 639.683L870.413 647H866.417L860.504 641.006V647H857.588ZM883.593 645.326C882.243 646.676 880.506 647.351 878.382 647.351C876.258 647.351 874.512 646.676 873.144 645.326C871.776 643.976 871.092 642.32 871.092 640.358C871.092 638.414 871.776 636.767 873.144 635.417C874.512 634.067 876.258 633.392 878.382 633.392C880.506 633.392 882.243 634.067 883.593 635.417C884.961 636.767 885.645 638.414 885.645 640.358C885.645 642.32 884.961 643.976 883.593 645.326ZM881.136 636.902C880.362 636.272 879.444 635.957 878.382 635.957C877.32 635.957 876.393 636.272 875.601 636.902C874.827 637.532 874.332 638.342 874.116 639.332H882.621C882.405 638.342 881.91 637.532 881.136 636.902ZM878.382 644.786C879.426 644.786 880.326 644.48 881.082 643.868C881.856 643.256 882.36 642.455 882.594 641.465H874.116C874.35 642.455 874.854 643.256 875.628 643.868C876.402 644.48 877.32 644.786 878.382 644.786ZM895.069 647.351C893.089 647.351 891.397 646.694 889.993 645.38C888.607 644.066 887.914 642.383 887.914 640.331C887.914 638.297 888.607 636.632 889.993 635.336C891.397 634.04 893.098 633.392 895.096 633.392C896.59 633.392 897.922 633.698 899.092 634.31V636.821C897.904 636.245 896.716 635.957 895.528 635.957C894.214 635.957 893.098 636.371 892.18 637.199C891.28 638.027 890.83 639.08 890.83 640.358C890.83 641.636 891.28 642.698 892.18 643.544C893.098 644.372 894.214 644.786 895.528 644.786C896.896 644.786 898.156 644.453 899.308 643.787V646.271C898.048 646.991 896.635 647.351 895.069 647.351ZM913.882 646.055C912.676 646.919 911.047 647.351 908.995 647.351C906.943 647.351 905.206 646.703 903.784 645.407C902.38 644.111 901.678 642.428 901.678 640.358C901.678 638.378 902.308 636.722 903.568 635.39C904.828 634.058 906.466 633.392 908.482 633.392C910.462 633.392 912.001 634.103 913.099 635.525C914.215 636.929 914.773 638.576 914.773 640.466V641.222H904.621C904.819 642.338 905.359 643.211 906.241 643.841C907.141 644.471 908.266 644.786 909.616 644.786C911.2 644.786 912.622 644.39 913.882 643.598V646.055ZM904.648 639.008H911.83C911.83 638.216 911.515 637.496 910.885 636.848C910.273 636.182 909.427 635.849 908.347 635.849C907.285 635.849 906.421 636.164 905.755 636.794C905.089 637.406 904.72 638.144 904.648 639.008ZM918.074 647V633.743H920.936L925.472 639.251L930.035 633.743H932.897V647H930.089V637.712L926.039 642.599H924.905L920.882 637.712V647H918.074Z" fill="black"/>
<path d="M403 257L413.239 262.339L412.743 250.803L403 257ZM590.563 197.101C571.597 206.316 540.615 219.922 507.517 231.738C474.4 243.561 439.247 253.562 411.909 255.617L412.059 257.611C439.675 255.535 475.035 245.458 508.19 233.622C541.363 221.779 572.412 208.143 591.437 198.899L590.563 197.101Z" fill="#01B0EA"/>
<path d="M403 368L413.631 372.507L412.219 361.047L403 368ZM590.186 197.419C571.207 223.99 540.21 263.211 507.106 297.26C490.553 314.284 473.49 329.998 457.153 342.189C440.798 354.393 425.25 363.004 411.722 365.922L412.144 367.877C426.092 364.868 441.916 356.054 458.349 343.792C474.801 331.516 491.945 315.722 508.539 298.654C541.73 264.517 572.79 225.214 591.814 198.581L590.186 197.419Z" fill="#01B0EA"/>
<path d="M403 495L413.983 498.565L411.579 487.271L403 495ZM590.074 197.622C571.067 244.11 540.02 312.74 506.867 372.291C490.289 402.069 473.198 429.552 456.836 450.856C448.655 461.509 440.669 470.599 433.034 477.654C425.39 484.717 418.145 489.697 411.448 492.191L412.146 494.065C419.186 491.444 426.654 486.273 434.391 479.123C442.137 471.966 450.199 462.782 458.422 452.075C474.869 430.66 492.014 403.083 508.614 373.264C541.817 313.623 572.898 244.917 591.926 198.378L590.074 197.622Z" fill="#01B0EA"/>
<path d="M403 622L414.236 624.662L410.924 613.601L403 622ZM590.039 197.725C571.007 264.177 539.908 362.31 506.706 447.414C490.104 489.968 472.986 529.24 456.597 559.658C448.402 574.868 440.401 587.842 432.75 597.899C425.085 607.975 417.835 615.038 411.163 618.531L412.091 620.303C419.154 616.605 426.62 609.261 434.342 599.11C442.079 588.94 450.135 575.867 458.358 560.607C474.802 530.085 491.955 490.728 508.57 448.141C541.801 362.962 572.919 264.767 591.961 198.275L590.039 197.725Z" fill="#01B0EA"/>
<path d="M780 257L769.763 262.343L770.255 250.806L780 257ZM591.435 197.1C610.506 206.317 641.662 219.927 674.944 231.745C708.246 243.57 743.593 253.57 771.077 255.619L770.928 257.614C743.167 255.544 707.613 245.467 674.275 233.63C640.918 221.785 609.695 208.146 590.565 198.9L591.435 197.1Z" fill="#01B0EA"/>
<path d="M780 368L769.374 372.519L770.773 361.057L780 368ZM591.812 197.417C610.898 223.996 642.074 263.233 675.366 297.289C692.012 314.318 709.171 330.033 725.599 342.221C742.046 354.423 757.679 363.027 771.28 365.932L770.862 367.888C756.842 364.894 740.933 356.087 724.408 343.828C707.865 331.555 690.625 315.759 673.936 298.687C640.557 264.543 609.318 225.225 590.188 198.583L591.812 197.417Z" fill="#01B0EA"/>
<path d="M780 495L769.023 498.584L771.408 487.286L780 495ZM591.925 197.62C611.037 244.118 642.258 312.766 675.596 372.326C692.265 402.108 709.45 429.593 725.902 450.894C734.128 461.544 742.157 470.632 749.834 477.683C757.519 484.741 764.804 489.716 771.537 492.202L770.844 494.079C763.768 491.466 756.26 486.301 748.481 479.156C740.694 472.003 732.588 462.822 724.319 452.116C707.783 430.705 690.543 403.126 673.85 373.303C640.463 313.653 609.208 244.929 590.075 198.38L591.925 197.62Z" fill="#01B0EA"/>
<path d="M780 622L768.771 624.692L772.054 613.622L780 622ZM591.961 197.723C611.099 264.197 642.377 362.369 675.767 447.491C692.464 490.054 709.678 529.33 726.158 559.741C734.398 574.947 742.444 587.915 750.135 597.962C757.842 608.029 765.132 615.079 771.838 618.556L770.918 620.331C763.818 616.651 756.312 609.32 748.547 599.178C740.769 589.017 732.667 575.95 724.4 560.694C707.864 530.179 690.614 490.817 673.906 448.221C640.486 363.024 609.188 264.789 590.039 198.277L591.961 197.723Z" fill="#01B0EA"/>
</svg>
