<svg width="65" height="65" viewBox="0 0 65 65" fill="none" xmlns="http://www.w3.org/2000/svg">
<g clip-path="url(#clip0_1222_980)">
<path d="M32.5 65C50.4493 65 65 50.4493 65 32.5C65 14.5507 50.4493 0 32.5 0C14.5507 0 0 14.5507 0 32.5C0 50.4493 14.5507 65 32.5 65Z" fill="#009FD3"/>
<g clip-path="url(#clip1_1222_980)">
<path d="M29.4062 18.0625C28.5857 18.0625 27.7988 18.3884 27.2186 18.9686C26.6384 19.5488 26.3125 20.3357 26.3125 21.1562V22.1875H19.0938C18.2732 22.1875 17.4863 22.5134 16.9061 23.0936C16.3259 23.6738 16 24.4607 16 25.2812V28.1357L31.7039 32.3226C32.2255 32.4615 32.7745 32.4615 33.2961 32.3226L49 28.1357V25.2812C49 24.4607 48.6741 23.6738 48.0939 23.0936C47.5137 22.5134 46.7268 22.1875 45.9062 22.1875H38.6875V21.1562C38.6875 20.3357 38.3616 19.5488 37.7814 18.9686C37.2012 18.3884 36.4143 18.0625 35.5938 18.0625H29.4062ZM29.4062 20.125H35.5938C35.8673 20.125 36.1296 20.2336 36.323 20.427C36.5164 20.6204 36.625 20.8827 36.625 21.1562V22.1875H28.375V21.1562C28.375 20.8827 28.4836 20.6204 28.677 20.427C28.8704 20.2336 29.1327 20.125 29.4062 20.125Z" fill="white"/>
<path d="M16 41.7859C16 42.6065 16.3361 43.3934 16.9345 43.9735C17.5328 44.5537 18.3443 44.8797 19.1904 44.8797H46.8408C47.687 44.8797 48.4985 44.5537 49.0968 43.9735C49.6951 43.3934 50.0312 42.6065 50.0312 41.7859V30.1328L33.29 34.4579C33.1102 34.5044 32.921 34.5044 32.7412 34.4579L16 30.1328V41.7859Z" fill="white"/>
</g>
</g>
<defs>
<clipPath id="clip0_1222_980">
<rect width="65" height="65" fill="white"/>
</clipPath>
<clipPath id="clip1_1222_980">
<rect width="33" height="33" fill="white" transform="translate(16 16)"/>
</clipPath>
</defs>
</svg>
