<svg width="65" height="65" viewBox="0 0 65 65" fill="none" xmlns="http://www.w3.org/2000/svg">
<path d="M32.5 65C50.4493 65 65 50.4493 65 32.5C65 14.5507 50.4493 0 32.5 0C14.5507 0 0 14.5507 0 32.5C0 50.4493 14.5507 65 32.5 65Z" fill="#009FD3"/>
<g clip-path="url(#clip0_1228_1029)">
<path d="M26.3125 18.0625C26.3125 16.9217 27.2342 16 28.375 16H30.4375C31.5783 16 32.5 16.9217 32.5 18.0625C33.6408 18.0625 34.5625 18.9842 34.5625 20.125V34.5625C34.5625 35.7033 33.6408 36.625 32.5 36.625C32.5 37.7658 31.5783 38.6875 30.4375 38.6875H28.375C27.2342 38.6875 26.3125 37.7658 26.3125 36.625C25.1717 36.625 24.25 35.7033 24.25 34.5625V20.125C24.25 18.9842 25.1717 18.0625 26.3125 18.0625ZM18.0625 44.875H36.625C41.1818 44.875 44.875 41.1818 44.875 36.625C44.875 32.0682 41.1818 28.375 36.625 28.375V24.25C43.457 24.25 49 29.793 49 36.625C49 39.7961 47.8076 42.6836 45.8482 44.875H46.9375C48.0783 44.875 49 45.7967 49 46.9375C49 48.0783 48.0783 49 46.9375 49H36.625H18.0625C16.9217 49 16 48.0783 16 46.9375C16 45.7967 16.9217 44.875 18.0625 44.875ZM23.2188 40.75H35.5938C36.1609 40.75 36.625 41.2141 36.625 41.7812C36.625 42.3484 36.1609 42.8125 35.5938 42.8125H23.2188C22.6516 42.8125 22.1875 42.3484 22.1875 41.7812C22.1875 41.2141 22.6516 40.75 23.2188 40.75Z" fill="white"/>
</g>
<defs>
<clipPath id="clip0_1228_1029">
<rect width="33" height="33" fill="white" transform="translate(16 16)"/>
</clipPath>
</defs>
</svg>
