<svg width="65" height="65" viewBox="0 0 65 65" fill="none" xmlns="http://www.w3.org/2000/svg">
<path d="M32.5 65C50.4493 65 65 50.4493 65 32.5C65 14.5507 50.4493 0 32.5 0C14.5507 0 0 14.5507 0 32.5C0 50.4493 14.5507 65 32.5 65Z" fill="#00C0FF"/>
<path d="M24.5195 39.3281V48.003L32.7695 45.9405L41.0195 48.003V39.3281L36.8574 39.9593L32.7695 42.0754L28.6817 39.9593L24.5195 39.3281Z" fill="white"/>
<path d="M32.7686 15L36.2109 16.782L40.0431 17.3636L41.7797 20.8286L44.5373 23.5511L43.9061 27.375L44.5373 31.1989L41.7797 33.9214L40.0431 37.3864L36.2109 37.968L32.7686 39.75L29.3263 37.968L25.4942 37.3864L23.7576 33.9214L21 31.1989L21.6311 27.375L21 23.5511L23.7576 20.8286L25.4942 17.3636L29.3263 16.782L32.7686 15Z" fill="white"/>
</svg>
